<?xml version="1.0" encoding="UTF-8" standalone="no"?>
<svg
   width="56"
   height="56"
   version="1.1"
   id="svg16"
   sodipodi:docname="LMU.svg"
   xml:space="preserve"
   inkscape:export-filename="..\..\..\..\..\icons\LMU\LMU_logo.png"
   inkscape:export-xdpi="300"
   inkscape:export-ydpi="300"
   inkscape:version="1.2.2 (732a01da63, 2022-12-09)"
   xmlns:inkscape="http://www.inkscape.org/namespaces/inkscape"
   xmlns:sodipodi="http://sodipodi.sourceforge.net/DTD/sodipodi-0.dtd"
   xmlns="http://www.w3.org/2000/svg"
   xmlns:svg="http://www.w3.org/2000/svg"><defs
     id="defs20" /><sodipodi:namedview
     id="namedview18"
     pagecolor="#ffffff"
     bordercolor="#666666"
     borderopacity="1.0"
     inkscape:showpageshadow="2"
     inkscape:pageopacity="0.0"
     inkscape:pagecheckerboard="0"
     inkscape:deskcolor="#ffffff"
     showgrid="false"
     showguides="true"
     inkscape:zoom="4.2142857"
     inkscape:cx="-68.932203"
     inkscape:cy="103.33898"
     inkscape:window-width="2560"
     inkscape:window-height="1373"
     inkscape:window-x="-9"
     inkscape:window-y="1125"
     inkscape:window-maximized="1"
     inkscape:current-layer="svg16" /><rect
     style="fill:#ffffff;fill-opacity:0.997312;fill-rule:evenodd;stroke:none;stroke-width:1.87008"
     id="rect381"
     width="54.129921"
     height="54.129921"
     x="0.93503952"
     y="0.93503952" /><!-- Created with Method Draw - http://github.com/duopixel/Method-Draw/ --><g
     id="g192"
     transform="matrix(1.0036901,0,0,1,1.5638235,23.254237)"><path
       style="fill:#00863f;stroke-width:0.205882"
       d="M -1.558075,4.745763 V -23.254239 H 26.338983 54.236041 V 4.745763 32.745765 H 26.338983 -1.558075 Z m 45.088234,24.077602 c 2.654814,-0.42337 4.667114,-1.73242 5.652584,-3.67713 0.80002,-1.57878 0.935651,-2.98953 0.935651,-9.7324 V 9.069292 h -3.397058 -3.397059 v 6.557513 c 0,4.2683 -0.07967,6.78604 -0.228208,7.21213 -0.464284,1.33186 -2.446327,1.70514 -3.493515,0.65795 l -0.601807,-0.6018 V 15.982175 9.069292 H 35.593871 32.187 l 0.06125,7.257353 0.06131,7.25735 0.535519,1.14175 c 0.29454,0.62796 0.833598,1.48123 1.197907,1.89615 1.658769,1.88924 5.644857,2.81419 9.487161,2.20147 z M 9.971337,27.701645 v -0.72059 H 7.1919248 4.4125131 V 18.025175 9.069292 H 3.3831014 2.3536897 v 9.676473 9.67647 H 6.162513 9.971337 Z m 5.160105,-7.46323 c 0.0076,-4.74684 0.08697,-8.000844 0.189072,-7.748118 0.09681,0.239648 0.748228,3.296998 1.447603,6.794118 0.699376,3.49712 1.411845,6.98377 1.583275,7.74811 l 0.31168,1.38971 h 2.019422 2.019423 l 0.20715,-0.97794 c 0.739683,-3.49211 1.964439,-9.47161 2.477491,-12.09559 l 0.603821,-3.088237 0.01988,8.080887 0.01988,8.08088 h 1.955881 1.955883 v -9.67647 -9.676473 h -3.162887 -3.162874 l -0.437821,2.056115 c -0.610957,2.869208 -1.803742,9.241718 -2.110165,11.273628 -0.140792,0.93357 -0.27834,1.67475 -0.305671,1.64706 -0.02735,-0.0277 -0.334765,-1.78549 -0.683195,-3.90624 -0.605976,-3.68833 -1.775369,-9.95127 -1.999787,-10.710269 -0.0955,-0.322972 -0.435666,-0.360294 -3.283836,-0.360294 h -3.177299 v 9.676473 9.67647 h 1.749999 1.750001 l 0.01306,-8.18382 z"
       id="path194"
       sodipodi:nodetypes="cccccccccssscccssscccccccsssscccccccccccccsssscccsscccccccccsscsssccccccs" /></g></svg>
