<?xml version="1.0" encoding="UTF-8" standalone="no"?>
<svg
   width="800"
   height="450"
   viewBox="0 0 211.66667 119.06251"
   version="1.1"
   id="svg8"
   inkscape:version="1.2.2 (732a01da63, 2022-12-09)"
   sodipodi:docname="NetCoMi_logo.svg"
   inkscape:export-filename="D:\Users\stefanie.kruegel\Nextcloud\NetCoMi_project\logo\NetCoMi_logo_800x400_300dpi.png"
   inkscape:export-xdpi="300"
   inkscape:export-ydpi="300"
   xmlns:inkscape="http://www.inkscape.org/namespaces/inkscape"
   xmlns:sodipodi="http://sodipodi.sourceforge.net/DTD/sodipodi-0.dtd"
   xmlns:xlink="http://www.w3.org/1999/xlink"
   xmlns="http://www.w3.org/2000/svg"
   xmlns:svg="http://www.w3.org/2000/svg"
   xmlns:rdf="http://www.w3.org/1999/02/22-rdf-syntax-ns#"
   xmlns:cc="http://creativecommons.org/ns#"
   xmlns:dc="http://purl.org/dc/elements/1.1/">
  <defs
     id="defs2">
    <linearGradient
       id="linearGradient1569"
       inkscape:collect="always">
      <stop
         id="stop1563"
         offset="0"
         style="stop-color:#ff9f6b;stop-opacity:1" />
      <stop
         style="stop-color:#ae4141;stop-opacity:1"
         offset="0.58160019"
         id="stop1565" />
      <stop
         id="stop1567"
         offset="1"
         style="stop-color:#4d0505;stop-opacity:1" />
    </linearGradient>
    <linearGradient
       id="linearGradient1132"
       inkscape:collect="always">
      <stop
         id="stop1126"
         offset="0"
         style="stop-color:#e9f465;stop-opacity:1" />
      <stop
         style="stop-color:#8caf40;stop-opacity:1;"
         offset="0.49485418"
         id="stop1128" />
      <stop
         id="stop1130"
         offset="1"
         style="stop-color:#384c05;stop-opacity:1" />
    </linearGradient>
    <linearGradient
       id="linearGradient1103"
       inkscape:collect="always">
      <stop
         id="stop1099"
         offset="0"
         style="stop-color:#8c8c8c;stop-opacity:1;" />
      <stop
         id="stop1101"
         offset="1"
         style="stop-color:#595959;stop-opacity:1" />
    </linearGradient>
    <inkscape:path-effect
       effect="powerstroke"
       id="path-effect1084"
       is_visible="true"
       lpeversion="1"
       offset_points="0,46.380687"
       sort_points="true"
       interpolator_type="CubicBezierJohan"
       interpolator_beta="0.2"
       start_linecap_type="zerowidth"
       linejoin_type="extrp_arc"
       miter_limit="4"
       scale_width="1"
       end_linecap_type="zerowidth"
       not_jump="false" />
    <inkscape:path-effect
       effect="spiro"
       id="path-effect1082"
       is_visible="true"
       lpeversion="1" />
    <inkscape:path-effect
       end_linecap_type="zerowidth"
       scale_width="1"
       miter_limit="4"
       linejoin_type="extrp_arc"
       start_linecap_type="zerowidth"
       interpolator_beta="0.2"
       interpolator_type="CubicBezierJohan"
       sort_points="true"
       offset_points="0,46.380687"
       lpeversion="1"
       is_visible="true"
       id="path-effect1061"
       effect="powerstroke"
       not_jump="false" />
    <inkscape:path-effect
       lpeversion="1"
       is_visible="true"
       id="path-effect1059"
       effect="spiro" />
    <inkscape:path-effect
       id="path-effect2"
       effect="spiro"
       is_visible="true"
       lpeversion="0" />
    <inkscape:path-effect
       lpeversion="1"
       is_visible="true"
       id="path-effect1076"
       effect="spiro" />
    <inkscape:path-effect
       lpeversion="1"
       is_visible="true"
       id="path-effect1058"
       effect="spiro" />
    <inkscape:path-effect
       end_linecap_type="zerowidth"
       scale_width="1"
       miter_limit="4"
       linejoin_type="extrp_arc"
       start_linecap_type="zerowidth"
       interpolator_beta="0.2"
       interpolator_type="CubicBezierJohan"
       sort_points="true"
       offset_points="0,40.7358"
       lpeversion="1"
       is_visible="true"
       id="path-effect1047"
       effect="powerstroke"
       not_jump="false" />
    <inkscape:path-effect
       end_linecap_type="zerowidth"
       scale_width="1.15"
       miter_limit="4"
       linejoin_type="extrp_arc"
       start_linecap_type="zerowidth"
       interpolator_beta="0.2"
       interpolator_type="CubicBezierJohan"
       sort_points="true"
       offset_points="0,40.7358"
       lpeversion="1"
       is_visible="true"
       id="path-effect1039"
       effect="powerstroke"
       not_jump="false" />
    <inkscape:path-effect
       end_linecap_type="zerowidth"
       scale_width="1"
       miter_limit="4"
       linejoin_type="extrp_arc"
       start_linecap_type="zerowidth"
       interpolator_beta="0.2"
       interpolator_type="CubicBezierJohan"
       sort_points="true"
       offset_points="0,40.7358"
       lpeversion="1"
       is_visible="true"
       id="path-effect1035"
       effect="powerstroke"
       not_jump="false" />
    <inkscape:path-effect
       end_linecap_type="zerowidth"
       scale_width="0.65"
       miter_limit="4"
       linejoin_type="extrp_arc"
       start_linecap_type="zerowidth"
       interpolator_beta="0.2"
       interpolator_type="CubicBezierJohan"
       sort_points="true"
       offset_points="0,67.89307"
       lpeversion="1"
       is_visible="true"
       id="path-effect1031"
       effect="powerstroke"
       not_jump="false" />
    <inkscape:path-effect
       lpeversion="1"
       is_visible="true"
       id="path-effect1029"
       effect="spiro" />
    <linearGradient
       inkscape:collect="always"
       id="linearGradient2118">
      <stop
         style="stop-color:#595959;stop-opacity:1;"
         offset="0"
         id="stop2114" />
      <stop
         style="stop-color:#8c8c8c;stop-opacity:1"
         offset="1"
         id="stop2116" />
    </linearGradient>
    <linearGradient
       inkscape:collect="always"
       id="linearGradient2094">
      <stop
         style="stop-color:#8c8c8c;stop-opacity:1"
         offset="0"
         id="stop2090" />
      <stop
         style="stop-color:#595959;stop-opacity:1"
         offset="1"
         id="stop2092" />
    </linearGradient>
    <inkscape:path-effect
       effect="powerstroke"
       id="path-effect1490"
       is_visible="true"
       lpeversion="1"
       offset_points="0,66.9141"
       sort_points="true"
       interpolator_type="CubicBezierJohan"
       interpolator_beta="0.2"
       start_linecap_type="zerowidth"
       linejoin_type="extrp_arc"
       miter_limit="4"
       scale_width="1"
       end_linecap_type="zerowidth"
       not_jump="false" />
    <inkscape:path-effect
       effect="powerstroke"
       id="path-effect1463"
       is_visible="true"
       lpeversion="1"
       offset_points="0.0046226141,-66.91407"
       sort_points="true"
       interpolator_type="CubicBezierJohan"
       interpolator_beta="0.2"
       start_linecap_type="zerowidth"
       linejoin_type="extrp_arc"
       miter_limit="4"
       scale_width="1"
       end_linecap_type="zerowidth"
       not_jump="false" />
    <radialGradient
       inkscape:collect="always"
       xlink:href="#linearGradient2094"
       id="radialGradient2096"
       cx="1779.9867"
       cy="-54.075066"
       fx="1779.9867"
       fy="-54.075066"
       r="885.59094"
       gradientTransform="matrix(-1.7923572,-0.00209921,5.5512408e-4,-0.47425464,4866.7557,-26.015058)"
       gradientUnits="userSpaceOnUse" />
    <linearGradient
       inkscape:collect="always"
       xlink:href="#linearGradient2118"
       id="linearGradient2120"
       x1="398.98148"
       y1="-1255.75"
       x2="1008.0273"
       y2="-315.60739"
       gradientUnits="userSpaceOnUse" />
    <radialGradient
       inkscape:collect="always"
       xlink:href="#linearGradient1132"
       id="radialGradient2622"
       gradientUnits="userSpaceOnUse"
       gradientTransform="matrix(0.60096468,0.60116399,-0.60151256,0.60130196,573.84616,-1096.5579)"
       cx="1687.6013"
       cy="-148.36066"
       fx="1687.6013"
       fy="-148.36066"
       r="151.85866" />
    <filter
       inkscape:collect="always"
       style="color-interpolation-filters:sRGB"
       id="filter2664"
       x="-0.031388855"
       width="1.0627777"
       y="-0.031724692"
       height="1.0634494">
      <feGaussianBlur
         inkscape:collect="always"
         stdDeviation="3.2776089"
         id="feGaussianBlur2666" />
    </filter>
    <linearGradient
       gradientTransform="matrix(0.26458333,0,0,0.26458333,-305.99244,422.08561)"
       gradientUnits="userSpaceOnUse"
       y2="-3850.3164"
       x2="10258.082"
       y1="-3102.4312"
       x1="4613.8716"
       id="linearGradient1105"
       xlink:href="#linearGradient1103"
       inkscape:collect="always" />
    <radialGradient
       r="123.60298"
       fy="-516.98676"
       fx="2471.0142"
       cy="-516.98676"
       cx="2471.0142"
       gradientTransform="matrix(0.59857159,0.59404555,-0.61021682,0.61486615,690.39318,-1661.3524)"
       gradientUnits="userSpaceOnUse"
       id="radialGradient1557"
       xlink:href="#linearGradient1569"
       inkscape:collect="always" />
    <filter
       height="1.06262"
       y="-0.031310023"
       width="1.0354371"
       x="-0.014996849"
       id="filter1584"
       style="color-interpolation-filters:sRGB"
       inkscape:collect="always">
      <feGaussianBlur
         id="feGaussianBlur1586"
         stdDeviation="16.567114"
         inkscape:collect="always" />
    </filter>
  </defs>
  <sodipodi:namedview
     id="base"
     pagecolor="#ffffff"
     bordercolor="#666666"
     borderopacity="1.0"
     inkscape:pageopacity="0.0"
     inkscape:pageshadow="2"
     inkscape:zoom="1.3076889"
     inkscape:cx="63.853108"
     inkscape:cy="220.61822"
     inkscape:document-units="px"
     inkscape:current-layer="layer2"
     inkscape:document-rotation="0"
     showgrid="false"
     showborder="true"
     showguides="true"
     inkscape:guide-bbox="true"
     inkscape:window-width="2560"
     inkscape:window-height="1373"
     inkscape:window-x="-9"
     inkscape:window-y="-9"
     inkscape:window-maximized="1"
     inkscape:snap-others="true"
     inkscape:snap-nodes="true"
     fit-margin-top="0"
     fit-margin-left="0"
     fit-margin-right="0"
     fit-margin-bottom="0"
     units="px"
     inkscape:showpageshadow="2"
     inkscape:pagecheckerboard="0"
     inkscape:deskcolor="#d1d1d1" />
  <metadata
     id="metadata5">
    <rdf:RDF>
      <cc:Work
         rdf:about="">
        <dc:format>image/svg+xml</dc:format>
        <dc:type
           rdf:resource="http://purl.org/dc/dcmitype/StillImage" />
      </cc:Work>
    </rdf:RDF>
  </metadata>
  <g
     inkscape:label="Ebene 1"
     inkscape:groupmode="layer"
     id="layer1"
     transform="translate(60.721874,-372.70143)" />
  <g
     inkscape:groupmode="layer"
     id="layer2"
     inkscape:label="Schrift"
     transform="translate(60.721874,-372.70143)">
    <rect
       style="fill:#ffffff;fill-rule:evenodd;stroke-width:0.3"
       id="rect387"
       width="360.18497"
       height="162.88278"
       x="-339.5303"
       y="-114.70618"
       transform="matrix(0.58766105,0,0,0.73097048,138.80686,456.54826)" />
    <path
       id="path2077"
       style="display:none;opacity:0.735736;fill:none;fill-rule:evenodd;stroke:#e6e6e6;stroke-width:92.6042;stroke-miterlimit:4;stroke-dasharray:none"
       d="m 1033.971,-46.211866 c -60.90464,-0.2063 -115.99554,0.1954 -133.37644,-42.9403 -25.1662,-62.457404 -30.3994,-138.649104 -11.0625,-220.793604 31.9577,-135.759 129.93214,-259.7369 277.49804,-351.149 304.1328,-188.39972 756.0798,-202.67802 1083.4381,-34.22875 158.835,81.73195 272.5126,199.02315 321.9747,332.20985 49.462,133.1867 31.7015,274.171904 -50.3035,399.319604"
       sodipodi:nodetypes="csssssc"
       inkscape:connector-curvature="0" />
    <g
       id="g1116"
       transform="matrix(0.07692624,0,0,0.07692624,-55.253184,440.70979)">
      <g
         id="g1582"
         style="filter:url(#filter1584)"
         transform="translate(-952.26177,1249.8436)">
        <ellipse
           ry="126.72735"
           rx="128.08324"
           cy="-1373.8466"
           cx="2671.9634"
           id="ellipse1139"
           style="mix-blend-mode:normal;fill:#666666;fill-opacity:1;fill-rule:evenodd;stroke:#666666;stroke-width:0;stroke-miterlimit:4;stroke-dasharray:none;stroke-opacity:1" />
        <ellipse
           style="mix-blend-mode:normal;fill:#666666;fill-opacity:1;fill-rule:evenodd;stroke:#666666;stroke-width:28.8641;stroke-miterlimit:4;stroke-dasharray:none;stroke-opacity:1"
           id="ellipse1141"
           cx="3473.4253"
           cy="-1718.6763"
           rx="109.17093"
           ry="109.17094" />
        <path
           inkscape:connector-curvature="0"
           id="path1143"
           style="mix-blend-mode:normal;fill:#666666;fill-opacity:1;stroke:none;stroke-width:0.264583px;stroke-linecap:butt;stroke-linejoin:miter;stroke-opacity:1"
           d="m 2667.3939,-2080.9847 c -103.925,-0.073 -204.464,10.6943 -300.2374,35.1364 h -6e-4 c -139.0507,35.4884 -259.1582,98.0988 -352.4885,180.0804 -93.157,81.5186 -153.8744,171.1304 -185.452,251.7376 -0.01,0.023 -0.019,0.047 -0.028,0.07 -9.0716,22.7946 -16.4451,46.0888 -22.0281,69.8056 -21.1214,89.7253 -27.71,177.2946 13.5961,249.6953 20.7669,36.3998 59.7779,63.6182 104.5874,69.7653 3.2607,0.4473 6.5588,0.8104 9.8893,1.0929 h 34.2703 c 32.3381,-2.6518 66.594,-12.7679 100.3052,-31.5283 l -43.696,-81.6637 c -33.8449,19.1845 -65.7655,23.4306 -88.1825,20.3553 -76.7782,-17.7002 -49.7792,-165.8665 -40.629,-206.498 4.8789,-20.7257 12.0052,-41.6965 21.0282,-62.6127 30.5698,-67.1842 79.3368,-144.9222 155.155,-214.4768 80.5864,-73.6104 186.9502,-133.0338 314.2796,-169.0424 h 5e-4 c 112.4111,-31.788 234.5315,-43.8685 364.7973,-40.3133 110.6907,2.8739 224.8162,16.9072 334.022,51.9477 v 5e-4 c 106.2388,34.0871 207.7705,88.5675 289.4837,166.0752 0.6799,0.6546 1.3556,1.3137 2.0324,1.9714 l 39.0446,-26.3121 c -2.8329,-2.9416 -5.691,-5.8617 -8.5824,-8.7534 -84.977,-86.1646 -191.563,-147.862 -303.3505,-187.8258 h -5e-4 c -114.834,-41.0543 -234.6407,-59.5629 -349.7528,-66.1582 -29.5998,-1.658 -58.9644,-2.5288 -88.0633,-2.5492 z" />
        <path
           inkscape:connector-curvature="0"
           id="path1147"
           d="m 972.22365,-1623.6519 c -73.09072,166.6865 -47.07389,351.3661 68.44535,503.0293 115.5193,151.66323 341.7524,247.96923 542.5368,288.26313 216.5632,43.4604 474.9197,19.0502 659.8228,-61.0675 184.903,-80.1177 314.9586,-179.58973 408.8438,-362.55523 l -35.2392,-15.9223 c -60.9671,137.0409 -200.1147,258.1256 -392.7188,328.98703 -192.6041,70.8614 -420.2885,85.9109 -629.4816,41.0605 -209.193,-44.8504 -381.8529,-145.89563 -480.0957,-274.87693 -98.2429,-128.9813 -117.44994,-272.5671 -57.3048,-409.7305 z"
           style="color:#000000;font-style:normal;font-variant:normal;font-weight:normal;font-stretch:normal;font-size:medium;line-height:normal;font-family:sans-serif;font-variant-ligatures:normal;font-variant-position:normal;font-variant-caps:normal;font-variant-numeric:normal;font-variant-alternates:normal;font-feature-settings:normal;text-indent:0;text-align:start;text-decoration:none;text-decoration-line:none;text-decoration-style:solid;text-decoration-color:#000000;letter-spacing:normal;word-spacing:normal;text-transform:none;writing-mode:lr-tb;direction:ltr;text-orientation:mixed;dominant-baseline:auto;baseline-shift:baseline;text-anchor:start;white-space:normal;shape-padding:0;clip-rule:nonzero;display:inline;overflow:visible;visibility:visible;isolation:auto;mix-blend-mode:normal;color-interpolation:sRGB;color-interpolation-filters:linearRGB;solid-color:#000000;solid-opacity:1;vector-effect:none;fill:#666666;fill-opacity:1;fill-rule:evenodd;stroke:none;stroke-width:92.6042;stroke-linecap:butt;stroke-linejoin:miter;stroke-miterlimit:4;stroke-dasharray:none;stroke-dashoffset:0;stroke-opacity:1;color-rendering:auto;image-rendering:auto;shape-rendering:auto;text-rendering:auto;enable-background:accumulate"
           sodipodi:nodetypes="ccazccssccc" />
        <ellipse
           style="mix-blend-mode:normal;fill:#666666;fill-opacity:1;fill-rule:evenodd;stroke:#666666;stroke-width:26.7523;stroke-miterlimit:4;stroke-dasharray:none;stroke-opacity:1"
           id="ellipse1149"
           cx="2671.9634"
           cy="-1373.8466"
           rx="138.53258"
           ry="137.06607" />
        <path
           inkscape:connector-curvature="0"
           d="m 1315.8002,-1223.6166 c 57.2143,-130.4805 53.6969,-271.986 -5.9397,-400.05 h -104.3212 c 69.846,116.3666 78.4043,242.1036 25.4521,362.8631 l 84.8057,37.1869 z"
           style="mix-blend-mode:normal;fill:#666666;fill-opacity:1;fill-rule:evenodd;stroke:none;stroke-width:96.6629;stroke-miterlimit:4;stroke-dasharray:none;stroke-opacity:1"
           id="path1155" />
        <path
           inkscape:connector-curvature="0"
           d="m 2280.7123,-1624.5932 c -110.8127,0 -202.1189,90.0365 -202.1189,200.4726 0,110.436 91.3062,200.471 202.1189,200.4709 93.7966,0 173.6159,-64.5085 195.9188,-151.2931 h -98.4188 c -17.9273,34.8195 -54.487,58.4977 -97.5,58.4977 -61.194,10e-5 -109.3262,-47.9257 -109.3262,-107.6755 0,-59.7499 48.1322,-107.6778 109.3262,-107.6777 42.1068,0 78.0291,22.6924 96.3419,56.3139 h 99.0011 c -23.0719,-85.6802 -102.3355,-149.1088 -195.343,-149.1088 z"
           style="color:#000000;font-style:normal;font-variant:normal;font-weight:normal;font-stretch:normal;font-size:medium;line-height:normal;font-family:sans-serif;font-variant-ligatures:normal;font-variant-position:normal;font-variant-caps:normal;font-variant-numeric:normal;font-variant-alternates:normal;font-feature-settings:normal;text-indent:0;text-align:start;text-decoration:none;text-decoration-line:none;text-decoration-style:solid;text-decoration-color:#000000;letter-spacing:normal;word-spacing:normal;text-transform:none;writing-mode:lr-tb;direction:ltr;text-orientation:mixed;dominant-baseline:auto;baseline-shift:baseline;text-anchor:start;white-space:normal;shape-padding:0;clip-rule:nonzero;display:inline;overflow:visible;visibility:visible;isolation:auto;mix-blend-mode:normal;color-interpolation:sRGB;color-interpolation-filters:linearRGB;solid-color:#000000;solid-opacity:1;vector-effect:none;fill:#666666;fill-opacity:1;fill-rule:evenodd;stroke:none;stroke-width:92.7939;stroke-linecap:butt;stroke-linejoin:miter;stroke-miterlimit:4;stroke-dasharray:none;stroke-dashoffset:0;stroke-opacity:1;color-rendering:auto;image-rendering:auto;shape-rendering:auto;text-rendering:auto;enable-background:accumulate"
           id="path1157" />
        <path
           inkscape:connector-curvature="0"
           id="path1159"
           style="color:#000000;font-style:normal;font-variant:normal;font-weight:normal;font-stretch:normal;font-size:medium;line-height:normal;font-family:sans-serif;font-variant-ligatures:normal;font-variant-position:normal;font-variant-caps:normal;font-variant-numeric:normal;font-variant-alternates:normal;font-feature-settings:normal;text-indent:0;text-align:start;text-decoration:none;text-decoration-line:none;text-decoration-style:solid;text-decoration-color:#000000;letter-spacing:normal;word-spacing:normal;text-transform:none;writing-mode:lr-tb;direction:ltr;text-orientation:mixed;dominant-baseline:auto;baseline-shift:baseline;text-anchor:start;white-space:normal;shape-padding:0;clip-rule:nonzero;display:inline;overflow:visible;visibility:visible;isolation:auto;mix-blend-mode:normal;color-interpolation:sRGB;color-interpolation-filters:linearRGB;solid-color:#000000;solid-opacity:1;vector-effect:none;fill:#666666;fill-opacity:1;fill-rule:evenodd;stroke:none;stroke-width:74.3723;stroke-linecap:butt;stroke-linejoin:miter;stroke-miterlimit:4;stroke-dasharray:none;stroke-dashoffset:0;stroke-opacity:1;color-rendering:auto;image-rendering:auto;shape-rendering:auto;text-rendering:auto;enable-background:accumulate"
           d="m 1564.5783,-1524.3313 c -85.0236,0 -156.6034,66.7448 -156.6034,150.5096 0,83.7648 71.5798,150.5118 156.6034,150.5118 61.9894,0 116.8281,-35.4822 141.9934,-87.1699 h -95.9853 c -12.9654,8.058 -28.6985,12.7971 -46.0081,12.7971 -37.5065,0 -67.6296,-22.2301 -78.1777,-52.3254 h 38.8313 15.8047 v -0.1592 h 178.2046 c 1.273,-7.6982 1.9384,-15.597 1.9384,-23.6544 0,-83.7648 -71.5776,-150.5096 -156.6013,-150.5096 z m 0,74.3711 c 37.5072,0 67.6301,22.2309 78.1777,52.3271 h -156.3559 c 10.5476,-30.0962 40.671,-52.3271 78.1782,-52.3271 z" />
        <path
           inkscape:connector-curvature="0"
           d="m 2916.7373,-1623.6511 c -2.8143,6.4182 -5.4789,12.8652 -8.0017,19.3368 l -0.2429,0.5834 0.01,0.014 c -48.3655,124.5522 -42.8049,258.3908 13.9913,380.1159 h 104.6215 c -55.2469,-92.4819 -72.1278,-190.2953 -50.661,-286.7287 l 98.5125,135.387 h 97.5846 l 98.2235,-134.9049 c 21.3081,96.277 4.397,193.9184 -50.7535,286.2466 h 104.6164 c 56.7231,-121.5786 62.3348,-255.2402 14.1537,-379.6631 l 0.014,-0.019 -0.4451,-1.0894 c -1.9125,-4.9045 -3.9086,-9.7945 -5.9888,-14.6689 l -1.8819,-4.6095 h -81.5869 l -125.1374,171.8706 -125.0597,-171.8706 h -81.9257 l -0.01,0.013 -0.031,-0.013 z"
           style="color:#000000;font-style:normal;font-variant:normal;font-weight:normal;font-stretch:normal;font-size:medium;line-height:normal;font-family:sans-serif;font-variant-ligatures:normal;font-variant-position:normal;font-variant-caps:normal;font-variant-numeric:normal;font-variant-alternates:normal;font-feature-settings:normal;text-indent:0;text-align:start;text-decoration:none;text-decoration-line:none;text-decoration-style:solid;text-decoration-color:#000000;letter-spacing:normal;word-spacing:normal;text-transform:none;writing-mode:lr-tb;direction:ltr;text-orientation:mixed;dominant-baseline:auto;baseline-shift:baseline;text-anchor:start;white-space:normal;shape-padding:0;clip-rule:nonzero;display:inline;overflow:visible;visibility:visible;isolation:auto;mix-blend-mode:normal;color-interpolation:sRGB;color-interpolation-filters:linearRGB;solid-color:#000000;solid-opacity:1;vector-effect:none;fill:#666666;fill-opacity:1;fill-rule:evenodd;stroke:none;stroke-width:92.6042;stroke-linecap:butt;stroke-linejoin:miter;stroke-miterlimit:4;stroke-dasharray:none;stroke-dashoffset:0;stroke-opacity:1;color-rendering:auto;image-rendering:auto;shape-rendering:auto;text-rendering:auto;enable-background:accumulate"
           id="path1161" />
        <g
           style="mix-blend-mode:normal;fill:#666666;fill-opacity:1"
           id="g1167"
           transform="translate(951.05503,-1223.6011)">
          <path
             inkscape:connector-curvature="0"
             id="path1163"
             d="M 57.246272,-422.05843 328.52543,22.034844"
             style="color:#000000;font-style:normal;font-variant:normal;font-weight:normal;font-stretch:normal;font-size:medium;line-height:normal;font-family:sans-serif;font-variant-ligatures:normal;font-variant-position:normal;font-variant-caps:normal;font-variant-numeric:normal;font-variant-alternates:normal;font-feature-settings:normal;text-indent:0;text-align:start;text-decoration:none;text-decoration-line:none;text-decoration-style:solid;text-decoration-color:#000000;letter-spacing:normal;word-spacing:normal;text-transform:none;writing-mode:lr-tb;direction:ltr;text-orientation:mixed;dominant-baseline:auto;baseline-shift:baseline;text-anchor:start;white-space:normal;shape-padding:0;clip-rule:nonzero;display:inline;overflow:visible;visibility:visible;isolation:auto;mix-blend-mode:normal;color-interpolation:sRGB;color-interpolation-filters:linearRGB;solid-color:#000000;solid-opacity:1;vector-effect:none;fill:#666666;fill-opacity:1;fill-rule:nonzero;stroke:none;stroke-width:84.6667;stroke-linecap:butt;stroke-linejoin:miter;stroke-miterlimit:4;stroke-dasharray:none;stroke-dashoffset:0;stroke-opacity:1;color-rendering:auto;image-rendering:auto;shape-rendering:auto;text-rendering:auto;enable-background:accumulate" />
          <path
             inkscape:connector-curvature="0"
             transform="scale(0.26458333)"
             d="m 80.191406,-1512 -0.371094,0.2266 L 1003.3027,0 h 374.7051 l 0.2051,-0.125 L 454.66992,-1512 Z"
             style="color:#000000;font-style:normal;font-variant:normal;font-weight:normal;font-stretch:normal;font-size:medium;line-height:normal;font-family:sans-serif;font-variant-ligatures:normal;font-variant-position:normal;font-variant-caps:normal;font-variant-numeric:normal;font-variant-alternates:normal;font-feature-settings:normal;text-indent:0;text-align:start;text-decoration:none;text-decoration-line:none;text-decoration-style:solid;text-decoration-color:#000000;letter-spacing:normal;word-spacing:normal;text-transform:none;writing-mode:lr-tb;direction:ltr;text-orientation:mixed;dominant-baseline:auto;baseline-shift:baseline;text-anchor:start;white-space:normal;shape-padding:0;clip-rule:nonzero;display:inline;overflow:visible;visibility:visible;isolation:auto;mix-blend-mode:normal;color-interpolation:sRGB;color-interpolation-filters:linearRGB;solid-color:#000000;solid-opacity:1;vector-effect:none;fill:#666666;fill-opacity:1;fill-rule:nonzero;stroke:none;stroke-width:320;stroke-linecap:butt;stroke-linejoin:miter;stroke-miterlimit:4;stroke-dasharray:none;stroke-dashoffset:0;stroke-opacity:1;color-rendering:auto;image-rendering:auto;shape-rendering:auto;text-rendering:auto;enable-background:accumulate"
             id="path1165" />
        </g>
        <path
           inkscape:connector-curvature="0"
           id="path1169"
           style="mix-blend-mode:normal;fill:#666666;fill-opacity:1;fill-rule:evenodd;stroke:none;stroke-width:58.7005;stroke-miterlimit:4;stroke-dasharray:none;stroke-opacity:1"
           d="m 1752.0726,-1524.4321 v 76.7292 h 258.3713 v -76.7292 z" />
        <path
           inkscape:connector-curvature="0"
           id="path1177"
           style="color:#000000;font-style:normal;font-variant:normal;font-weight:normal;font-stretch:normal;font-size:medium;line-height:normal;font-family:sans-serif;font-variant-ligatures:normal;font-variant-position:normal;font-variant-caps:normal;font-variant-numeric:normal;font-variant-alternates:normal;font-feature-settings:normal;text-indent:0;text-align:start;text-decoration:none;text-decoration-line:none;text-decoration-style:solid;text-decoration-color:#000000;letter-spacing:normal;word-spacing:normal;text-transform:none;writing-mode:lr-tb;direction:ltr;text-orientation:mixed;dominant-baseline:auto;baseline-shift:baseline;text-anchor:start;white-space:normal;shape-padding:0;clip-rule:nonzero;display:inline;overflow:visible;visibility:visible;isolation:auto;mix-blend-mode:normal;color-interpolation:sRGB;color-interpolation-filters:linearRGB;solid-color:#000000;solid-opacity:1;vector-effect:none;fill:#666666;fill-opacity:1;fill-rule:evenodd;stroke:none;stroke-width:92.6042;stroke-linecap:butt;stroke-linejoin:miter;stroke-miterlimit:4;stroke-dasharray:none;stroke-dashoffset:0;stroke-opacity:1;color-rendering:auto;image-rendering:auto;shape-rendering:auto;text-rendering:auto;enable-background:accumulate"
           d="m 3476.0683,-1524.4324 c 9.1025,33.17 13.716,66.9105 13.716,100.8078 0,68.733 -18.9579,136.8208 -55.8829,200.8121 h 103.7554 c 29.1916,-63.8671 44.7332,-131.5476 44.7332,-200.8121 0,-34.0744 -3.7641,-67.7652 -11.0609,-100.8078 z" />
      </g>
      <ellipse
         ry="126.72735"
         rx="128.08324"
         cy="-150.24471"
         cx="1699.7399"
         id="ellipse2610"
         style="opacity:1;fill:none;fill-opacity:1;fill-rule:evenodd;stroke:#666666;stroke-width:0;stroke-miterlimit:4;stroke-dasharray:none;stroke-opacity:1" />
      <ellipse
         style="opacity:1;fill:none;fill-opacity:1;fill-rule:evenodd;stroke:#595959;stroke-width:28.8641;stroke-miterlimit:4;stroke-dasharray:none;stroke-opacity:1"
         id="ellipse1273"
         cx="2501.2017"
         cy="-495.07434"
         rx="109.17093"
         ry="109.17094" />
      <path
         inkscape:connector-curvature="0"
         id="path1088"
         style="fill:url(#linearGradient1105);fill-opacity:1;stroke:none;stroke-width:0.264583px;stroke-linecap:butt;stroke-linejoin:miter;stroke-opacity:1"
         d="m 1695.1703,-857.38281 c -103.9251,-0.0731 -204.464,10.69433 -300.2375,35.13638 h -5e-4 c -139.0507,35.48848 -259.1582,98.09884 -352.4886,180.08046 -93.15702,81.51858 -153.87439,171.13033 -185.45196,251.7376 -0.009,0.0234 -0.0187,0.0469 -0.0279,0.0703 -9.07161,22.79457 -16.44518,46.0888 -22.02812,69.80555 -21.1214,89.72534 -27.70992,177.29458 13.59606,249.695347 20.76691,36.399814 59.77792,63.6181326 104.58741,69.76525 3.2607,0.44730461 6.55884,0.810408 9.88933,1.09295653 h 34.27026 C 1029.6169,-2.6507551 1063.8728,-12.766879 1097.584,-31.527273 l -43.696,-81.663747 c -33.8449,19.184489 -65.76551,23.430599 -88.18246,20.355344 -76.77822,-17.700224 -49.77927,-165.866554 -40.62905,-206.497974 4.87889,-20.72579 12.0052,-41.69651 21.02816,-62.61272 30.5698,-67.18424 79.33685,-144.92221 155.15505,-214.47683 80.5864,-73.61042 186.9502,-133.0338 314.2796,-169.0424 h 5e-4 c 112.4111,-31.78799 234.5315,-43.86849 364.7973,-40.31329 110.6908,2.87391 224.8163,16.90722 334.022,51.94771 v 5.3e-4 c 106.2388,34.08701 207.7705,88.5675 289.4837,166.07512 0.6799,0.65461 1.3556,1.31376 2.0324,1.97146 l 39.0446,-26.31209 c -2.8329,-2.94159 -5.691,-5.86169 -8.5824,-8.75345 -84.977,-86.16463 -191.563,-147.86195 -303.3505,-187.82575 h -5e-4 c -114.8339,-41.05429 -234.6407,-59.56295 -349.7528,-66.15824 -29.5997,-1.65804 -58.9643,-2.52876 -88.0633,-2.54921 z" />
      <ellipse
         ry="123.97695"
         rx="125.30341"
         cy="-138.8685"
         cx="1728.2672"
         id="ellipse1271"
         style="opacity:1;mix-blend-mode:normal;fill:#333333;fill-opacity:1;fill-rule:evenodd;stroke:none;stroke-width:24.1976;stroke-miterlimit:4;stroke-dasharray:none;stroke-opacity:1;filter:url(#filter2664)"
         transform="matrix(0.805407,0,0,0.805407,1115.1377,-377.41537)" />
      <path
         inkscape:connector-curvature="0"
         id="path1633"
         d="m 0,-400.04998 c -73.09072,166.68649 -47.07389,351.366102 68.44533,503.0293 115.51933,151.66319 341.75241,247.96914 542.53681,288.26306 216.56311,43.46043 474.91976,19.05019 659.82276,-61.06752 184.903,-80.1177 314.9586,-179.5897 408.8438,-362.555138 l -43.251,-20.357417 C 1575.4306,84.303175 1442.2918,206.67547 1249.6877,277.53689 1057.0836,348.39832 831.40215,366.59534 622.20912,321.74494 413.01612,276.89454 240.3562,175.84926 142.11341,46.867992 43.87051,-82.113278 24.66351,-225.69907 84.80864,-362.86248 Z"
         style="color:#000000;font-style:normal;font-variant:normal;font-weight:normal;font-stretch:normal;font-size:medium;line-height:normal;font-family:sans-serif;font-variant-ligatures:normal;font-variant-position:normal;font-variant-caps:normal;font-variant-numeric:normal;font-variant-alternates:normal;font-feature-settings:normal;text-indent:0;text-align:start;text-decoration:none;text-decoration-line:none;text-decoration-style:solid;text-decoration-color:#000000;letter-spacing:normal;word-spacing:normal;text-transform:none;writing-mode:lr-tb;direction:ltr;text-orientation:mixed;dominant-baseline:auto;baseline-shift:baseline;text-anchor:start;white-space:normal;shape-padding:0;clip-rule:nonzero;display:inline;overflow:visible;visibility:visible;opacity:1;isolation:auto;mix-blend-mode:normal;color-interpolation:sRGB;color-interpolation-filters:linearRGB;solid-color:#000000;solid-opacity:1;vector-effect:none;fill:url(#radialGradient2096);fill-opacity:1;fill-rule:evenodd;stroke:none;stroke-width:92.6042;stroke-linecap:butt;stroke-linejoin:miter;stroke-miterlimit:4;stroke-dasharray:none;stroke-dashoffset:0;stroke-opacity:1;color-rendering:auto;image-rendering:auto;shape-rendering:auto;text-rendering:auto;enable-background:accumulate"
         sodipodi:nodetypes="ccazccssccc" />
      <ellipse
         style="opacity:1;fill:none;fill-opacity:1;fill-rule:evenodd;stroke:#8c8c8c;stroke-width:26.7523;stroke-miterlimit:4;stroke-dasharray:none;stroke-opacity:1"
         id="path1681-1"
         cx="1699.7399"
         cy="-150.24471"
         rx="138.53258"
         ry="137.06607" />
      <ellipse
         transform="matrix(1.0061956,0,0,1.0061956,-33.52524,-3.5864678)"
         style="opacity:1;mix-blend-mode:normal;fill:#595959;fill-opacity:1;fill-rule:evenodd;stroke:none;stroke-width:24.1976;stroke-miterlimit:4;stroke-dasharray:none;stroke-opacity:1;filter:url(#filter2664)"
         id="ellipse2624"
         cx="1728.2672"
         cy="-138.8685"
         rx="125.30341"
         ry="123.97695" />
      <path
         inkscape:connector-curvature="0"
         d="M 343.57657,-0.0147078 C 400.79089,-130.49518 397.27346,-272.00074 337.63688,-400.06469 H 233.3156 c 69.84601,116.36657 78.4043,242.10362 25.45219,362.863112 l 84.80568,37.1868702 z"
         style="opacity:1;fill:#8c8c8c;fill-opacity:1;fill-rule:evenodd;stroke:none;stroke-width:96.6629;stroke-miterlimit:4;stroke-dasharray:none;stroke-opacity:1"
         id="rect1641" />
      <path
         inkscape:connector-curvature="0"
         d="m 1308.4886,-400.99125 c -110.8127,-5e-5 -202.1189,90.03647 -202.1189,200.47251 0,110.436022 91.3062,200.4710222 202.1189,200.4709622 93.7966,-10e-6 173.6159,-64.5085102 195.9188,-151.2930922 h -98.4188 c -17.9273,34.81947 -54.487,58.497722 -97.5,58.497722 -61.194,3e-5 -109.3262,-47.925752 -109.3262,-107.675592 0,-59.74984 48.1322,-107.67771 109.3262,-107.67766 42.1068,0 78.0291,22.69236 96.3419,56.31387 h 99.0012 c -23.0719,-85.68016 -102.3356,-149.10872 -195.3431,-149.10872 z"
         style="color:#000000;font-style:normal;font-variant:normal;font-weight:normal;font-stretch:normal;font-size:medium;line-height:normal;font-family:sans-serif;font-variant-ligatures:normal;font-variant-position:normal;font-variant-caps:normal;font-variant-numeric:normal;font-variant-alternates:normal;font-feature-settings:normal;text-indent:0;text-align:start;text-decoration:none;text-decoration-line:none;text-decoration-style:solid;text-decoration-color:#000000;letter-spacing:normal;word-spacing:normal;text-transform:none;writing-mode:lr-tb;direction:ltr;text-orientation:mixed;dominant-baseline:auto;baseline-shift:baseline;text-anchor:start;white-space:normal;shape-padding:0;clip-rule:nonzero;display:inline;overflow:visible;visibility:visible;opacity:1;isolation:auto;mix-blend-mode:normal;color-interpolation:sRGB;color-interpolation-filters:linearRGB;solid-color:#000000;solid-opacity:1;vector-effect:none;fill:#8c8c8c;fill-opacity:1;fill-rule:evenodd;stroke:none;stroke-width:92.7939;stroke-linecap:butt;stroke-linejoin:miter;stroke-miterlimit:4;stroke-dasharray:none;stroke-dashoffset:0;stroke-opacity:1;color-rendering:auto;image-rendering:auto;shape-rendering:auto;text-rendering:auto;enable-background:accumulate"
         id="path1704" />
      <path
         inkscape:connector-curvature="0"
         id="path1771"
         style="color:#000000;font-style:normal;font-variant:normal;font-weight:normal;font-stretch:normal;font-size:medium;line-height:normal;font-family:sans-serif;font-variant-ligatures:normal;font-variant-position:normal;font-variant-caps:normal;font-variant-numeric:normal;font-variant-alternates:normal;font-feature-settings:normal;text-indent:0;text-align:start;text-decoration:none;text-decoration-line:none;text-decoration-style:solid;text-decoration-color:#000000;letter-spacing:normal;word-spacing:normal;text-transform:none;writing-mode:lr-tb;direction:ltr;text-orientation:mixed;dominant-baseline:auto;baseline-shift:baseline;text-anchor:start;white-space:normal;shape-padding:0;clip-rule:nonzero;display:inline;overflow:visible;visibility:visible;opacity:1;isolation:auto;mix-blend-mode:normal;color-interpolation:sRGB;color-interpolation-filters:linearRGB;solid-color:#000000;solid-opacity:1;vector-effect:none;fill:#8c8c8c;fill-opacity:1;fill-rule:evenodd;stroke:none;stroke-width:74.3723;stroke-linecap:butt;stroke-linejoin:miter;stroke-miterlimit:4;stroke-dasharray:none;stroke-dashoffset:0;stroke-opacity:1;color-rendering:auto;image-rendering:auto;shape-rendering:auto;text-rendering:auto;enable-background:accumulate"
         d="m 592.35464,-300.72943 c -85.02364,0 -156.60336,66.74488 -156.60336,150.50966 0,83.764761 71.57972,150.51174183 156.60336,150.51174183 61.98933,0 116.82806,-35.48218983 141.9934,-87.16987183 h -95.98535 c -12.9654,8.058044 -28.69851,12.797153 -46.00805,12.797153 -37.50649,0 -67.62957,-22.230157 -78.17766,-52.325493 h 38.83123 15.80473 v -0.15916 h 178.2046 c 1.27291,-7.69818 1.93839,-15.597 1.93839,-23.65437 0,-83.76478 -71.57762,-150.50966 -156.60129,-150.50966 z m 0,74.37116 c 37.50717,0 67.63009,22.23088 78.17765,52.32703 H 514.17648 c 10.54754,-30.09616 40.67101,-52.32703 78.17816,-52.32703 z" />
      <path
         inkscape:connector-curvature="0"
         d="m 1944.5136,-400.04919 c -2.8143,6.41823 -5.4789,12.8652 -8.0016,19.3368 l -0.2429,0.58344 0.01,0.0139 c -48.3655,124.55217 -42.805,258.39079 13.9912,380.11585220404 h 104.6216 C 1999.6449,-92.481138 1982.7641,-190.29453 2004.2308,-286.72794 l 98.5125,135.38708 h 97.5847 l 98.2235,-134.90496 c 21.3081,96.27701 4.3969,193.918392 -50.7535,286.24662220404 h 104.6163 C 2409.1375,-121.57779 2414.7491,-255.23938 2366.568,-379.66234 l 0.014,-0.0191 -0.445,-1.08934 c -1.9126,-4.90456 -3.9086,-9.79456 -5.9888,-14.66887 l -1.882,-4.60954 h -81.5868 l -125.1375,171.87064 -125.0597,-171.87064 h -81.9257 l -0.01,0.0134 -0.031,-0.0134 z"
         style="color:#000000;font-style:normal;font-variant:normal;font-weight:normal;font-stretch:normal;font-size:medium;line-height:normal;font-family:sans-serif;font-variant-ligatures:normal;font-variant-position:normal;font-variant-caps:normal;font-variant-numeric:normal;font-variant-alternates:normal;font-feature-settings:normal;text-indent:0;text-align:start;text-decoration:none;text-decoration-line:none;text-decoration-style:solid;text-decoration-color:#000000;letter-spacing:normal;word-spacing:normal;text-transform:none;writing-mode:lr-tb;direction:ltr;text-orientation:mixed;dominant-baseline:auto;baseline-shift:baseline;text-anchor:start;white-space:normal;shape-padding:0;clip-rule:nonzero;display:inline;overflow:visible;visibility:visible;opacity:1;isolation:auto;mix-blend-mode:normal;color-interpolation:sRGB;color-interpolation-filters:linearRGB;solid-color:#000000;solid-opacity:1;vector-effect:none;fill:#8c8c8c;fill-opacity:1;fill-rule:evenodd;stroke:none;stroke-width:92.6042;stroke-linecap:butt;stroke-linejoin:miter;stroke-miterlimit:4;stroke-dasharray:none;stroke-dashoffset:0;stroke-opacity:1;color-rendering:auto;image-rendering:auto;shape-rendering:auto;text-rendering:auto;enable-background:accumulate"
         id="path2003" />
      <g
         style="opacity:1;fill:#000000"
         id="g2038"
         transform="translate(-21.16862,8.0220404e-4)">
        <path
           inkscape:connector-curvature="0"
           id="path2040"
           d="M 57.246272,-422.05843 328.52543,22.034844"
           style="color:#000000;font-style:normal;font-variant:normal;font-weight:normal;font-stretch:normal;font-size:medium;line-height:normal;font-family:sans-serif;font-variant-ligatures:normal;font-variant-position:normal;font-variant-caps:normal;font-variant-numeric:normal;font-variant-alternates:normal;font-feature-settings:normal;text-indent:0;text-align:start;text-decoration:none;text-decoration-line:none;text-decoration-style:solid;text-decoration-color:#000000;letter-spacing:normal;word-spacing:normal;text-transform:none;writing-mode:lr-tb;direction:ltr;text-orientation:mixed;dominant-baseline:auto;baseline-shift:baseline;text-anchor:start;white-space:normal;shape-padding:0;clip-rule:nonzero;display:inline;overflow:visible;visibility:visible;isolation:auto;mix-blend-mode:normal;color-interpolation:sRGB;color-interpolation-filters:linearRGB;solid-color:#000000;solid-opacity:1;vector-effect:none;fill:#000000;fill-opacity:1;fill-rule:nonzero;stroke:none;stroke-width:84.6667;stroke-linecap:butt;stroke-linejoin:miter;stroke-miterlimit:4;stroke-dasharray:none;stroke-dashoffset:0;stroke-opacity:1;color-rendering:auto;image-rendering:auto;shape-rendering:auto;text-rendering:auto;enable-background:accumulate" />
        <path
           inkscape:connector-curvature="0"
           transform="scale(0.26458333)"
           d="m 80.191406,-1512 -0.371094,0.2266 L 1003.3027,0 h 374.7051 l 0.2051,-0.125 L 454.66992,-1512 Z"
           style="color:#000000;font-style:normal;font-variant:normal;font-weight:normal;font-stretch:normal;font-size:medium;line-height:normal;font-family:sans-serif;font-variant-ligatures:normal;font-variant-position:normal;font-variant-caps:normal;font-variant-numeric:normal;font-variant-alternates:normal;font-feature-settings:normal;text-indent:0;text-align:start;text-decoration:none;text-decoration-line:none;text-decoration-style:solid;text-decoration-color:#000000;letter-spacing:normal;word-spacing:normal;text-transform:none;writing-mode:lr-tb;direction:ltr;text-orientation:mixed;dominant-baseline:auto;baseline-shift:baseline;text-anchor:start;white-space:normal;shape-padding:0;clip-rule:nonzero;display:inline;overflow:visible;visibility:visible;isolation:auto;mix-blend-mode:normal;color-interpolation:sRGB;color-interpolation-filters:linearRGB;solid-color:#000000;solid-opacity:1;vector-effect:none;fill:url(#linearGradient2120);fill-opacity:1;fill-rule:nonzero;stroke:none;stroke-width:320;stroke-linecap:butt;stroke-linejoin:miter;stroke-miterlimit:4;stroke-dasharray:none;stroke-dashoffset:0;stroke-opacity:1;color-rendering:auto;image-rendering:auto;shape-rendering:auto;text-rendering:auto;enable-background:accumulate"
           id="path2042" />
      </g>
      <path
         inkscape:connector-curvature="0"
         id="rect2075"
         style="opacity:1;fill:#8c8c8c;fill-opacity:1;fill-rule:evenodd;stroke:none;stroke-width:221.86;stroke-miterlimit:4;stroke-dasharray:none;stroke-opacity:1"
         d="m 2947.459,-1136.9961 v 290.00001 h 976.5234 v -290.00001 z"
         transform="scale(0.26458333)" />
      <ellipse
         ry="95.43161"
         rx="95.431602"
         cy="-495.07434"
         cx="2501.2017"
         id="ellipse1555"
         style="opacity:1;fill:url(#radialGradient1557);fill-opacity:1;fill-rule:evenodd;stroke:none;stroke-width:25.2316;stroke-miterlimit:4;stroke-dasharray:none;stroke-opacity:1" />
      <path
         inkscape:connector-curvature="0"
         id="path1134"
         style="color:#000000;font-style:normal;font-variant:normal;font-weight:normal;font-stretch:normal;font-size:medium;line-height:normal;font-family:sans-serif;font-variant-ligatures:normal;font-variant-position:normal;font-variant-caps:normal;font-variant-numeric:normal;font-variant-alternates:normal;font-feature-settings:normal;text-indent:0;text-align:start;text-decoration:none;text-decoration-line:none;text-decoration-style:solid;text-decoration-color:#000000;letter-spacing:normal;word-spacing:normal;text-transform:none;writing-mode:lr-tb;direction:ltr;text-orientation:mixed;dominant-baseline:auto;baseline-shift:baseline;text-anchor:start;white-space:normal;shape-padding:0;clip-rule:nonzero;display:inline;overflow:visible;visibility:visible;opacity:1;isolation:auto;mix-blend-mode:normal;color-interpolation:sRGB;color-interpolation-filters:linearRGB;solid-color:#000000;solid-opacity:1;vector-effect:none;fill:#595959;fill-opacity:1;fill-rule:evenodd;stroke:none;stroke-width:92.6042;stroke-linecap:butt;stroke-linejoin:miter;stroke-miterlimit:4;stroke-dasharray:none;stroke-dashoffset:0;stroke-opacity:1;color-rendering:auto;image-rendering:auto;shape-rendering:auto;text-rendering:auto;enable-background:accumulate"
         d="m 2503.8448,-300.83045 c 9.1025,33.16991 13.7159,66.91041 13.7159,100.8078 0,68.73297 -18.9578,136.820722 -55.8829,200.81202857 h 103.7554 c 29.1917,-63.86706057 44.7332,-131.54752857 44.7332,-200.81202857 0,-34.07447 -3.7641,-67.76523 -11.0608,-100.8078 z" />
      <ellipse
         ry="123.97695"
         rx="125.30341"
         cy="-150.24471"
         cx="1699.7399"
         id="ellipse2620"
         style="opacity:1;fill:url(#radialGradient2622);fill-opacity:1;fill-rule:evenodd;stroke:none;stroke-width:24.1976;stroke-miterlimit:4;stroke-dasharray:none;stroke-opacity:1" />
      <g
         aria-label="Copyright: Stefanie Peschel"
         id="text260"
         style="font-style:normal;font-weight:normal;font-size:50.8px;line-height:1.25;font-family:sans-serif;fill:#8fa429;fill-opacity:1;stroke:none;stroke-width:0.264583"
         transform="matrix(0.00594243,0,0,0.00594243,1692.1396,-154.85788)">
        <path
           inkscape:connector-curvature="0"
           d="m 945.77441,766.82385 q -0.81855,-1.76113 -2.08359,-3.15019 -1.26504,-1.41387 -2.85254,-2.40606 -1.5875,-0.99218 -3.44785,-1.51308 -1.83555,-0.5209 -3.79512,-0.5209 -2.82773,0 -5.33301,1.0666 -2.48046,1.0418 -4.34082,2.90215 -1.83554,1.86035 -2.92695,4.39043 -1.0666,2.50527 -1.0666,5.40742 0,1.93477 0.47129,3.6959 0.49609,1.76113 1.38906,3.29902 0.89297,1.51309 2.1332,2.75332 1.26504,1.24024 2.77813,2.13321 1.51309,0.86816 3.24941,1.36425 1.76114,0.47129 3.64629,0.47129 1.95957,0 3.79512,-0.5209 1.86035,-0.52089 3.42305,-1.48828 1.5875,-0.96738 2.85254,-2.35644 1.26503,-1.41387 2.08359,-3.175 h 4.56406 q -0.91777,2.70371 -2.6541,4.83691 -1.71152,2.1084 -3.96875,3.57188 -2.23242,1.43867 -4.83691,2.20761 -2.6045,0.76895 -5.2586,0.76895 -2.50527,0 -4.81211,-0.62012 -2.30683,-0.62012 -4.31601,-1.76113 -1.98438,-1.14102 -3.64629,-2.72852 -1.63711,-1.6123 -2.82774,-3.54707 -1.16582,-1.95957 -1.81074,-4.21679 -0.64492,-2.25723 -0.64492,-4.68809 0,-2.45566 0.64492,-4.71289 0.64492,-2.25723 1.81074,-4.2168 1.19063,-1.95957 2.82774,-3.54707 1.66191,-1.6123 3.64629,-2.75332 2.00918,-1.14101 4.31601,-1.76113 2.30684,-0.62012 4.81211,-0.62012 2.6293,0 5.23379,0.76895 2.60449,0.74414 4.83692,2.20761 2.25722,1.43868 3.99355,3.57188 1.73633,2.1332 2.6541,4.88652 z"
           style="font-style:normal;font-variant:normal;font-weight:normal;font-stretch:normal;font-size:50.8px;font-family:'Codec Cold Trial';-inkscape-font-specification:'Codec Cold Trial';fill:#8fa429;fill-opacity:1;stroke-width:0.264583"
           id="path262" />
        <path
           inkscape:connector-curvature="0"
           d="m 973.45645,768.41135 h -2.77813 q -1.93476,0 -3.54707,0.57051 -1.5875,0.57051 -2.72852,1.71152 -1.11621,1.14102 -1.76113,2.82774 -0.62011,1.66191 -0.62011,3.89433 v 12.47676 h -4.29122 v -25.30078 h 3.54707 l 0.44649,3.91914 q 0.64492,-0.84336 1.51308,-1.56269 0.89297,-0.71934 1.98438,-1.24024 1.11621,-0.5209 2.43086,-0.81855 1.31465,-0.29766 2.82773,-0.29766 h 2.97657 z"
           style="font-style:normal;font-variant:normal;font-weight:normal;font-stretch:normal;font-size:50.8px;font-family:'Codec Cold Trial';-inkscape-font-specification:'Codec Cold Trial';fill:#8fa429;fill-opacity:1;stroke-width:0.264583"
           id="path264" />
        <path
           inkscape:connector-curvature="0"
           d="m 977.4252,777.24182 q 0,-2.77812 1.04179,-5.20898 1.0418,-2.45567 2.87735,-4.26641 1.86035,-1.81074 4.39043,-2.85254 2.53007,-1.04179 5.48183,-1.04179 2.95176,0 5.48184,1.04179 2.53008,1.0418 4.36566,2.85254 1.8603,1.81074 2.9021,4.26641 1.0666,2.43086 1.0666,5.20898 v 0.57051 h -0.025 l -0.074,0.71934 h -23.29161 q 0.22325,1.93476 1.11621,3.49746 0.89297,1.56269 2.18282,2.6789 1.31464,1.11621 2.95175,1.71153 1.63711,0.59531 3.34864,0.59531 1.33945,0 2.53007,-0.32246 1.21543,-0.32246 2.23243,-0.91778 1.04179,-0.59531 1.86035,-1.41386 0.81855,-0.84336 1.38906,-1.86035 h 4.66328 q -0.6945,1.68671 -1.8852,3.175 -1.1906,1.46347 -2.82769,2.55488 -1.63711,1.0914 -3.64629,1.73633 -2.00918,0.64492 -4.34082,0.64492 -2.95176,0 -5.48183,-1.0418 -2.53008,-1.0666 -4.39043,-2.87734 -1.83555,-1.81074 -2.87735,-4.2416 -1.04179,-2.43086 -1.04179,-5.20899 z m 13.81621,-9.84746 q -1.86035,0 -3.47266,0.62012 -1.6123,0.59531 -2.85254,1.66191 -1.24023,1.0666 -2.08359,2.53008 -0.81856,1.46348 -1.11621,3.1998 h 18.87639 q -0.2977,-1.71152 -1.11624,-3.175 -0.81855,-1.48828 -2.03398,-2.55488 -1.21543,-1.0666 -2.80293,-1.66191 -1.5875,-0.62012 -3.39824,-0.62012 z"
           style="font-style:normal;font-variant:normal;font-weight:normal;font-stretch:normal;font-size:50.8px;font-family:'Codec Cold Trial';-inkscape-font-specification:'Codec Cold Trial';fill:#8fa429;fill-opacity:1;stroke-width:0.264583"
           id="path266" />
        <path
           inkscape:connector-curvature="0"
           d="m 1010.3162,777.24182 q 0,-2.77812 0.9922,-5.20898 1.017,-2.45567 2.8029,-4.26641 1.8108,-1.81074 4.2912,-2.85254 2.4805,-1.04179 5.4323,-1.04179 1.6371,0 3.1254,0.37207 1.4882,0.34726 2.7533,0.99218 1.2898,0.62012 2.3316,1.46348 1.0418,0.84336 1.8356,1.81074 l 0.2976,-3.91914 h 3.7455 v 25.30078 h -3.7455 l -0.3224,-3.91914 q -0.7938,0.96738 -1.8604,1.81074 -1.0418,0.84336 -2.3316,1.48828 -1.2651,0.62012 -2.7285,0.96739 -1.4635,0.37207 -3.1006,0.37207 -2.9518,0 -5.4323,-1.0418 -2.4804,-1.0418 -4.2912,-2.85254 -1.7859,-1.81074 -2.8029,-4.2416 -0.9922,-2.43086 -0.9922,-5.23379 z m 4.316,0 q 0,2.0836 0.7442,3.84473 0.7441,1.76113 2.034,3.05097 1.3146,1.26504 3.0509,1.98438 1.7612,0.71934 3.7455,0.71934 1.9844,0 3.7207,-0.71934 1.7612,-0.71934 3.051,-1.98438 1.3147,-1.28984 2.0588,-3.05097 0.7689,-1.76113 0.7689,-3.84473 0,-2.05879 -0.7689,-3.81992 -0.7441,-1.76113 -2.0588,-3.02617 -1.2898,-1.28985 -3.051,-2.00918 -1.7363,-0.74414 -3.7207,-0.74414 -2.0091,0 -3.7703,0.71933 -1.7363,0.71934 -3.0261,2.00918 -1.2899,1.28985 -2.034,3.05098 -0.7442,1.73633 -0.7442,3.81992 z"
           style="font-style:normal;font-variant:normal;font-weight:normal;font-stretch:normal;font-size:50.8px;font-family:'Codec Cold Trial';-inkscape-font-specification:'Codec Cold Trial';fill:#8fa429;fill-opacity:1;stroke-width:0.264583"
           id="path268" />
        <path
           inkscape:connector-curvature="0"
           d="m 1049.1852,757.19963 h 3.2246 v 7.3918 h 8.88 v 3.74551 h -8.88 v 11.95586 q 0,1.90996 0.4216,3.15019 0.4465,1.21543 1.1907,1.93477 0.7441,0.71933 1.7115,1.01699 0.9674,0.27285 2.0092,0.27285 h 4.44 l -0.025,3.62149 h -4.7873 q -1.9596,0 -3.6463,-0.47129 -1.6867,-0.47129 -2.9517,-1.61231 -1.2403,-1.14101 -1.9596,-3.05097 -0.6946,-1.93477 -0.6946,-4.83692 v -11.98066 h -4.4648 v -3.39824 l 4.3656,-0.74414 z"
           style="font-style:normal;font-variant:normal;font-weight:normal;font-stretch:normal;font-size:50.8px;font-family:'Codec Cold Trial';-inkscape-font-specification:'Codec Cold Trial';fill:#8fa429;fill-opacity:1;stroke-width:0.264583"
           id="path270" />
        <path
           inkscape:connector-curvature="0"
           d="m 1067.4166,777.24182 q 0,-2.77812 1.0418,-5.20898 1.0418,-2.45567 2.8773,-4.26641 1.8604,-1.81074 4.3905,-2.85254 2.53,-1.04179 5.4818,-1.04179 2.9518,0 5.4818,1.04179 2.5301,1.0418 4.3657,2.85254 1.8603,1.81074 2.9021,4.26641 1.0666,2.43086 1.0666,5.20898 v 0.57051 h -0.025 l -0.074,0.71934 h -23.2916 q 0.2232,1.93476 1.1162,3.49746 0.893,1.56269 2.1828,2.6789 1.3147,1.11621 2.9518,1.71153 1.6371,0.59531 3.3486,0.59531 1.3395,0 2.5301,-0.32246 1.2154,-0.32246 2.2324,-0.91778 1.0418,-0.59531 1.8604,-1.41386 0.8185,-0.84336 1.389,-1.86035 h 4.6633 q -0.6945,1.68671 -1.8851,3.175 -1.1907,1.46347 -2.8278,2.55488 -1.6371,1.0914 -3.6463,1.73633 -2.0092,0.64492 -4.3408,0.64492 -2.9518,0 -5.4818,-1.0418 -2.5301,-1.0666 -4.3905,-2.87734 -1.8355,-1.81074 -2.8773,-4.2416 -1.0418,-2.43086 -1.0418,-5.20899 z m 13.8162,-9.84746 q -1.8603,0 -3.4726,0.62012 -1.6123,0.59531 -2.8526,1.66191 -1.2402,1.0666 -2.0836,2.53008 -0.8185,1.46348 -1.1162,3.1998 h 18.8764 q -0.2977,-1.71152 -1.1162,-3.175 -0.8186,-1.48828 -2.034,-2.55488 -1.2154,-1.0666 -2.8029,-1.66191 -1.5875,-0.62012 -3.3983,-0.62012 z"
           style="font-style:normal;font-variant:normal;font-weight:normal;font-stretch:normal;font-size:50.8px;font-family:'Codec Cold Trial';-inkscape-font-specification:'Codec Cold Trial';fill:#8fa429;fill-opacity:1;stroke-width:0.264583"
           id="path272" />
        <path
           inkscape:connector-curvature="0"
           d="m 1100.3076,777.24182 q 0,-2.77812 0.9922,-5.20898 0.9922,-2.45567 2.7781,-4.26641 1.786,-1.81074 4.2416,-2.85254 2.4805,-1.04179 5.4323,-1.04179 1.5875,0 3.0261,0.34726 1.4387,0.32246 2.6789,0.91777 1.2403,0.59532 2.2821,1.41387 1.0418,0.81856 1.8603,1.78594 v -13.36973 h 4.316 v 34.925 h -3.7455 l -0.3224,-4.09277 q -0.7938,1.01699 -1.8604,1.90996 -1.0418,0.86816 -2.3316,1.51309 -1.2651,0.64492 -2.7285,1.01699 -1.4635,0.37207 -3.1006,0.37207 -2.9518,0 -5.4323,-1.0418 -2.4804,-1.0418 -4.2912,-2.85254 -1.7859,-1.81074 -2.8029,-4.2416 -0.9922,-2.43086 -0.9922,-5.23379 z m 4.2912,0 q 0,2.0836 0.7442,3.84473 0.7689,1.76113 2.0588,3.05097 1.3146,1.26504 3.0509,1.98438 1.7612,0.71934 3.7455,0.71934 1.9844,0 3.7207,-0.71934 1.7612,-0.71934 3.051,-1.98438 1.3147,-1.28984 2.0588,-3.05097 0.769,-1.76113 0.769,-3.84473 0,-2.05879 -0.769,-3.81992 -0.7441,-1.76113 -2.0588,-3.02617 -1.2898,-1.28985 -3.051,-2.00918 -1.7363,-0.74414 -3.7207,-0.74414 -2.0091,0 -3.7703,0.71933 -1.7363,0.71934 -3.0509,2.00918 -1.2899,1.28985 -2.034,3.05098 -0.7442,1.73633 -0.7442,3.81992 z"
           style="font-style:normal;font-variant:normal;font-weight:normal;font-stretch:normal;font-size:50.8px;font-family:'Codec Cold Trial';-inkscape-font-specification:'Codec Cold Trial';fill:#8fa429;fill-opacity:1;stroke-width:0.264583"
           id="path274" />
        <path
           inkscape:connector-curvature="0"
           d="m 1175.7883,777.24182 q 0,2.80293 -1.017,5.23379 -0.9922,2.43086 -2.803,4.2416 -1.8107,1.81074 -4.2912,2.85254 -2.4804,1.0418 -5.4322,1.0418 -1.6371,0 -3.1254,-0.37207 -1.4635,-0.34727 -2.7533,-0.96739 -1.265,-0.64492 -2.3316,-1.48828 -1.0418,-0.86816 -1.8356,-1.83554 l -0.2976,3.94394 h -3.7207 v -34.925 h 4.2912 v 13.36973 q 0.8185,-0.96738 1.8355,-1.78594 1.0418,-0.81855 2.282,-1.41387 1.2651,-0.59531 2.6789,-0.91777 1.4387,-0.34726 3.051,-0.34726 2.9518,0 5.4322,1.04179 2.4805,1.0418 4.2665,2.85254 1.7859,1.81074 2.7781,4.26641 0.9922,2.43086 0.9922,5.20898 z m -4.2912,0 q 0,-2.08359 -0.7442,-3.81992 -0.7441,-1.76113 -2.0588,-3.05098 -1.2898,-1.28984 -3.0509,-2.00918 -1.7364,-0.71933 -3.7456,-0.71933 -1.9843,0 -3.7455,0.74414 -1.7611,0.71933 -3.0757,2.00918 -1.2899,1.26504 -2.0588,3.02617 -0.7442,1.76113 -0.7442,3.81992 0,2.0836 0.7442,3.84473 0.7689,1.76113 2.0588,3.05097 1.3146,1.26504 3.0509,1.98438 1.7612,0.71934 3.7455,0.71934 1.9844,0 3.7455,-0.71934 1.7612,-0.71934 3.051,-1.98438 1.3147,-1.28984 2.0588,-3.05097 0.769,-1.76113 0.769,-3.84473 z"
           style="font-style:normal;font-variant:normal;font-weight:normal;font-stretch:normal;font-size:50.8px;font-family:'Codec Cold Trial';-inkscape-font-specification:'Codec Cold Trial';fill:#8fa429;fill-opacity:1;stroke-width:0.264583"
           id="path276" />
        <path
           inkscape:connector-curvature="0"
           d="m 1204.6113,764.59143 -14.9324,33.98242 h -4.6385 l 4.2416,-9.25215 -10.79,-24.73027 h 4.7377 l 8.1359,18.85156 0.1736,0.91778 8.4336,-19.76934 z"
           style="font-style:normal;font-variant:normal;font-weight:normal;font-stretch:normal;font-size:50.8px;font-family:'Codec Cold Trial';-inkscape-font-specification:'Codec Cold Trial';fill:#8fa429;fill-opacity:1;stroke-width:0.264583"
           id="path278" />
        <path
           inkscape:connector-curvature="0"
           d="m 1223.7109,780.09436 q 0,1.31465 0.6449,2.53008 0.6698,1.19062 1.8108,2.1084 1.1658,0.91777 2.7285,1.46347 1.5627,0.54571 3.3982,0.54571 4.6881,0 7.0198,-1.5627 2.3564,-1.5875 2.3564,-4.61367 0,-1.66191 -0.7441,-2.75332 -0.7194,-1.09141 -2.0092,-1.81074 -1.2898,-0.74414 -3.0262,-1.19063 -1.7363,-0.44648 -3.7703,-0.81855 -1.1658,-0.17364 -2.5053,-0.39688 -1.3146,-0.24804 -2.6293,-0.62011 -1.2898,-0.39688 -2.5052,-0.96739 -1.1907,-0.59531 -2.1084,-1.46347 -0.893,-0.89297 -1.4387,-2.1084 -0.5457,-1.24024 -0.5457,-2.92696 0,-2.05878 0.6697,-3.89433 0.6946,-1.83555 2.2076,-3.22461 1.5379,-1.38906 3.9688,-2.18281 2.4557,-0.81856 5.9531,-0.81856 2.7037,0 4.8369,0.71934 2.158,0.69453 3.6463,1.98437 1.5131,1.28985 2.3069,3.07578 0.7937,1.76114 0.7937,3.86954 h -4.4152 q 0,-1.28985 -0.5209,-2.33165 -0.5209,-1.0666 -1.4883,-1.81074 -0.9674,-0.76894 -2.3813,-1.19062 -1.389,-0.42168 -3.1502,-0.42168 -2.3316,0 -3.8943,0.5209 -1.5379,0.49609 -2.4557,1.33945 -0.9177,0.81855 -1.2898,1.88516 -0.3721,1.04179 -0.3721,2.10839 0,1.38907 0.6698,2.33164 0.6945,0.94258 1.9099,1.5627 1.2403,0.59531 2.9518,0.96738 1.7115,0.37207 3.7455,0.62012 2.158,0.37207 4.2912,0.96738 2.158,0.59532 3.8695,1.68672 1.7364,1.09141 2.803,2.85254 1.0666,1.73633 1.0666,4.44004 0,2.38125 -0.9674,4.2416 -0.9426,1.86035 -2.7533,3.1502 -1.786,1.28984 -4.3657,1.95957 -2.5797,0.69453 -5.8043,0.69453 -3.1254,0 -5.5314,-0.91778 -2.4061,-0.94257 -4.0432,-2.43085 -1.6371,-1.48829 -2.4804,-3.37344 -0.8434,-1.88516 -0.8434,-3.79512 z"
           style="font-style:normal;font-variant:normal;font-weight:normal;font-stretch:normal;font-size:50.8px;font-family:'Codec Cold Trial';-inkscape-font-specification:'Codec Cold Trial';fill:#8fa429;fill-opacity:1;stroke-width:0.264583"
           id="path280" />
        <path
           inkscape:connector-curvature="0"
           d="m 1255.1633,757.19963 h 3.2246 v 7.3918 h 8.8801 v 3.74551 h -8.8801 v 11.95586 q 0,1.90996 0.4217,3.15019 0.4464,1.21543 1.1906,1.93477 0.7441,0.71933 1.7115,1.01699 0.9674,0.27285 2.0092,0.27285 h 4.44 l -0.025,3.62149 h -4.7873 q -1.9596,0 -3.6463,-0.47129 -1.6867,-0.47129 -2.9517,-1.61231 -1.2403,-1.14101 -1.9596,-3.05097 -0.6945,-1.93477 -0.6945,-4.83692 v -11.98066 h -4.4649 v -3.39824 l 4.3656,-0.74414 z"
           style="font-style:normal;font-variant:normal;font-weight:normal;font-stretch:normal;font-size:50.8px;font-family:'Codec Cold Trial';-inkscape-font-specification:'Codec Cold Trial';fill:#8fa429;fill-opacity:1;stroke-width:0.264583"
           id="path282" />
        <path
           inkscape:connector-curvature="0"
           d="m 1273.3947,777.24182 q 0,-2.77812 1.0418,-5.20898 1.0418,-2.45567 2.8774,-4.26641 1.8603,-1.81074 4.3904,-2.85254 2.5301,-1.04179 5.4818,-1.04179 2.9518,0 5.4819,1.04179 2.53,1.0418 4.3656,2.85254 1.8603,1.81074 2.9021,4.26641 1.0666,2.43086 1.0666,5.20898 v 0.57051 h -0.025 l -0.074,0.71934 h -23.2916 q 0.2233,1.93476 1.1162,3.49746 0.893,1.56269 2.1828,2.6789 1.3147,1.11621 2.9518,1.71153 1.6371,0.59531 3.3486,0.59531 1.3395,0 2.5301,-0.32246 1.2154,-0.32246 2.2324,-0.91778 1.0418,-0.59531 1.8604,-1.41386 0.8185,-0.84336 1.389,-1.86035 h 4.6633 q -0.6945,1.68671 -1.8851,3.175 -1.1907,1.46347 -2.8278,2.55488 -1.6371,1.0914 -3.6463,1.73633 -2.0091,0.64492 -4.3408,0.64492 -2.9517,0 -5.4818,-1.0418 -2.5301,-1.0666 -4.3904,-2.87734 -1.8356,-1.81074 -2.8774,-4.2416 -1.0418,-2.43086 -1.0418,-5.20899 z m 13.8162,-9.84746 q -1.8603,0 -3.4726,0.62012 -1.6123,0.59531 -2.8526,1.66191 -1.2402,1.0666 -2.0836,2.53008 -0.8185,1.46348 -1.1162,3.1998 h 18.8764 q -0.2977,-1.71152 -1.1162,-3.175 -0.8186,-1.48828 -2.034,-2.55488 -1.2154,-1.0666 -2.8029,-1.66191 -1.5875,-0.62012 -3.3983,-0.62012 z"
           style="font-style:normal;font-variant:normal;font-weight:normal;font-stretch:normal;font-size:50.8px;font-family:'Codec Cold Trial';-inkscape-font-specification:'Codec Cold Trial';fill:#8fa429;fill-opacity:1;stroke-width:0.264583"
           id="path284" />
        <path
           inkscape:connector-curvature="0"
           d="m 1310.0808,768.33694 h -5.1841 v -3.74551 h 5.1841 v -1.26504 q 0,-1.71152 0.3721,-3.37344 0.3969,-1.68671 1.3395,-2.97656 0.9425,-1.31465 2.53,-2.1084 1.6123,-0.81855 4.0432,-0.81855 h 3.6711 v 3.59668 l -2.7533,-0.0248 q -1.3891,0 -2.3317,0.44649 -0.9177,0.44648 -1.4882,1.24023 -0.5705,0.76895 -0.8186,1.83555 -0.248,1.0666 -0.248,2.30684 v 1.14101 h 7.5158 v 3.74551 h -7.5158 v 21.55527 h -4.3161 z"
           style="font-style:normal;font-variant:normal;font-weight:normal;font-stretch:normal;font-size:50.8px;font-family:'Codec Cold Trial';-inkscape-font-specification:'Codec Cold Trial';fill:#8fa429;fill-opacity:1;stroke-width:0.264583"
           id="path286" />
        <path
           inkscape:connector-curvature="0"
           d="m 1325.8318,777.24182 q 0,-2.77812 0.9922,-5.20898 1.017,-2.45567 2.803,-4.26641 1.8107,-1.81074 4.2912,-2.85254 2.4804,-1.04179 5.4322,-1.04179 1.6371,0 3.1254,0.37207 1.4883,0.34726 2.7533,0.99218 1.2898,0.62012 2.3316,1.46348 1.0418,0.84336 1.8356,1.81074 l 0.2976,-3.91914 h 3.7456 v 25.30078 h -3.7456 l -0.3224,-3.91914 q -0.7938,0.96738 -1.8604,1.81074 -1.0418,0.84336 -2.3316,1.48828 -1.265,0.62012 -2.7285,0.96739 -1.4635,0.37207 -3.1006,0.37207 -2.9518,0 -5.4322,-1.0418 -2.4805,-1.0418 -4.2912,-2.85254 -1.786,-1.81074 -2.803,-4.2416 -0.9922,-2.43086 -0.9922,-5.23379 z m 4.3161,0 q 0,2.0836 0.7441,3.84473 0.7441,1.76113 2.034,3.05097 1.3146,1.26504 3.051,1.98438 1.7611,0.71934 3.7455,0.71934 1.9843,0 3.7207,-0.71934 1.7611,-0.71934 3.0509,-1.98438 1.3147,-1.28984 2.0588,-3.05097 0.769,-1.76113 0.769,-3.84473 0,-2.05879 -0.769,-3.81992 -0.7441,-1.76113 -2.0588,-3.02617 -1.2898,-1.28985 -3.0509,-2.00918 -1.7364,-0.74414 -3.7207,-0.74414 -2.0092,0 -3.7704,0.71933 -1.7363,0.71934 -3.0261,2.00918 -1.2899,1.28985 -2.034,3.05098 -0.7441,1.73633 -0.7441,3.81992 z"
           style="font-style:normal;font-variant:normal;font-weight:normal;font-stretch:normal;font-size:50.8px;font-family:'Codec Cold Trial';-inkscape-font-specification:'Codec Cold Trial';fill:#8fa429;fill-opacity:1;stroke-width:0.264583"
           id="path288" />
        <path
           inkscape:connector-curvature="0"
           d="m 1387.0994,789.89221 h -4.316 v -13.64258 q 0,-2.28203 -0.5209,-3.89433 -0.5209,-1.63711 -1.5131,-2.67891 -0.9674,-1.04179 -2.406,-1.53789 -1.4387,-0.49609 -3.2743,-0.49609 -1.7611,0 -3.299,0.64492 -1.5131,0.64492 -2.6541,1.81074 -1.141,1.16582 -1.7859,2.80293 -0.6449,1.63711 -0.6449,3.59668 v 13.39453 h -4.2913 v -25.30078 h 3.5471 l 0.3721,3.44785 q 0.7689,-0.86816 1.7859,-1.63711 1.017,-0.76894 2.2076,-1.31465 1.2155,-0.5705 2.5549,-0.89296 1.3643,-0.32246 2.7781,-0.32246 5.8291,0 8.6321,3.10058 2.8277,3.10059 2.8277,9.20254 z"
           style="font-style:normal;font-variant:normal;font-weight:normal;font-stretch:normal;font-size:50.8px;font-family:'Codec Cold Trial';-inkscape-font-specification:'Codec Cold Trial';fill:#8fa429;fill-opacity:1;stroke-width:0.264583"
           id="path290" />
        <path
           inkscape:connector-curvature="0"
           d="m 1394.9377,764.59143 h 4.316 v 25.30078 h -4.316 z m -0.7194,-7.54062 q 0,-1.09141 0.7938,-1.86036 0.7937,-0.76894 2.1084,-0.76894 1.3146,0 2.1084,0.76894 0.8185,0.76895 0.8185,1.86036 0,1.11621 -0.8185,1.88515 -0.7938,0.76895 -2.1332,0.76895 -0.6449,0 -1.1658,-0.19844 -0.5209,-0.22324 -0.9178,-0.57051 -0.3721,-0.37207 -0.5953,-0.84336 -0.1985,-0.49609 -0.1985,-1.04179 z"
           style="font-style:normal;font-variant:normal;font-weight:normal;font-stretch:normal;font-size:50.8px;font-family:'Codec Cold Trial';-inkscape-font-specification:'Codec Cold Trial';fill:#8fa429;fill-opacity:1;stroke-width:0.264583"
           id="path292" />
        <path
           inkscape:connector-curvature="0"
           d="m 1407.0424,777.24182 q 0,-2.77812 1.0418,-5.20898 1.0418,-2.45567 2.8773,-4.26641 1.8604,-1.81074 4.3904,-2.85254 2.5301,-1.04179 5.4819,-1.04179 2.9517,0 5.4818,1.04179 2.5301,1.0418 4.3656,2.85254 1.8604,1.81074 2.9022,4.26641 1.0666,2.43086 1.0666,5.20898 v 0.57051 h -0.025 l -0.074,0.71934 h -23.2916 q 0.2232,1.93476 1.1162,3.49746 0.8929,1.56269 2.1828,2.6789 1.3146,1.11621 2.9517,1.71153 1.6372,0.59531 3.3487,0.59531 1.3394,0 2.5301,-0.32246 1.2154,-0.32246 2.2324,-0.91778 1.0418,-0.59531 1.8603,-1.41386 0.8186,-0.84336 1.3891,-1.86035 h 4.6633 q -0.6946,1.68671 -1.8852,3.175 -1.1906,1.46347 -2.8277,2.55488 -1.6371,1.0914 -3.6463,1.73633 -2.0092,0.64492 -4.3408,0.64492 -2.9518,0 -5.4819,-1.0418 -2.53,-1.0666 -4.3904,-2.87734 -1.8355,-1.81074 -2.8773,-4.2416 -1.0418,-2.43086 -1.0418,-5.20899 z m 13.8162,-9.84746 q -1.8604,0 -3.4727,0.62012 -1.6123,0.59531 -2.8525,1.66191 -1.2403,1.0666 -2.0836,2.53008 -0.8186,1.46348 -1.1162,3.1998 h 18.8763 q -0.2976,-1.71152 -1.1162,-3.175 -0.8185,-1.48828 -2.034,-2.55488 -1.2154,-1.0666 -2.8029,-1.66191 -1.5875,-0.62012 -3.3982,-0.62012 z"
           style="font-style:normal;font-variant:normal;font-weight:normal;font-stretch:normal;font-size:50.8px;font-family:'Codec Cold Trial';-inkscape-font-specification:'Codec Cold Trial';fill:#8fa429;fill-opacity:1;stroke-width:0.264583"
           id="path294" />
        <path
           inkscape:connector-curvature="0"
           d="m 1457.3215,778.1844 v 11.70781 h -4.3905 v -33.73437 h 13.841 q 2.4557,0 4.5145,0.84336 2.0588,0.81855 3.5471,2.28203 1.4883,1.46347 2.3068,3.49746 0.8434,2.03398 0.8434,4.41523 0,2.40606 -0.8434,4.41524 -0.8185,2.00918 -2.3068,3.47265 -1.4635,1.46348 -3.4975,2.28203 -2.034,0.81856 -4.4648,0.81856 z m 9.3513,-3.84473 q 1.4883,0 2.7533,-0.5457 1.2651,-0.5457 2.1829,-1.48828 0.9425,-0.96738 1.4634,-2.25723 0.5209,-1.31465 0.5209,-2.85254 0,-1.51308 -0.5457,-2.82773 -0.5209,-1.31465 -1.4634,-2.28203 -0.9178,-0.96739 -2.2077,-1.51309 -1.265,-0.57051 -2.7533,-0.57051 h -9.3017 v 14.33711 z"
           style="font-style:normal;font-variant:normal;font-weight:normal;font-stretch:normal;font-size:50.8px;font-family:'Codec Cold Trial';-inkscape-font-specification:'Codec Cold Trial';fill:#8fa429;fill-opacity:1;stroke-width:0.264583"
           id="path296" />
        <path
           inkscape:connector-curvature="0"
           d="m 1480.1666,777.24182 q 0,-2.77812 1.0418,-5.20898 1.0418,-2.45567 2.8773,-4.26641 1.8604,-1.81074 4.3905,-2.85254 2.53,-1.04179 5.4818,-1.04179 2.9518,0 5.4818,1.04179 2.5301,1.0418 4.3657,2.85254 1.8603,1.81074 2.9021,4.26641 1.0666,2.43086 1.0666,5.20898 v 0.57051 h -0.025 l -0.074,0.71934 h -23.2916 q 0.2232,1.93476 1.1162,3.49746 0.893,1.56269 2.1828,2.6789 1.3147,1.11621 2.9518,1.71153 1.6371,0.59531 3.3486,0.59531 1.3395,0 2.5301,-0.32246 1.2154,-0.32246 2.2324,-0.91778 1.0418,-0.59531 1.8604,-1.41386 0.8185,-0.84336 1.389,-1.86035 h 4.6633 q -0.6945,1.68671 -1.8851,3.175 -1.1907,1.46347 -2.8278,2.55488 -1.6371,1.0914 -3.6463,1.73633 -2.0092,0.64492 -4.3408,0.64492 -2.9518,0 -5.4818,-1.0418 -2.5301,-1.0666 -4.3905,-2.87734 -1.8355,-1.81074 -2.8773,-4.2416 -1.0418,-2.43086 -1.0418,-5.20899 z m 13.8162,-9.84746 q -1.8603,0 -3.4726,0.62012 -1.6123,0.59531 -2.8526,1.66191 -1.2402,1.0666 -2.0836,2.53008 -0.8185,1.46348 -1.1162,3.1998 h 18.8764 q -0.2977,-1.71152 -1.1162,-3.175 -0.8186,-1.48828 -2.034,-2.55488 -1.2154,-1.0666 -2.8029,-1.66191 -1.5875,-0.62012 -3.3983,-0.62012 z"
           style="font-style:normal;font-variant:normal;font-weight:normal;font-stretch:normal;font-size:50.8px;font-family:'Codec Cold Trial';-inkscape-font-specification:'Codec Cold Trial';fill:#8fa429;fill-opacity:1;stroke-width:0.264583"
           id="path298" />
        <path
           inkscape:connector-curvature="0"
           d="m 1516.4062,782.57483 q 0.025,0.89297 0.5209,1.68672 0.4961,0.79375 1.3395,1.41387 0.8682,0.62011 2.0092,0.99218 1.141,0.34727 2.4308,0.34727 3.6463,0 5.4075,-1.14102 1.7859,-1.14101 1.7859,-3.07578 0,-1.0418 -0.5705,-1.73633 -0.5457,-0.71933 -1.5627,-1.19062 -1.017,-0.47129 -2.4805,-0.76895 -1.4635,-0.32246 -3.2742,-0.59531 -0.9674,-0.12402 -2.0092,-0.29766 -1.017,-0.19843 -2.034,-0.49609 -0.9922,-0.32246 -1.9099,-0.79375 -0.893,-0.49609 -1.5875,-1.21543 -0.6698,-0.74414 -1.0914,-1.73633 -0.3969,-1.01699 -0.3969,-2.38125 0,-1.56269 0.5705,-2.95175 0.5953,-1.41387 1.8604,-2.45567 1.2898,-1.0666 3.299,-1.68672 2.034,-0.62011 4.9113,-0.62011 2.2076,0 3.9688,0.5705 1.7859,0.54571 3.0261,1.5627 1.2651,0.99219 1.9348,2.38125 0.6697,1.36426 0.6697,2.97656 h -4.2664 q -0.05,-0.86816 -0.4713,-1.5875 -0.4217,-0.71934 -1.1658,-1.24023 -0.7193,-0.5209 -1.7363,-0.79375 -1.017,-0.29766 -2.2324,-0.29766 -1.662,0 -2.8278,0.34727 -1.141,0.34726 -1.8851,0.94257 -0.7194,0.57051 -1.0666,1.31465 -0.3225,0.71934 -0.3225,1.48828 0,0.89297 0.4465,1.53789 0.4465,0.62012 1.3394,1.0418 0.893,0.42168 2.2325,0.69453 1.3394,0.27285 3.1253,0.44649 1.6868,0.22324 3.4479,0.62011 1.7859,0.37207 3.2246,1.16582 1.4635,0.79375 2.3813,2.1084 0.9177,1.28985 0.9177,3.37344 0,1.98437 -0.8185,3.49746 -0.8186,1.48828 -2.3565,2.53008 -1.5131,1.01699 -3.6959,1.53789 -2.1828,0.5209 -4.9361,0.5209 -2.4805,0 -4.4152,-0.71934 -1.9348,-0.69453 -3.2743,-1.83554 -1.3146,-1.16583 -2.0091,-2.6045 -0.6946,-1.43867 -0.6946,-2.90215 z"
           style="font-style:normal;font-variant:normal;font-weight:normal;font-stretch:normal;font-size:50.8px;font-family:'Codec Cold Trial';-inkscape-font-specification:'Codec Cold Trial';fill:#8fa429;fill-opacity:1;stroke-width:0.264583"
           id="path300" />
        <path
           inkscape:connector-curvature="0"
           d="m 1542.9473,777.24182 q 0,2.20762 0.7689,3.99356 0.7938,1.76113 2.1084,3.00136 1.3395,1.24024 3.051,1.90996 1.7115,0.66973 3.5719,0.66973 1.3642,0 2.6293,-0.34726 1.265,-0.34727 2.3316,-0.99219 1.0914,-0.64492 1.9596,-1.5627 0.8929,-0.91777 1.4882,-2.08359 h 4.4153 q -0.6449,1.90996 -1.8604,3.52226 -1.2154,1.61231 -2.8773,2.77813 -1.6619,1.16582 -3.7207,1.81074 -2.0588,0.66973 -4.3904,0.66973 -2.9518,0 -5.4819,-1.0418 -2.5301,-1.0666 -4.3904,-2.87734 -1.8356,-1.81074 -2.8774,-4.2416 -1.0418,-2.43086 -1.0418,-5.20899 0,-2.77812 1.0418,-5.20898 1.0418,-2.45567 2.8774,-4.26641 1.8603,-1.81074 4.3904,-2.85254 2.5301,-1.04179 5.4819,-1.04179 2.3316,0 4.3656,0.64492 2.0588,0.64492 3.7207,1.81074 1.6619,1.14101 2.8773,2.75332 1.2155,1.6123 1.8852,3.54707 l -4.4153,0.0248 q -0.5953,-1.16582 -1.4882,-2.08359 -0.8682,-0.94258 -1.9596,-1.5875 -1.0666,-0.64492 -2.3316,-0.99219 -1.2651,-0.34726 -2.6293,-0.34726 -1.8604,0 -3.5967,0.66972 -1.7115,0.66973 -3.0262,1.93477 -1.3146,1.24023 -2.1084,3.02617 -0.7689,1.76113 -0.7689,3.96875 z"
           style="font-style:normal;font-variant:normal;font-weight:normal;font-stretch:normal;font-size:50.8px;font-family:'Codec Cold Trial';-inkscape-font-specification:'Codec Cold Trial';fill:#8fa429;fill-opacity:1;stroke-width:0.264583"
           id="path302" />
        <path
           inkscape:connector-curvature="0"
           d="m 1596.947,789.89221 h -4.316 v -13.7666 q 0,-2.33164 -0.5209,-3.94394 -0.5209,-1.61231 -1.5379,-2.6045 -0.9922,-1.01699 -2.4804,-1.46347 -1.4635,-0.47129 -3.3735,-0.47129 -1.6867,0 -3.175,0.59531 -1.4883,0.57051 -2.6045,1.66191 -1.1162,1.06661 -1.7611,2.6045 -0.6449,1.53789 -0.6449,3.44785 v 13.96504 h -4.2912 v -34.94981 h 4.2664 l -0.025,12.84883 q 0.7441,-0.84336 1.7115,-1.56269 0.9674,-0.71934 2.1084,-1.24024 1.1658,-0.5457 2.4557,-0.84336 1.3146,-0.29765 2.7285,-0.29765 5.8291,0 8.632,3.02617 2.8277,3.02617 2.8277,9.12812 z"
           style="font-style:normal;font-variant:normal;font-weight:normal;font-stretch:normal;font-size:50.8px;font-family:'Codec Cold Trial';-inkscape-font-specification:'Codec Cold Trial';fill:#8fa429;fill-opacity:1;stroke-width:0.264583"
           id="path304" />
        <path
           inkscape:connector-curvature="0"
           d="m 1603.4955,777.24182 q 0,-2.77812 1.0418,-5.20898 1.0418,-2.45567 2.8774,-4.26641 1.8603,-1.81074 4.3904,-2.85254 2.5301,-1.04179 5.4818,-1.04179 2.9518,0 5.4819,1.04179 2.53,1.0418 4.3656,2.85254 1.8603,1.81074 2.9021,4.26641 1.0666,2.43086 1.0666,5.20898 v 0.57051 h -0.025 l -0.074,0.71934 h -23.2916 q 0.2233,1.93476 1.1162,3.49746 0.893,1.56269 2.1828,2.6789 1.3147,1.11621 2.9518,1.71153 1.6371,0.59531 3.3486,0.59531 1.3395,0 2.5301,-0.32246 1.2154,-0.32246 2.2324,-0.91778 1.0418,-0.59531 1.8604,-1.41386 0.8185,-0.84336 1.389,-1.86035 h 4.6633 q -0.6945,1.68671 -1.8851,3.175 -1.1907,1.46347 -2.8278,2.55488 -1.6371,1.0914 -3.6463,1.73633 -2.0091,0.64492 -4.3408,0.64492 -2.9517,0 -5.4818,-1.0418 -2.5301,-1.0666 -4.3904,-2.87734 -1.8356,-1.81074 -2.8774,-4.2416 -1.0418,-2.43086 -1.0418,-5.20899 z m 13.8162,-9.84746 q -1.8603,0 -3.4726,0.62012 -1.6123,0.59531 -2.8526,1.66191 -1.2402,1.0666 -2.0836,2.53008 -0.8185,1.46348 -1.1162,3.1998 h 18.8764 q -0.2977,-1.71152 -1.1162,-3.175 -0.8186,-1.48828 -2.034,-2.55488 -1.2154,-1.0666 -2.8029,-1.66191 -1.5875,-0.62012 -3.3983,-0.62012 z"
           style="font-style:normal;font-variant:normal;font-weight:normal;font-stretch:normal;font-size:50.8px;font-family:'Codec Cold Trial';-inkscape-font-specification:'Codec Cold Trial';fill:#8fa429;fill-opacity:1;stroke-width:0.264583"
           id="path306" />
        <path
           inkscape:connector-curvature="0"
           d="m 1638.1229,754.96721 h 4.2912 v 34.925 h -4.2912 z"
           style="font-style:normal;font-variant:normal;font-weight:normal;font-stretch:normal;font-size:50.8px;font-family:'Codec Cold Trial';-inkscape-font-specification:'Codec Cold Trial';fill:#8fa429;fill-opacity:1;stroke-width:0.264583"
           id="path308" />
      </g>
    </g>
    <text
       xml:space="preserve"
       style="font-size:26.6667px;line-height:1.25;font-family:Calibri;-inkscape-font-specification:Calibri"
       x="429.76584"
       y="419.82462"
       id="text894"
       transform="matrix(0.26458387,0,0,0.26458335,-107.95971,377.57097)"><tspan
         sodipodi:role="line"
         id="tspan892"
         x="429.76584"
         y="419.82462"
         style="font-size:26.6667px">Created by Stefanie Peschel</tspan></text>
  </g>
</svg>
