<?xml version="1.0" encoding="UTF-8" standalone="no"?>
<svg
   viewBox="0 0 500 500"
   version="1.1"
   id="svg15965"
   xml:space="preserve"
   width="500"
   height="500"
   sodipodi:docname="ai-image.svg"
   inkscape:version="1.2.2 (732a01da63, 2022-12-09)"
   xmlns:inkscape="http://www.inkscape.org/namespaces/inkscape"
   xmlns:sodipodi="http://sodipodi.sourceforge.net/DTD/sodipodi-0.dtd"
   xmlns="http://www.w3.org/2000/svg"
   xmlns:svg="http://www.w3.org/2000/svg"><sodipodi:namedview
     id="namedview210"
     pagecolor="#ffffff"
     bordercolor="#666666"
     borderopacity="1.0"
     inkscape:showpageshadow="2"
     inkscape:pageopacity="0.0"
     inkscape:pagecheckerboard="0"
     inkscape:deskcolor="#d1d1d1"
     showgrid="false"
     inkscape:zoom="0.472"
     inkscape:cx="-11.652542"
     inkscape:cy="251.05932"
     inkscape:window-width="2560"
     inkscape:window-height="1373"
     inkscape:window-x="-9"
     inkscape:window-y="-9"
     inkscape:window-maximized="1"
     inkscape:current-layer="svg15965" /><defs
     id="defs15969"><symbol
       id="m"
       overflow="visible"><path
         d="m29.312-1.75c-1.5117 0.78125-3.0898 1.3711-4.7344 1.7656-1.6367 0.40625-3.3398 0.60938-5.1094 0.60938-5.3125 0-9.5273-1.4844-12.641-4.4531-3.1055-2.9688-4.6562-7-4.6562-12.094s1.5508-9.125 4.6562-12.094c3.1133-2.9688 7.3281-4.4531 12.641-4.4531 1.7695 0 3.4727 0.19922 5.1094 0.59375 1.6445 0.39844 3.2227 0.99219 4.7344 1.7812v6.5938c-1.5312-1.0391-3.0391-1.8008-4.5156-2.2812-1.4805-0.48828-3.0391-0.73438-4.6719-0.73438-2.9375 0-5.2461 0.94531-6.9219 2.8281-1.6797 1.875-2.5156 4.4648-2.5156 7.7656 0 3.293 0.83594 5.8828 2.5156 7.7656 1.6758 1.875 3.9844 2.8125 6.9219 2.8125 1.6328 0 3.1914-0.23828 4.6719-0.71875 1.4766-0.48828 2.9844-1.2539 4.5156-2.2969z"
         id="path26317" /></symbol><symbol
       id="e"
       overflow="visible"><path
         d="m21.453-17.406c-0.67969-0.3125-1.3516-0.53906-2.0156-0.6875-0.65625-0.15625-1.3203-0.23438-1.9844-0.23438-1.9688 0-3.4844 0.63281-4.5469 1.8906-1.0547 1.2617-1.5781 3.0703-1.5781 5.4219v11.016h-7.6562v-23.922h7.6562v3.9219c0.97656-1.5625 2.1016-2.7031 3.375-3.4219 1.2812-0.71875 2.8125-1.0781 4.5938-1.0781 0.25 0 0.52344 0.011719 0.82812 0.03125 0.30078 0.023438 0.73438 0.070312 1.2969 0.14062z"
         id="path26320" /></symbol><symbol
       id="d"
       overflow="visible"><path
         d="m27.562-12.031v2.1875h-17.891c0.1875 1.793 0.83203 3.1367 1.9375 4.0312 1.1133 0.89844 2.6719 1.3438 4.6719 1.3438 1.6016 0 3.25-0.23438 4.9375-0.70312 1.6875-0.47656 3.4219-1.2031 5.2031-2.1719v5.8906c-1.8047 0.6875-3.6094 1.2031-5.4219 1.5469-1.8125 0.35156-3.6211 0.53125-5.4219 0.53125-4.3359 0-7.7031-1.0977-10.109-3.2969-2.3984-2.207-3.5938-5.2969-3.5938-9.2656 0-3.9062 1.1758-6.9727 3.5312-9.2031 2.3633-2.2383 5.6094-3.3594 9.7344-3.3594 3.7578 0 6.7695 1.1367 9.0312 3.4062 2.2578 2.2617 3.3906 5.2812 3.3906 9.0625zm-7.8594-2.5312c0-1.457-0.42969-2.6289-1.2812-3.5156-0.84375-0.89453-1.9492-1.3438-3.3125-1.3438-1.4922 0-2.6992 0.41797-3.625 1.25-0.91797 0.83594-1.4922 2.0391-1.7188 3.6094z"
         id="path26323" /></symbol><symbol
       id="i"
       overflow="visible"><path
         d="m14.391-10.766c-1.5938 0-2.793 0.27344-3.5938 0.8125-0.80469 0.54297-1.2031 1.3398-1.2031 2.3906 0 0.96875 0.32031 1.7305 0.96875 2.2812 0.64453 0.54297 1.5469 0.8125 2.7031 0.8125 1.4375 0 2.6445-0.51562 3.625-1.5469 0.98828-1.0312 1.4844-2.3203 1.4844-3.875v-0.875zm11.688-2.8906v13.656h-7.7031v-3.5469c-1.0312 1.4492-2.1875 2.5078-3.4688 3.1719s-2.8398 1-4.6719 1c-2.4805 0-4.4961-0.72266-6.0469-2.1719-1.543-1.4453-2.3125-3.3203-2.3125-5.625 0-2.8125 0.96094-4.8672 2.8906-6.1719 1.9375-1.3125 4.9688-1.9688 9.0938-1.9688h4.5156v-0.60938c0-1.207-0.48047-2.0938-1.4375-2.6562-0.94922-0.5625-2.4375-0.84375-4.4688-0.84375-1.6367 0-3.1562 0.16797-4.5625 0.5-1.4062 0.32422-2.7188 0.8125-3.9375 1.4688v-5.8281c1.6445-0.40625 3.2891-0.70703 4.9375-0.90625 1.6562-0.20703 3.3047-0.3125 4.9531-0.3125 4.3203 0 7.4375 0.85547 9.3438 2.5625 1.9141 1.6992 2.875 4.4609 2.875 8.2812z"
         id="path26326" /></symbol><symbol
       id="h"
       overflow="visible"><path
         d="m12.031-30.719v6.7969h7.875v5.4688h-7.875v10.141c0 1.1172 0.21875 1.8711 0.65625 2.2656 0.4375 0.38672 1.3125 0.57812 2.625 0.57812h3.9375v5.4688h-6.5625c-3.0234 0-5.1641-0.62891-6.4219-1.8906-1.2617-1.2578-1.8906-3.3984-1.8906-6.4219v-10.141h-3.7969v-5.4688h3.7969v-6.7969z"
         id="path26329" /></symbol><symbol
       id="a"
       overflow="visible"><path
         d="m19.953-20.422v-12.812h7.6875v33.234h-7.6875v-3.4531c-1.0547 1.4062-2.2148 2.4375-3.4844 3.0938-1.2734 0.65625-2.7422 0.98438-4.4062 0.98438-2.9492 0-5.3711-1.1719-7.2656-3.5156-1.8867-2.3438-2.8281-5.3594-2.8281-9.0469s0.94141-6.7031 2.8281-9.0469c1.8945-2.3438 4.3164-3.5156 7.2656-3.5156 1.6562 0 3.1172 0.33594 4.3906 1 1.2812 0.65625 2.4453 1.6836 3.5 3.0781zm-5.0469 15.484c1.6445 0 2.8945-0.59766 3.75-1.7969 0.86328-1.1953 1.2969-2.9297 1.2969-5.2031 0-2.2812-0.43359-4.0195-1.2969-5.2188-0.85547-1.1953-2.1055-1.7969-3.75-1.7969-1.625 0-2.8711 0.60156-3.7344 1.7969-0.85547 1.1992-1.2812 2.9375-1.2812 5.2188 0 2.2734 0.42578 4.0078 1.2812 5.2031 0.86328 1.1992 2.1094 1.7969 3.7344 1.7969z"
         id="path26332" /></symbol><symbol
       id="c"
       overflow="visible"><path
         d="m16.406-4.9375c1.6328 0 2.8828-0.59766 3.75-1.7969 0.86328-1.1953 1.2969-2.9297 1.2969-5.2031 0-2.2812-0.43359-4.0195-1.2969-5.2188-0.86719-1.1953-2.1172-1.7969-3.75-1.7969-1.6367 0-2.8906 0.60547-3.7656 1.8125-0.875 1.1992-1.3125 2.9336-1.3125 5.2031 0 2.2617 0.4375 3.9961 1.3125 5.2031 0.875 1.1992 2.1289 1.7969 3.7656 1.7969zm-5.0781-15.484c1.0508-1.3945 2.2188-2.4219 3.5-3.0781 1.2812-0.66406 2.7539-1 4.4219-1 2.9453 0 5.3672 1.1719 7.2656 3.5156 1.8945 2.3438 2.8438 5.3594 2.8438 9.0469s-0.94922 6.7031-2.8438 9.0469c-1.8984 2.3438-4.3203 3.5156-7.2656 3.5156-1.668 0-3.1406-0.33594-4.4219-1s-2.4492-1.6914-3.5-3.0781v3.4531h-7.6562v-33.234h7.6562z"
         id="path26335" /></symbol><symbol
       id="g"
       overflow="visible"><path
         d="m0.53125-23.922h7.6562l6.4219 16.234 5.4688-16.234h7.6562l-10.062 26.188c-1.0117 2.6641-2.1953 4.5234-3.5469 5.5781-1.3438 1.0625-3.1211 1.5938-5.3281 1.5938h-4.4219v-5.0156h2.3906c1.3008 0 2.2422-0.21094 2.8281-0.625 0.59375-0.40625 1.0547-1.1484 1.3906-2.2188l0.20312-0.65625z"
         id="path26338" /></symbol><symbol
       id="b"
       overflow="visible"><path
         d="m23.375-5.8125h-12.859l-2.0312 5.8125h-8.2656l11.812-31.891h9.7969l11.812 31.891h-8.2656zm-10.812-5.9219h8.7344l-4.3594-12.688z"
         id="path26341" /></symbol><symbol
       id="l"
       overflow="visible"><path
         d="m27.734-14.562v14.562h-7.7031v-11.156c0-2.0625-0.046875-3.4844-0.14062-4.2656-0.085937-0.78125-0.24219-1.3594-0.46875-1.7344-0.30469-0.5-0.71094-0.88281-1.2188-1.1562-0.51172-0.28125-1.0938-0.42188-1.75-0.42188-1.5938 0-2.8516 0.61719-3.7656 1.8438-0.90625 1.2305-1.3594 2.9375-1.3594 5.125v11.766h-7.6562v-23.922h7.6562v3.5c1.1445-1.3945 2.3633-2.4219 3.6562-3.0781 1.3008-0.66406 2.7383-1 4.3125-1 2.7578 0 4.8516 0.85156 6.2812 2.5469 1.4375 1.6875 2.1562 4.1523 2.1562 7.3906z"
         id="path26344" /></symbol><symbol
       id="f"
       overflow="visible"><path
         d="m3.6719-23.922h7.6562v23.922h-7.6562zm0-9.3125h7.6562v6.2344h-7.6562z"
         id="path26347" /></symbol><symbol
       id="k"
       overflow="visible"><path
         d="m4.0156-31.891h9.1875l11.594 21.875v-21.875h7.7969v31.891h-9.1875l-11.594-21.875v21.875h-7.7969z"
         id="path26350" /></symbol><symbol
       id="j"
       overflow="visible"><path
         d="m3.4219-9.3125v-14.609h7.6875v2.3906c0 1.293-0.011719 2.918-0.03125 4.875-0.011719 1.9609-0.015625 3.2656-0.015625 3.9219 0 1.9297 0.046875 3.3125 0.14062 4.1562 0.10156 0.84375 0.28125 1.4609 0.53125 1.8438 0.3125 0.5 0.71875 0.88672 1.2188 1.1562 0.50781 0.27344 1.0938 0.40625 1.75 0.40625 1.5938 0 2.8438-0.60938 3.75-1.8281 0.91406-1.2266 1.375-2.9297 1.375-5.1094v-11.812h7.6406v23.922h-7.6406v-3.4531c-1.1562 1.3867-2.3828 2.4141-3.6719 3.0781-1.2812 0.66406-2.6992 1-4.25 1-2.7734 0-4.8828-0.84766-6.3281-2.5469-1.4375-1.6953-2.1562-4.1602-2.1562-7.3906z"
         id="path26353" /></symbol></defs><!--! Font Awesome Pro 6.3.0 by @fontawesome - https://fontawesome.com License - https://fontawesome.com/license (Commercial License) Copyright 2023 Fonticons, Inc. --><path
     d="M 361.57204,129.74999 H 138.25151 c -4.72407,0 -8.58924,3.86516 -8.58924,8.58926 v 223.32052 c 0,4.7241 3.86517,8.58925 8.58924,8.58925 h 223.32053 c 4.72409,0 8.58925,-3.86515 8.58925,-8.58925 V 138.33925 c 0,-4.7241 -3.86516,-8.58926 -8.58925,-8.58926 z m -8.58925,17.17851 v 193.08637 l -44.15071,-68.88679 c -1.54527,-2.49244 -4.29462,-3.94948 -7.21654,-3.94948 -2.92191,0 -5.66734,1.46096 -7.21654,3.94948 l -24.73605,38.47887 -46.72749,-72.83587 c -3.17883,-4.89665 -11.33881,-4.89665 -14.42897,0 l -61.58541,96.02684 0.004,-185.87139 h 206.14226 z m -55.40116,206.14202 -17.69189,-27.57003 21.73031,-33.8436 39.33779,61.41265 z m -20.44143,0 H 154.23048 l 61.41265,-95.76966 61.41265,95.76966 z m -10.04991,-120.2495 c 14.17274,0 25.76775,-11.595 25.76775,-25.76776 0,-14.17275 -11.59501,-25.76776 -25.76775,-25.76776 -14.17276,0 -25.76776,11.59501 -25.76776,25.76776 0,14.17276 11.595,25.76776 25.76776,25.76776 z m 0,-34.35701 c 4.72408,0 8.58924,3.86515 8.58924,8.58925 0,4.72408 -3.86516,8.58925 -8.58924,8.58925 -4.72409,0 -8.58926,-3.86517 -8.58926,-8.58925 0,-4.7241 3.86517,-8.58925 8.58926,-8.58925 z m 206.14203,120.24951 c -11.16603,0 -20.61421,7.21654 -24.22268,17.17851 h -14.17276 l -14.60172,-21.90211 c -1.63353,-2.40421 -4.29462,-3.86516 -7.12829,-3.86516 h -8.58926 v -51.53551 h 27.31285 c 3.52001,9.96158 12.96829,17.1785 24.22265,17.1785 14.17277,0 25.76775,-11.59499 25.76775,-25.76774 0,-14.17276 -11.59498,-25.76777 -25.76775,-25.76777 -11.16602,0 -20.61419,7.21655 -24.22265,17.17852 h -27.31285 v -51.53552 h 8.58926 c 2.83367,0 5.583,-1.46095 7.12829,-3.86516 l 14.60172,-21.9021 h 14.17276 c 3.52002,9.96157 12.9683,17.17851 24.22268,17.17851 14.1727,0 25.76768,-11.59501 25.76768,-25.76776 0,-14.17275 -11.59498,-25.76776 -25.76768,-25.76776 -11.16603,0 -20.61421,7.21654 -24.22268,17.17851 h -18.72358 c -2.83367,0 -5.58302,1.46096 -7.1283,3.86517 l -14.60173,21.90209 h -3.94948 v -60.12475 c 0,-9.44818 -7.73033,-17.178504 -17.17851,-17.178504 h -60.12475 v -3.94949 l 21.9021,-14.601725 c 2.4042,-1.63353 3.86516,-4.294622 3.86516,-7.128292 V 50.990394 c 9.96157,-3.520023 17.1785,-12.968299 17.1785,-24.222671 0,-14.17275 -11.595,-25.76775405 -25.76774,-25.76775405 -14.17276,0 -25.76776,11.59500405 -25.76776,25.76775405 0,11.166028 7.21653,20.614202 17.1785,24.222671 v 14.172751 l -21.90209,14.601728 c -2.40422,1.633532 -3.86516,4.294632 -3.86516,7.128294 v 8.589252 H 258.58928 V 68.169581 c 9.96157,-3.520024 17.1785,-12.968298 17.1785,-24.22267 0,-14.172752 -11.59499,-25.767754 -25.76775,-25.767754 -14.17275,0 -25.76776,11.595002 -25.76776,25.767754 0,11.166026 7.21655,20.614202 17.17851,24.22267 v 27.312838 h -51.53551 v -8.589252 c 0,-2.833662 -1.46095,-5.583014 -3.86516,-7.128294 L 164.10801,65.163145 V 50.990394 c 9.96157,-3.520023 17.17851,-12.968299 17.17851,-24.222671 0,-14.17275 -11.59501,-25.76775405 -25.76776,-25.76775405 -14.17275,0 -25.76776,11.59500405 -25.76776,25.76775405 0,11.166028 7.21654,20.614202 17.17851,24.222671 v 18.723585 c 0,2.83367 1.46095,5.583018 3.86517,7.128292 l 21.9021,14.601725 v 3.94949 h -60.12476 c -9.44818,0 -17.178505,7.730324 -17.178505,17.178504 v 60.12475 H 91.444034 L 76.842302,150.79465 c -1.63353,-2.40421 -4.294622,-3.86517 -7.128292,-3.86517 H 50.990425 c -3.520023,-9.96157 -12.968299,-17.17851 -24.222671,-17.17851 -14.17275,0 -25.76775453,11.59501 -25.76775453,25.76776 0,14.17275 11.59500453,25.76776 25.76775453,25.76776 11.166028,0 20.614202,-7.21655 24.222671,-17.17851 h 14.172751 l 14.601728,21.9021 c 1.633531,2.40421 4.29463,3.86516 7.128292,3.86516 h 8.589252 v 51.53552 H 68.169612 c -3.520024,-9.96157 -12.968298,-17.17852 -24.22267,-17.17852 -14.172752,0 -25.767754,11.59501 -25.767754,25.76777 0,14.17275 11.595002,25.76774 25.767754,25.76774 11.166026,0 20.614202,-7.21653 24.22267,-17.1785 h 27.312836 v 51.53551 h -8.589252 c -2.833662,0 -5.583005,1.46095 -7.128292,3.86516 L 65.163176,335.89203 H 50.990425 c -3.520023,-9.96159 -12.968299,-17.17851 -24.222671,-17.17851 -14.17275,0 -25.76775453,11.59499 -25.76775453,25.76775 0,14.17275 11.59500453,25.76775 25.76775453,25.76775 11.166028,0 20.614202,-7.21653 24.222671,-17.1785 H 69.71401 c 2.83367,0 5.583018,-1.46096 7.128292,-3.86516 l 14.601732,-21.9021 h 3.949481 v 60.12475 c 0,9.44818 7.730325,17.17851 17.178505,17.17851 h 60.12476 v 3.94949 l -21.9021,14.60171 c -2.40422,1.63353 -3.86517,4.29463 -3.86517,7.1283 v 18.72359 c -9.96157,3.52001 -17.17851,12.96829 -17.17851,24.22265 0,14.17277 11.59501,25.76777 25.76776,25.76777 14.17275,0 25.76776,-11.595 25.76776,-25.76777 0,-11.16602 -7.21655,-20.61419 -17.17851,-24.22265 v -14.17276 l 21.9021,-14.60173 c 2.40421,-1.63353 3.86516,-4.29461 3.86516,-7.12828 v -8.58926 h 51.53551 v 27.31284 c -9.96157,3.52002 -17.17851,12.96829 -17.17851,24.22267 0,14.17275 11.59501,25.76775 25.76776,25.76775 14.17276,0 25.76775,-11.595 25.76775,-25.76775 0,-11.16604 -7.21653,-20.61421 -17.1785,-24.22267 v -27.31284 h 51.53552 v 8.58926 c 0,2.83367 1.46094,5.58299 3.86516,7.12828 l 21.90209,14.60173 v 14.17276 c -9.96157,3.52001 -17.1785,12.96829 -17.1785,24.22265 0,14.17277 11.595,25.76777 25.76776,25.76777 14.17274,0 25.76774,-11.595 25.76774,-25.76777 0,-11.16602 -7.21653,-20.61419 -17.1785,-24.22265 v -18.72359 c 0,-2.83367 -1.46096,-5.58302 -3.86516,-7.1283 l -21.9021,-14.60171 v -3.94949 h 60.12475 c 9.44818,0 17.17851,-7.73033 17.17851,-17.17851 v -60.12475 h 3.94948 l 14.60173,21.9021 c 1.63352,2.4042 4.29463,3.86516 7.1283,3.86516 h 18.72358 c 3.52002,9.96157 12.9683,17.1785 24.22268,17.1785 14.1727,0 25.76768,-11.595 25.76768,-25.76775 0,-14.17276 -11.59498,-25.76775 -25.76768,-25.76775 z m -17.17851,-77.30325 c 4.7241,0 8.58926,3.86515 8.58926,8.58924 0,4.72408 -3.86516,8.58925 -8.58926,8.58925 -4.7241,0 -8.58926,-3.86517 -8.58926,-8.58925 0,-4.72409 3.86516,-8.58924 8.58926,-8.58924 z m 17.17851,-94.48177 c 4.72404,0 8.58919,3.86517 8.58919,8.58924 0,4.7241 -3.86515,8.58926 -8.58919,8.58926 -4.72411,0 -8.58925,-3.86516 -8.58925,-8.58926 0,-4.72407 3.86514,-8.58924 8.58925,-8.58924 z M 344.39354,18.089735 c 4.7241,0 8.58925,3.865158 8.58925,8.589256 0,4.724077 -3.86515,8.589244 -8.58925,8.589244 -4.72408,0 -8.58925,-3.865167 -8.58925,-8.589244 0,-4.724098 3.86517,-8.589256 8.58925,-8.589256 z m -94.48175,17.1785 c 4.72408,0 8.58924,3.865158 8.58924,8.589256 0,4.724087 -3.86516,8.589244 -8.58924,8.589244 -4.7241,0 -8.58926,-3.865157 -8.58926,-8.589244 0,-4.724098 3.86516,-8.589256 8.58926,-8.589256 z m -94.48177,-17.1785 c 4.72408,0 8.58925,3.865158 8.58925,8.589256 0,4.724077 -3.86517,8.589244 -8.58925,8.589244 -4.72407,0 -8.58925,-3.865167 -8.58925,-8.589244 0,-4.724098 3.86518,-8.589256 8.58925,-8.589256 z M 26.591264,164.107 c -4.724098,0 -8.589256,-3.86516 -8.589256,-8.58926 0,-4.72407 3.865158,-8.58924 8.589256,-8.58924 4.724088,0 8.589244,3.86517 8.589244,8.58924 0,4.7241 -3.865156,8.58926 -8.589244,8.58926 z m 17.1785,94.48176 c -4.724088,0 -8.589256,-3.86517 -8.589256,-8.58925 0,-4.72409 3.865168,-8.58924 8.589256,-8.58924 4.724088,0 8.589244,3.86515 8.589244,8.58924 0,4.72408 -3.865156,8.58925 -8.589244,8.58925 z m -17.1785,94.48176 c -4.724098,0 -8.589256,-3.86516 -8.589256,-8.58925 0,-4.7241 3.865158,-8.58924 8.589256,-8.58924 4.724088,0 8.589244,3.86514 8.589244,8.58924 0,4.72409 -3.865156,8.58925 -8.589244,8.58925 z M 155.43002,481.90928 c -4.72407,0 -8.58925,-3.86515 -8.58925,-8.58925 0,-4.7241 3.86518,-8.58926 8.58925,-8.58926 4.72408,0 8.58925,3.86516 8.58925,8.58926 0,4.7241 -3.86517,8.58925 -8.58925,8.58925 z m 94.48177,-17.17851 c -4.7241,0 -8.58926,-3.86516 -8.58926,-8.58924 0,-4.72409 3.86516,-8.58925 8.58926,-8.58925 4.72408,0 8.58924,3.86516 8.58924,8.58925 0,4.72408 -3.86516,8.58924 -8.58924,8.58924 z m 94.48175,17.17851 c -4.72408,0 -8.58925,-3.86515 -8.58925,-8.58925 0,-4.7241 3.86517,-8.58926 8.58925,-8.58926 4.7241,0 8.58925,3.86516 8.58925,8.58926 0,4.7241 -3.86515,8.58925 -8.58925,8.58925 z M 387.3398,387.42753 H 112.73898 V 112.57149 H 387.3398 Z m 85.89252,-34.35701 c -4.72411,0 -8.58925,-3.86516 -8.58925,-8.58925 0,-4.7241 3.86514,-8.58924 8.58925,-8.58924 4.72404,0 8.58919,3.86514 8.58919,8.58924 0,4.72409 -3.86515,8.58925 -8.58919,8.58925 z"
     id="path26358-8"
     style="fill:#f6c156;fill-opacity:1;stroke-width:0.981625"
     transform="matrix(0.95381514,0,0,0.95381514,11.546215,11.546216)" /></svg>
