<?xml version="1.0" encoding="UTF-8" standalone="no"?>
<svg
   enable-background="new 0 0 512 512"
   height="500"
   id="Layer_3"
   version="1.1"
   viewBox="0 0 500 500"
   width="500"
   xml:space="preserve"
   sodipodi:docname="camera.svg"
   inkscape:version="1.2.2 (732a01da63, 2022-12-09)"
   xmlns:inkscape="http://www.inkscape.org/namespaces/inkscape"
   xmlns:sodipodi="http://sodipodi.sourceforge.net/DTD/sodipodi-0.dtd"
   xmlns="http://www.w3.org/2000/svg"
   xmlns:svg="http://www.w3.org/2000/svg"><sodipodi:namedview
     id="namedview332"
     pagecolor="#ffffff"
     bordercolor="#666666"
     borderopacity="1.0"
     inkscape:showpageshadow="2"
     inkscape:pageopacity="0.0"
     inkscape:pagecheckerboard="0"
     inkscape:deskcolor="#d1d1d1"
     showgrid="false"
     inkscape:zoom="0.4609375"
     inkscape:cx="-11.932203"
     inkscape:cy="257.08475"
     inkscape:window-width="2560"
     inkscape:window-height="1373"
     inkscape:window-x="-9"
     inkscape:window-y="-9"
     inkscape:window-maximized="1"
     inkscape:current-layer="Layer_3" /><defs
     id="defs6756" /><path
     id="path6893"
     d="m 206.89439,66.55616 c -17.17112,0 -33.38004,8.50472 -43.16918,22.62676 -6.25863,8.98675 -16.36876,14.28316 -27.28124,14.28316 H 115.90155 V 82.60395 c 0,-5.29577 -4.3329,-9.62867 -9.62867,-9.62867 H 36.787832 c -5.29577,0 -9.62867,4.3329 -9.62867,9.62867 v 20.86213 h -2.24732 c -13.15917,0 -23.911834,10.75266 -23.911834,23.91183 v 294.15722 c 0,13.15918 10.752664,23.90871 23.911834,23.90871 H 487.08816 c 13.15917,0 23.91183,-10.74953 23.91183,-23.90871 V 127.21806 c 0,-12.99869 -10.75266,-23.75198 -23.91183,-23.75198 H 375.23632 c -10.91248,0 -21.0226,-5.29641 -27.28124,-14.28316 C 338.16595,75.06088 322.1175,66.55616 304.7859,66.55616 Z m 0.31971,19.25735 h 97.89151 c 10.91248,0 21.0226,5.29641 27.28124,14.28316 9.78914,14.12204 25.83758,22.62676 43.16918,22.62676 h 111.53213 c 2.56765,0 4.65449,2.08683 4.65449,4.65448 v 60.17921 H 359.02555 C 333.99102,158.67113 297.08229,140.37599 256,140.37599 c -41.08229,0 -77.99102,18.29514 -103.02555,47.18113 H 20.257352 v -60.33906 c 0,-2.40717 2.08684,-4.49463 4.65449,-4.49463 h 12.19569 69.488178 30.16797 c 17.17111,0 33.38004,-8.50472 43.16917,-22.62676 6.25864,-8.98675 16.36877,-14.28316 27.28125,-14.28316 z M 46.576352,92.23263 h 50.23084 v 11.23345 h -50.23084 z m 14.12331,48.14336 c -5.29577,0 -9.62867,4.33291 -9.62867,9.62868 0,5.29577 4.3329,9.62867 9.62867,9.62867 h 20.21959 c 5.29577,0 9.62867,-4.3329 9.62867,-9.62867 0,-5.29577 -4.3329,-9.62868 -9.62867,-9.62868 z m 358.505098,0 c -5.29577,0 -9.62867,4.33291 -9.62867,9.62868 0,5.29577 4.3329,9.62867 9.62867,9.62867 h 40.44231 c 5.29577,0 9.62867,-4.3329 9.62867,-9.62867 0,-5.29577 -4.3329,-9.62868 -9.62867,-9.62868 z M 256,159.63334 c 64.51205,0 117.14886,52.47634 117.14886,117.14886 0,64.51205 -52.47633,117.14886 -117.14886,117.14886 -64.67253,0 -117.14886,-52.47633 -117.14886,-117.14886 0,-64.67252 52.63681,-117.14886 117.14886,-117.14886 z m 0,26.6387 c -48.3038,0 -87.78015,39.47949 -87.78015,87.78329 0,48.30379 39.31588,87.78015 87.78015,87.78015 48.46428,0 87.78015,-39.47636 87.78015,-87.78015 0,-48.3038 -39.47635,-87.78329 -87.78015,-87.78329 z m 0,19.0975 c 37.87275,0 68.52281,30.81366 68.52281,68.52594 0,37.71227 -30.81054,68.5228 -68.52281,68.5228 -37.71227,0 -68.52281,-30.81053 -68.52281,-68.5228 0,-37.71228 30.65006,-68.52594 68.52281,-68.52594 z M 20.257352,206.81447 H 139.01099 c -12.1963,20.38067 -19.25734,44.29193 -19.25734,69.80788 0,75.10357 61.14215,136.40621 136.4062,136.40621 75.26405,0 136.40621,-61.14216 136.40621,-136.40621 0,-25.51595 -7.06104,-49.42721 -19.25735,-69.80788 h 118.75364 v 15.2454 h -38.03201 c -5.29577,0 -9.62867,4.3329 -9.62867,9.62867 v 169.30417 c 0,5.29577 4.3329,9.62868 9.62867,9.62868 h 38.03201 v 10.75076 c -0.32096,2.56765 -2.40654,4.65449 -4.97419,4.65449 H 24.911842 c -2.56765,0 -4.65449,-2.08684 -4.65449,-4.65449 z m 443.078828,34.66259 h 28.40647 v 150.04683 h -28.40647 z"
     style="fill:#f6c155;fill-opacity:1;stroke-width:1"
     transform="matrix(0.93137365,0,0,0.93137365,11.568347,11.568346)" /></svg>
