<?xml version="1.0" encoding="UTF-8" standalone="no"?>
<!-- Created with Inkscape (http://www.inkscape.org/) -->

<svg
   width="500"
   height="500"
   viewBox="0 0 132.29166 132.29167"
   version="1.1"
   id="svg5"
   xml:space="preserve"
   xmlns="http://www.w3.org/2000/svg"
   xmlns:svg="http://www.w3.org/2000/svg"><defs
     id="defs2" /><g
     id="layer1"><g
       id="g885"
       transform="matrix(0.92205422,0,0,0.92205422,10.148298,14.089036)"><path
         style="opacity:0.45;fill:#f6c056;fill-opacity:1"
         d="m 3.933577,382.58274 c -1.0746792,-2.42949 -2.3993755,-6.76591 -2.94376957,-9.63649 -1.42589075,-7.51869 -1.334332,-221.69985 0.0981127,-229.51259 1.400168,-7.6367 6.8239237,-17.9554 12.1919349,-23.19517 C 17.851908,115.77567 206.35692,6.2422871 215.49998,2.7357627 c 7.61986,-2.92235317 21.4132,-2.67729531 29.12336,0.5174173 10.41724,4.3163918 196.52328,112.502 200.90628,116.78915 5.25032,5.13553 8.20354,9.95767 6.09834,9.95767 -0.8168,0 -2.07975,0.5815 -2.80653,1.29223 -0.72679,0.71073 -2.78393,1.89032 -4.57143,2.62132 -1.7875,0.731 -3.25,1.67571 -3.25,2.09936 0,0.42365 -1.125,1.05263 -2.5,1.39773 -1.375,0.34511 -2.5,1.09545 -2.5,1.66743 0,0.57198 -0.45,0.76185 -1,0.42193 -0.55,-0.33992 -1,-0.14148 -1,0.44098 0,0.58246 -0.64286,1.05902 -1.42857,1.05902 -0.78572,0 -2.02322,0.5815 -2.75,1.29223 -0.72679,0.71073 -2.78393,1.89032 -4.57143,2.62132 -1.7875,0.731 -3.25,1.67571 -3.25,2.09936 0,0.42365 -1.125,1.05263 -2.5,1.39773 -1.375,0.34511 -2.5,1.09545 -2.5,1.66743 0,0.57198 -0.45,0.76185 -1,0.42193 -0.55,-0.33992 -1,-0.19026 -1,0.33257 0,0.52284 -1.125,1.23297 -2.5,1.57807 -1.375,0.34511 -2.5,1.09545 -2.5,1.66743 0,0.57198 -0.45,0.76185 -1,0.42193 -0.55,-0.33992 -1,-0.14148 -1,0.44098 0,0.58246 -0.64286,1.05902 -1.42857,1.05902 -0.78572,0 -2.02322,0.5815 -2.75,1.29223 -0.72679,0.71073 -2.78393,1.89032 -4.57143,2.62132 -1.7875,0.731 -3.25,1.67571 -3.25,2.09936 0,0.42365 -1.125,1.05263 -2.5,1.39773 -1.375,0.34511 -2.5,1.09545 -2.5,1.66743 0,0.57198 -0.45,0.76185 -1,0.42193 -0.55,-0.33992 -1,-0.14148 -1,0.44098 0,0.58246 -0.60615,1.05902 -1.34699,1.05902 -0.74084,0 -2.3847,0.9 -3.65301,2 -1.26831,1.1 -2.88002,2 -3.58158,2 -0.70156,0 -1.87021,0.5815 -2.59699,1.29223 -0.72679,0.71073 -2.78393,1.89032 -4.57143,2.62132 -1.7875,0.731 -3.25,1.67571 -3.25,2.09936 0,0.42365 -1.125,1.05263 -2.5,1.39773 -1.375,0.34511 -2.5,1.09545 -2.5,1.66743 0,0.57198 -0.45,0.76185 -1,0.42193 -0.55,-0.33992 -1,-0.11199 -1,0.50652 0,0.6185 -2.66033,-2.84244 -5.91185,-7.69099 -22.64377,-33.76557 -56.83028,-56.75503 -97.39974,-65.49857 -13.77421,-2.96862 -44.49339,-3.21895 -58.15213,-0.47387 C 142.20268,119.26771 95.427907,163.16535 80.962863,220.5 c -8.938477,35.42917 -4.873409,73.8555 11.193626,105.81124 l 4.012293,7.98006 -2.73993,2.35435 C 91.92189,337.94054 90.116057,339 89.415889,339 c -0.700167,0 -1.867675,0.5815 -2.59446,1.29223 -0.726786,0.71073 -2.783929,1.89032 -4.571429,2.62132 -1.7875,0.731 -3.25,1.67571 -3.25,2.09936 0,0.42365 -1.125,1.05263 -2.5,1.39773 -1.375,0.34511 -2.5,1.09545 -2.5,1.66743 0,0.57198 -0.45,0.76185 -1,0.42193 -0.55,-0.33992 -1,-0.14148 -1,0.44098 C 72,349.52344 71.393854,350 70.65301,350 c -0.740845,0 -2.384699,0.9 -3.65301,2 -1.268311,1.1 -2.880022,2 -3.581581,2 -0.701559,0 -1.870205,0.5815 -2.59699,1.29223 -0.726786,0.71073 -2.783929,1.89032 -4.571429,2.62132 -1.7875,0.731 -3.25,1.67571 -3.25,2.09936 0,0.42365 -1.125,1.05263 -2.5,1.39773 -1.375,0.34511 -2.5,1.03399 -2.5,1.53086 0,0.49687 -1.575,1.42319 -3.5,2.0585 -1.925,0.63531 -3.5,1.53531 -3.5,2 0,0.46469 -1.575,1.36469 -3.5,2 -1.925,0.63531 -3.5,1.47981 -3.5,1.87666 0,0.39686 -1.575,1.29109 -3.5,1.98718 -1.925,0.69609 -3.5,1.6377 -3.5,2.09248 0,0.45478 -1.125,1.10922 -2.5,1.45432 -1.375,0.34511 -2.5,1.03399 -2.5,1.53086 0,0.49687 -1.575,1.42319 -3.5,2.0585 -1.925,0.63531 -3.5,1.53531 -3.5,2 0,0.46469 -1.575,1.36469 -3.5,2 -1.925,0.63531 -3.5,1.57021 -3.5,2.07755 0,2.4455 -2.3211763,0.45061 -4.066423,-3.49481 z M 118.87244,364.25 c -1.24387,-1.58606 -1.2085,-1.62143 0.37756,-0.37756 0.9625,0.75485 1.75,1.54235 1.75,1.75 0,0.82304 -0.82119,0.29331 -2.12756,-1.37244 z m 41.31517,-75.07346 c -7.81988,-17.17001 -8.76943,-35.83615 -2.78142,-54.67654 7.62152,-23.97994 28.17667,-43.17302 53.65166,-50.09647 8.82461,-2.39831 28.05969,-2.39831 36.8843,0 17.72646,4.8176 35.09605,16.94504 44.35022,30.96531 2.34413,3.55139 2.72435,7.37756 0.60285,6.0664 C 292.40285,221.13094 292,221.35852 292,221.94098 292,222.52344 291.39385,223 290.65301,223 c -0.74084,0 -2.3847,0.9 -3.65301,2 -1.26831,1.1 -2.88002,2 -3.58158,2 -0.70156,0 -1.87021,0.5815 -2.59699,1.29223 -0.72679,0.71073 -2.78393,1.89032 -4.57143,2.62132 -1.7875,0.731 -3.25,1.67571 -3.25,2.09936 0,0.42365 -1.125,1.05263 -2.5,1.39773 -1.375,0.34511 -2.5,1.09545 -2.5,1.66743 0,0.57198 -0.45,0.76185 -1,0.42193 -0.55,-0.33992 -1,-0.14148 -1,0.44098 0,0.58246 -0.64286,1.05902 -1.42857,1.05902 -0.78572,0 -2.02322,0.5815 -2.75,1.29223 -0.72679,0.71073 -2.78393,1.89032 -4.57143,2.62132 -1.7875,0.731 -3.25,1.67571 -3.25,2.09936 0,0.42365 -1.125,1.05263 -2.5,1.39773 -1.375,0.34511 -2.5,1.09545 -2.5,1.66743 0,0.57198 -0.45,0.76185 -1,0.42193 -0.55,-0.33992 -1,-0.19026 -1,0.33257 0,0.52284 -1.125,1.23297 -2.5,1.57807 -1.375,0.34511 -2.5,1.09545 -2.5,1.66743 0,0.57198 -0.45,0.76185 -1,0.42193 -0.55,-0.33992 -1,-0.14148 -1,0.44098 0,0.58246 -0.64286,1.05902 -1.42857,1.05902 -0.78572,0 -2.02322,0.5815 -2.75,1.29223 -0.72679,0.71073 -2.78393,1.89032 -4.57143,2.62132 -1.7875,0.731 -3.25,1.6341 -3.25,2.00688 0,0.37279 -1.575,1.24732 -3.5,1.94341 -1.925,0.69609 -3.5,1.6377 -3.5,2.09248 0,0.45478 -1.125,1.10922 -2.5,1.45432 -1.375,0.34511 -2.5,1.03399 -2.5,1.53086 0,0.49687 -1.575,1.42319 -3.5,2.0585 -1.925,0.63531 -3.5,1.53531 -3.5,2 0,0.46469 -1.575,1.36469 -3.5,2 -1.925,0.63531 -3.5,1.52142 -3.5,1.96914 0,0.44773 -1.125,1.0964 -2.5,1.4415 -1.375,0.34511 -2.5,1.09545 -2.5,1.66743 0,0.57198 -0.45,0.76185 -1,0.42193 -0.55,-0.33992 -1,-0.19026 -1,0.33257 0,0.52284 -1.125,1.23297 -2.5,1.57807 -1.375,0.34511 -2.5,1.03399 -2.5,1.53086 0,0.49687 -1.575,1.42319 -3.5,2.0585 -1.925,0.63531 -3.5,1.53531 -3.5,2 0,0.46469 -1.575,1.36469 -3.5,2 -1.925,0.63531 -3.5,1.57021 -3.5,2.07755 0,0.50735 -0.64286,0.92245 -1.42857,0.92245 -0.78572,0 -2.13572,0.70714 -3,1.57143 -0.86429,0.86428 -1.57832,1.20178 -1.58674,0.75 -0.008,-0.45179 -0.34592,-0.36227 -0.75,0.19892 -0.40408,0.5612 -1.92081,1.54064 -3.37051,2.17654 -2.58256,1.13282 -2.69727,1.02127 -5.67657,-5.52035 z"
         id="path322"
         transform="matrix(0.26458333,0,0,0.26458333,0.00904641,-11.876183)" /><path
         style="opacity:0.7;fill:#f6c056;fill-opacity:1"
         d="m 222.26903,411.30701 c 0.97297,-0.25354 2.32297,-0.23687 3,0.0371 0.67703,0.27393 -0.11903,0.48137 -1.76903,0.46099 -1.65,-0.0204 -2.20394,-0.2445 -1.23097,-0.49804 z m 228.4445,-25.50331 c -0.98257,-1.03216 -2.22007,-1.60868 -2.75,-1.28116 -0.52994,0.32752 -0.96353,0.0439 -0.96353,-0.63019 0,-0.67413 -0.2625,-0.96318 -0.58333,-0.64235 -0.32084,0.32083 -1.46225,-0.29558 -2.53648,-1.36981 -1.07423,-1.07423 -2.38673,-1.68517 -2.91666,-1.35765 C 440.43359,380.85006 440,380.65303 440,380.0847 c 0,-0.56834 -1.35,-1.73145 -3,-2.5847 -1.65,-0.85325 -3,-1.3148 -3,-1.02568 0,0.28912 -0.91641,-0.39073 -2.03647,-1.51079 -1.12007,-1.12007 -2.47007,-1.76851 -3,-1.44099 -0.52994,0.32752 -0.96353,0.0439 -0.96353,-0.63019 0,-0.67413 -0.2625,-0.96318 -0.58333,-0.64235 -0.32084,0.32083 -1.46225,-0.29558 -2.53648,-1.36981 -1.07423,-1.07423 -2.38673,-1.68517 -2.91666,-1.35765 -0.52994,0.32752 -0.96353,0.0439 -0.96353,-0.63019 0,-0.67413 -0.2625,-0.96318 -0.58333,-0.64235 -0.32084,0.32083 -1.46225,-0.29558 -2.53648,-1.36981 -1.07423,-1.07423 -2.38673,-1.68517 -2.91666,-1.35765 C 414.43359,365.85006 414,365.65303 414,365.0847 c 0,-0.56834 -1.35,-1.73145 -3,-2.5847 -1.65,-0.85325 -3,-1.3148 -3,-1.02568 0,0.28912 -0.91641,-0.39073 -2.03647,-1.51079 -1.12007,-1.12007 -2.47007,-1.76851 -3,-1.44099 -0.52994,0.32752 -0.96353,0.0439 -0.96353,-0.63019 0,-0.67413 -0.2625,-0.96318 -0.58333,-0.64235 -0.32084,0.32083 -1.46225,-0.29558 -2.53648,-1.36981 -1.07423,-1.07423 -2.38673,-1.68517 -2.91666,-1.35765 C 395.43359,354.85006 395,354.65303 395,354.0847 c 0,-0.56834 -1.35,-1.73145 -3,-2.5847 -1.65,-0.85325 -3,-1.3148 -3,-1.02568 0,0.28912 -0.91641,-0.39073 -2.03647,-1.51079 -1.12007,-1.12007 -2.47007,-1.76851 -3,-1.44099 -0.52994,0.32752 -0.96353,0.0439 -0.96353,-0.63019 0,-0.67413 -0.2625,-0.96318 -0.58333,-0.64235 -0.32084,0.32083 -1.46225,-0.29558 -2.53648,-1.36981 -1.07423,-1.07423 -2.38673,-1.68517 -2.91666,-1.35765 -0.52994,0.32752 -0.96353,0.0439 -0.96353,-0.63019 0,-0.67413 -0.2625,-0.96318 -0.58333,-0.64235 -0.32084,0.32083 -1.46225,-0.29558 -2.53648,-1.36981 -1.07423,-1.07423 -2.38673,-1.68517 -2.91666,-1.35765 C 369.43359,339.85006 369,339.65303 369,339.0847 c 0,-0.56834 -1.28306,-1.69684 -2.85124,-2.50778 -2.21677,-1.14633 -3.12006,-1.20768 -4.05925,-0.27568 -0.941,0.93381 -1.07184,0.84088 -0.59196,-0.42043 0.48723,-1.28065 -6.4832,-5.7165 -33.33816,-21.2158 -18.6748,-10.77814 -34.52536,-19.7245 -35.22346,-19.88081 -0.69809,-0.15631 -2.11068,-1.08811 -3.13907,-2.07067 -1.0284,-0.98257 -2.3034,-1.51851 -2.83333,-1.19099 -0.52994,0.32752 -0.96353,0.0439 -0.96353,-0.63019 0,-0.67413 -0.2625,-0.96318 -0.58333,-0.64235 -0.32084,0.32083 -1.46225,-0.29558 -2.53648,-1.36981 -1.07423,-1.07423 -2.38673,-1.68517 -2.91666,-1.35765 -0.52994,0.32752 -0.96353,0.0439 -0.96353,-0.63019 0,-0.67413 -0.2625,-0.96318 -0.58333,-0.64235 -0.32084,0.32083 -1.46225,-0.29558 -2.53648,-1.36981 -1.07423,-1.07423 -2.38673,-1.68517 -2.91666,-1.35765 C 272.43359,283.85006 272,283.65303 272,283.0847 c 0,-0.56834 -1.35,-1.73145 -3,-2.5847 -1.65,-0.85325 -3,-1.3148 -3,-1.02568 0,0.28912 -0.91641,-0.39073 -2.03647,-1.51079 -1.12007,-1.12007 -2.47007,-1.76851 -3,-1.44099 -0.52994,0.32752 -0.96353,0.0439 -0.96353,-0.63019 0,-0.67413 -0.2625,-0.96318 -0.58333,-0.64235 -0.32084,0.32083 -1.46225,-0.29558 -2.53648,-1.36981 -1.07423,-1.07423 -2.38673,-1.68517 -2.91666,-1.35765 -0.52994,0.32752 -0.96353,0.0439 -0.96353,-0.63019 0,-0.67413 -0.2625,-0.96318 -0.58333,-0.64235 -0.32084,0.32083 -1.46225,-0.29558 -2.53648,-1.36981 -1.07423,-1.07423 -2.38673,-1.68517 -2.91666,-1.35765 C 246.43359,268.85006 246,268.65303 246,268.0847 c 0,-0.56834 -1.35,-1.73145 -3,-2.5847 -1.65,-0.85325 -3,-1.3148 -3,-1.02568 0,0.28912 -0.91641,-0.39073 -2.03647,-1.51079 -1.12007,-1.12007 -2.47007,-1.76851 -3,-1.44099 C 234.43359,261.85006 234,261.61492 234,261 c 0,-0.61492 -0.40285,-0.86906 -0.89522,-0.56476 -0.49236,0.3043 -1.1529,-0.11825 -1.46785,-0.93899 -0.69455,-1.80999 -3.63183,0.0407 37.36307,-23.54078 31.88524,-18.3413 121.39008,-70.01013 161,-92.94113 10.175,-5.89052 19.49897,-11.2371 20.71994,-11.88128 2.02172,-1.06667 2.39306,-0.83188 4.15896,2.62957 1.06647,2.09045 2.43,6.45669 3.03007,9.70275 1.44697,7.82742 1.52907,221.95186 0.088,229.55055 -0.55166,2.9089 -2.01416,7.3984 -3.25,9.97666 -2.18168,4.55153 -2.2989,4.63322 -4.03345,2.81111 z M 366,275.5 V 267 h 8.5 8.5 v -9 -9 h -8.5 -8.5 v -8.5 -8.5 h -9 -9 v 8.5 8.5 h -8.5 -8.5 v 9 9 h 8.5 8.5 v 8.5 8.5 h 9 9 z m 64,0 V 267 h 8.53893 8.53894 l -0.28894,-8.75 -0.28893,-8.75 -8.2102,-0.2898 -8.2102,-0.2898 -0.2898,-8.2102 L 429.5,232.5 420.75,232.21107 412,231.92213 V 240.46107 249 h -8.5 -8.5 v 9 9 h 8.5 8.5 v 8.5 8.5 h 9 9 z"
         id="path324"
         transform="matrix(0.26458333,0,0,0.26458333,0.00904641,-11.876183)" /><path
         style="fill:#f6c155;fill-opacity:1"
         d="M 217.83552,514.53601 C 213.47534,513.33469 26.30648,406.14441 17.5,399.80528 13.728519,397.09046 7,389.54066 7,388.02364 c 0,-0.79672 88.502425,-52.05745 89.70749,-51.9587 0.43588,0.0357 3.26751,3.90257 6.29251,8.593 3.025,4.69043 9.7155,13.00031 14.86777,18.46641 51.92887,55.09178 134.41525,64.31158 197.62014,22.08871 12.92992,-8.6376 31.81749,-27.33867 40.36161,-39.96306 3.44319,-5.0875 6.51014,-9.25 6.81545,-9.25 1.17538,0 89.33503,51.31144 89.33503,51.99554 0,1.53507 -6.68988,9.06773 -10.5,11.82278 -2.2,1.59079 -47.08318,27.74703 -99.7404,58.12499 -63.3446,36.5435 -97.5201,55.70642 -101,56.6328 -6.41741,1.70837 -16.64292,1.69048 -22.92408,-0.0401 z M 213.5,332.50066 c -19.55369,-4.36809 -35.46143,-15.20925 -47.40739,-32.30824 -1.27094,-1.81916 -2.1492,-3.43295 -1.9517,-3.5862 0.1975,-0.15325 14.30909,-8.30795 31.35909,-18.12155 17.05,-9.81361 31.67948,-18.25311 32.50996,-18.75444 1.11231,-0.67146 10.06628,4.0206 34,17.81669 17.86952,10.30052 32.64592,18.85968 32.83643,19.02037 0.7536,0.63562 -6.4635,10.04941 -11.75791,15.3367 -10.23182,10.21806 -23.94276,17.68565 -37.90513,20.64482 -8.28623,1.75617 -23.71127,1.73273 -31.68335,-0.0482 z"
         id="path326"
         transform="matrix(0.26458333,0,0,0.26458333,0.00904641,-11.876183)" /></g></g></svg>
