<?xml version="1.0" encoding="UTF-8" standalone="no"?>
<svg
   id="Camada_1"
   version="1.1"
   viewBox="0 0 99.999999 99.999998"
   xml:space="preserve"
   width="100"
   height="100"
   sodipodi:docname="gimp.svg"
   inkscape:version="1.2.2 (732a01da63, 2022-12-09)"
   xmlns:inkscape="http://www.inkscape.org/namespaces/inkscape"
   xmlns:sodipodi="http://sodipodi.sourceforge.net/DTD/sodipodi-0.dtd"
   xmlns="http://www.w3.org/2000/svg"
   xmlns:svg="http://www.w3.org/2000/svg"><sodipodi:namedview
     id="namedview184"
     pagecolor="#ffffff"
     bordercolor="#666666"
     borderopacity="1.0"
     inkscape:showpageshadow="2"
     inkscape:pageopacity="0.0"
     inkscape:pagecheckerboard="0"
     inkscape:deskcolor="#d1d1d1"
     showgrid="false"
     inkscape:zoom="5.7226823"
     inkscape:cx="-19.48387"
     inkscape:cy="62.820192"
     inkscape:window-width="2560"
     inkscape:window-height="1373"
     inkscape:window-x="-9"
     inkscape:window-y="-9"
     inkscape:window-maximized="1"
     inkscape:current-layer="Camada_1" /><defs
     id="defs797" /><style
     type="text/css"
     id="style780">
	.st0{fill:#030708;}
	.st1{fill-rule:evenodd;clip-rule:evenodd;fill:#030708;}
</style><g
     id="g792"
     transform="matrix(3.502167,0,0,3.502167,-4.7605414,-7.8863104)"><path
       id="path782"
       class="st0"
       d="M 25.765625,6.2207031 C 25.645508,6.23125 25.5375,6.287891 25.5,6.4003906 24.500004,8.4003826 22.499203,10.900004 18.699219,12 c -0.799996,-0.699996 -1.899614,-1.199219 -3.09961,-1.199219 -1.099996,0 -2.2,0.499223 -3,1.199219 -0.599996,-0.599996 -1.500394,-0.900391 -2.40039,-0.900391 C 9.0992223,10.199613 8.5992172,8.9996058 8.1992188,8.0996094 V 8 c -0.1,-0.2999988 -0.3984376,-0.2003894 -0.3984376,0.099609 v 3.800782 C 7.2007837,12.400387 6.6999992,13.200004 6.5,14 c 0.2999988,0.1 0.5007825,0.3 0.8007812,0.5 0.1999996,-1.499995 1.5000066,-2.599609 2.9999998,-2.599609 0.7,0 1.398438,0.299222 1.898438,0.699218 0.2,0.1 0.401562,0.39961 0.601562,0.59961 0.2,-0.3 0.39961,-0.499219 0.59961,-0.699219 0.599996,-0.599996 1.500394,-0.900391 2.40039,-0.900391 1.599996,0 2.898438,1.000395 3.398438,2.400391 0.1,0.4 0.201172,0.799219 0.201172,1.199219 0,0.2 -0.09961,0.501172 -0.09961,0.701172 -0.299996,1.699992 -1.800004,2.90039 -3.5,2.90039 -1.399992,0 -2.601172,-0.800394 -3.201172,-1.90039 -0.599996,0.599996 -1.398832,1 -2.298828,1 -0.2,0 -0.4015631,-0.09961 -0.6015622,-0.09961 0,0.2 0.1015624,0.39961 0.1015624,0.59961 0.1,0.999996 -0.1003938,2.100394 -0.9003906,2.90039 -0.3999984,0.3 -0.8011734,0.49961 -1.2011718,0.59961 C 9.5992112,23.400383 12.600801,24.5 17.300781,24.5 c 1.899992,0 3.399614,-0.400391 4.59961,-0.900391 -0.8,-0.599996 -1.500004,-1.09961 -2,-1.599609 C 19.500391,21.7 19.2,21.399219 19,21.199219 c -0.1,-0.1 -0.200781,-0.298438 -0.300781,-0.398438 -1.599996,0.799996 -3.498836,1.1 -5.298828,1 h -0.5 c -0.2,-0.1 -0.400391,-0.3 -0.400391,-0.5 0.1,-0.2 0.3,-0.40039 0.5,-0.40039 h 0.5 c 2.099992,0.1 4.100789,-0.400004 5.800781,-1.5 h -0.101562 c -0.3,0 -0.398828,-0.300004 -0.298828,-0.5 0,-0.3 0.3,-0.400782 0.5,-0.300782 0.699996,0.2 1.20039,0.800395 1.40039,1.400391 v 0.199219 c 0.1,0 0.09922,0.101562 0.199219,0.101562 0.699996,0.4 1.699223,0.89961 2.699219,1.59961 2.799988,-3.399988 3.099996,-9.500415 2.5,-15.400391 0,-0.1874992 -0.233399,-0.296875 -0.433594,-0.2792969 z M 10.5,13.400391 c 0.4,0.1 0.699219,0.5 0.699219,1 0,0.599998 -0.500002,1 -1,1 -0.3999998,0 -0.8000007,-0.301174 -1.0000002,-0.701172 v 0.40039 c 0,0.899998 0.8011742,1.701172 1.7011722,1.701172 0.999998,0 1.699218,-0.801174 1.699218,-1.701172 0,-0.999998 -0.79922,-1.699218 -1.699218,-1.699218 z m 5.599609,0.199218 c 0.5,0.1 0.900391,0.59961 0.900391,1.09961 0,0.599997 -0.499219,1.201172 -1.199219,1.201172 -0.599997,0 -1.201172,-0.501175 -1.201172,-1.201172 V 14.5 c -0.199997,0.3 -0.298828,0.699612 -0.298828,1.099609 0.1,1.099997 0.999613,2 2.09961,2 1.099997,0 2,-0.900003 2,-2 0,-1.099997 -0.900003,-2 -2,-2 z M 4.1171875,14.232422 C 3.5822769,14.240796 3.0929676,14.392969 2.6992188,14.699219 1.5992218,15.699216 2.0000045,17.800006 3.5,19.5 c 1.4999955,1.699994 3.5992219,2.199216 4.6992188,1.199219 L 8.5,20.400391 C 8.7999991,20.100391 8.9000003,19.8 9,19.5 9,18.900003 8.8996085,18.199997 8.5996094,17.5 8.39961,17 7.9996082,16.5 7.5996094,16 L 7.3007812,15.699219 c -0.2999991,-0.3 -0.7000007,-0.598831 -1,-0.798828 -0.7312476,-0.45 -1.4958516,-0.678736 -2.1835937,-0.667969 z m -0.125,0.564453 a 1.2457628,1.4237287 0 0 1 1.2441406,1.423828 1.2457628,1.4237287 0 0 1 -1.2441406,1.423828 1.2457628,1.4237287 0 0 1 -1.2460937,-1.423828 1.2457628,1.4237287 0 0 1 1.2460937,-1.423828 z m 15.3007815,5.259766 c -0.05371,0.0049 -0.09375,0.04297 -0.09375,0.04297 v 0.09961 c 0.1,0.1 0.200781,0.200394 0.300781,0.40039 l 0.199219,0.201172 c 0.599996,0.5 1.600785,1.299223 2.800781,2.199219 0.2,0.2 0.499219,0.399613 0.699219,0.599609 1.099996,0.7 2.100394,1.400782 2.90039,1.800782 -0.699996,1.799992 3.09961,1.40039 3.09961,1.40039 0,0 -1.499223,-3.501164 -2.699219,-2.201172 -0.699996,-0.499996 -1.599223,-1.3 -2.699219,-2 -0.2,-0.1 -0.401562,-0.30039 -0.601562,-0.40039 -1.299996,-0.899996 -2.598832,-1.598438 -3.298828,-1.898438 -0.1,0 -0.101172,-0.101562 -0.201172,-0.101562 -0.1,0 -0.198828,-0.09961 -0.298828,-0.09961 -0.0375,-0.0375 -0.0752,-0.0459 -0.107422,-0.04297 z"
       style="fill:#f6c056;fill-opacity:1" /></g></svg>
