<?xml version="1.0" encoding="UTF-8" standalone="no"?>
<!-- Created with Inkscape (http://www.inkscape.org/) -->

<svg
   width="500"
   height="500"
   viewBox="0 0 132.29166 132.29167"
   version="1.1"
   id="svg5"
   xml:space="preserve"
   xmlns="http://www.w3.org/2000/svg"
   xmlns:svg="http://www.w3.org/2000/svg"><defs
     id="defs2" /><g
     id="layer1"><path
       style="fill:#f6c156;fill-opacity:1"
       d="m 183.88507,381.62038 c -1.98821,-0.71051 -4.91321,-2.23601 -6.5,-3.39001 -1.58679,-1.154 -41.41936,-40.71542 -88.516819,-87.91427 C -5.9393623,195.30438 -0.83471162,201.14197 0.26690059,188.9932 0.61637627,185.13912 1.7140266,181.48207 3.3414817,178.74961 4.733568,176.41232 32.001305,148.40137 63.936454,116.50305 l 58.063906,-57.996944 21.62808,21.628078 21.62807,21.628076 -1.25447,5.22924 c -1.60077,6.67274 -0.77815,13.54341 2.36393,19.744 2.60733,5.14533 8.95421,11.59657 12.52349,12.72941 L 181,140.13478 v 52.85105 52.85105 l -3.47106,2.14524 c -20.37843,12.59456 -18.55014,41.79378 3.24157,51.77036 4.70684,2.15486 6.47778,2.43074 13.08649,2.03866 8.48356,-0.50331 12.18687,-2.0291 18.27515,-7.5295 13.38402,-12.09165 12.08929,-34.09812 -2.61596,-44.46333 L 205,246.615 v -52.04812 -52.04813 l 20.01045,19.99063 c 14.05372,14.0398 19.81483,20.43714 19.35333,21.49062 -0.36141,0.825 -0.86591,4.27143 -1.12113,7.65872 -0.62169,8.25141 1.67839,14.92491 7.2984,21.17571 11.64,12.94649 31.26804,12.95745 42.89635,0.024 10.16823,-11.30952 10.16823,-27.40728 0,-38.7168 -6.87738,-7.6493 -18.43738,-11.61741 -26.97219,-9.25853 L 262.5,165.97898 241.24996,144.74817 c -21.24879,-21.22955 -21.25,-21.23102 -20.50089,-24.73949 C 225.16791,99.312895 206.15766,80.621716 185.5,85.35124 c -2.85848,0.654443 -4.03734,-0.351798 -24.99053,-21.33125 l -21.99053,-22.018093 17.99053,-18.06759 c 9.89479,-9.937175 19.90285,-19.205258 22.24014,-20.5957409 2.72911,-1.6235883 6.39423,-2.7226181 10.24359,-3.07166551 12.15181,-1.10188782 6.25963,-6.25792989 101.82239,89.10132141 47.47358,47.372478 87.4414,88.023058 88.81739,90.334618 3.40226,5.71557 4.11762,13.47629 1.88138,20.41041 -1.65574,5.1341 -5.82424,9.47331 -88.87579,92.51537 -79.72454,79.71543 -87.55787,87.26656 -92.06671,88.75 -5.86177,1.92855 -11.72879,2.01355 -16.68679,0.24176 z"
       id="path191"
       transform="matrix(0.32810468,0,0,0.32810468,3.370971,3.3564281)" /></g></svg>
