<?xml version="1.0" encoding="UTF-8" standalone="no"?>
<svg
   viewBox="0 0 500.00001 500.00001"
   version="1.1"
   id="svg185"
   sodipodi:docname="inkscape.svg"
   inkscape:version="1.2.2 (732a01da63, 2022-12-09)"
   width="500"
   height="500"
   xmlns:inkscape="http://www.inkscape.org/namespaces/inkscape"
   xmlns:sodipodi="http://sodipodi.sourceforge.net/DTD/sodipodi-0.dtd"
   xmlns="http://www.w3.org/2000/svg"
   xmlns:svg="http://www.w3.org/2000/svg">
  <defs
     id="defs189" />
  <sodipodi:namedview
     id="namedview187"
     pagecolor="#ffffff"
     bordercolor="#666666"
     borderopacity="1.0"
     inkscape:showpageshadow="2"
     inkscape:pageopacity="0.0"
     inkscape:pagecheckerboard="0"
     inkscape:deskcolor="#d1d1d1"
     showgrid="false"
     inkscape:zoom="0.94399971"
     inkscape:cx="-112.81783"
     inkscape:cy="126.58902"
     inkscape:window-width="2560"
     inkscape:window-height="1373"
     inkscape:window-x="-9"
     inkscape:window-y="-9"
     inkscape:window-maximized="1"
     inkscape:current-layer="svg185" />
  <!--! Font Awesome Pro 6.3.0 by @fontawesome - https://fontawesome.com License - https://fontawesome.com/license (Commercial License) Copyright 2023 Fonticons, Inc. -->
  <path
     d="M 124.51101,6.4626466e-5 C 116.67782,-0.01563537 108.9216,2.8291746 103.30036,8.5826746 L 9.7811011,104.28013 c -31.5973201,39.12941 21.5034199,34.57736 44.2668499,45.84771 8.1656,8.34657 -31.29701,14.50739 -23.13141,22.86094 8.16561,8.34659 49.37636,16.08074 57.55588,24.42733 8.1656,8.34659 -16.71494,17.20021 -8.54934,25.5468 8.16557,8.34658 27.052409,0.43903 30.588759,19.70791 2.51997,13.76943 34.03391,5.91713 49.44621,-5.36016 8.1656,-8.35355 -15.62151,-7.56611 -7.45591,-15.9127 20.30609,-20.76553 39.21276,-7.54685 46.16013,-28.35416 3.4319,-10.28181 -29.89062,-15.85077 -21.7111,-24.19736 23.49435,-13.7207 104.69672,-22.65256 66.16597,-61.18331 L 146.18161,8.5826746 C 140.25407,2.8918246 132.34421,0.01572463 124.51101,6.4626466e-5 Z M 125.35134,9.1062546 c 5.59252,0.0295 11.16478,2.1220904 15.17795,6.1874604 l 36.99897,37.57751 c 3.5085,3.58508 3.46003,10.53182 1.49697,12.52969 l -18.37149,-14.69487 -3.61296,21.76027 -15.34863,-8.10243 -24.58064,15.53086 -8.13859,-32.73948 -13.205129,22.84793 h -20.18809 c -8.22825,0 -9.19613,-10.44237 -1.71971,-17.91878 13.05937,-14.09661 28.047199,-28.465 36.191909,-36.7907 4.09325,-4.18372 9.70692,-6.2170504 15.29944,-6.1874604 z M 80.919611,155.3072 c 2.49911,1.55236 40.298239,9.23077 49.535889,10.76226 3.20219,0.67525 0.93355,3.97431 -3.47991,6.20193 -9.95466,2.6453 -58.238249,-16.96419 -46.055979,-16.96419 z m 146.971849,26.30324 c -7.60522,0.26192 -15.1035,4.14837 -17.17101,11.43336 0,4.74759 34.97987,7.85916 34.97987,-1.12091 -2.49216,-7.2119 -10.20365,-10.57436 -17.80886,-10.31245 z M 66.072871,202.20351 c -10.60044,0.56315 -21.97422,8.2344 -12.92888,16.0689 8.28394,7.16318 21.07906,-1.78261 24.91474,-11.77904 -2.50824,-3.33271 -7.16749,-4.54583 -11.98586,-4.28986 z m 140.260809,0.593 c -10.67861,9.57874 1.19861,19.29684 11.72408,13.10823 2.34596,-2.38075 -0.0639,-10.72746 -11.72408,-13.10823 z"
     id="path183"
     style="fill:#f6c155;fill-opacity:1"
     transform="matrix(1.875007,0,0,1.875007,12.499999,15.624132)" />
</svg>
