<?xml version="1.0" encoding="UTF-8" standalone="no"?>
<svg
   viewBox="0 0 500 500"
   version="1.1"
   id="svg4"
   sodipodi:docname="latex.svg"
   inkscape:version="1.2.2 (732a01da63, 2022-12-09)"
   width="500"
   height="500"
   xmlns:inkscape="http://www.inkscape.org/namespaces/inkscape"
   xmlns:sodipodi="http://sodipodi.sourceforge.net/DTD/sodipodi-0.dtd"
   xmlns="http://www.w3.org/2000/svg"
   xmlns:svg="http://www.w3.org/2000/svg">
  <defs
     id="defs8" />
  <sodipodi:namedview
     id="namedview6"
     pagecolor="#ffffff"
     bordercolor="#666666"
     borderopacity="1.0"
     inkscape:showpageshadow="2"
     inkscape:pageopacity="0.0"
     inkscape:pagecheckerboard="0"
     inkscape:deskcolor="#d1d1d1"
     showgrid="false"
     inkscape:zoom="1.14402"
     inkscape:cx="65.558294"
     inkscape:cy="246.06213"
     inkscape:window-width="1828"
     inkscape:window-height="1117"
     inkscape:window-x="456"
     inkscape:window-y="87"
     inkscape:window-maximized="0"
     inkscape:current-layer="svg4" />
  <!--! Font Awesome Pro 6.3.0 by @fontawesome - https://fontawesome.com License - https://fontawesome.com/license (Commercial License) Copyright 2023 Fonticons, Inc. -->
  <path
     d="m 117.1616,32.144329 c -12.72648,-0.08965 -25.701582,0.346563 -26.350008,1.395759 -0.453926,0.734312 1.611297,1.700263 4.686151,2.1918 3.023632,0.483539 6.818377,1.948235 8.432387,3.254085 2.89178,2.339705 2.94126,2.999928 3.36434,45.008548 0.23616,23.448789 0.0422,45.238259 -0.43164,48.421299 -1.08763,7.31091 -4.62176,10.95095 -10.632246,10.95095 -4.506401,0 -6.884077,1.45273 -5.175606,3.16128 0.471,0.47085 20.552382,0.85655 44.625322,0.85655 h 43.76877 l 4.88382,-15.23233 c 5.41938,-16.90633 5.41883,-16.90509 3.56605,-16.90509 -0.72413,0 -2.78144,2.8902 -4.57186,6.42345 -4.18146,8.25174 -10.78029,14.66924 -16.80559,16.34303 -2.61624,0.72661 -12.42522,1.32164 -21.79834,1.32853 -16.48082,0.007 -17.11119,-0.0972 -19.13319,-3.18282 -1.81087,-2.76494 -2.03832,-9.28067 -1.7037,-48.828741 0.43754,-51.734051 -0.0141,-49.699448 11.30996,-51.023224 3.44778,-0.403002 6.5182,-1.486487 6.82282,-2.406947 0.34759,-1.051391 -12.13096,-1.666484 -24.85744,-1.756129 z m 97.49344,0.08203 -0.008,4.351327 c -0.004,2.393468 -0.40094,8.501781 -0.87941,13.573025 -1.04785,11.096967 1.23897,11.85148 4.71034,1.55443 3.34058,-9.90841 7.09958,-12.016243 22.43301,-12.579319 l 12.67345,-0.465253 -0.38322,49.794203 -0.3819,49.795548 -3.16131,2.55753 c -1.73856,1.40739 -5.20348,2.55892 -7.69952,2.55892 -3.14126,0 -4.53825,0.61865 -4.53825,2.00892 h -0.003 c 0,1.71083 3.57123,2.00757 24.10307,2.00757 20.53184,0 24.10309,-0.29667 24.10309,-2.00757 0,-1.39007 -1.39684,-2.00892 -4.53823,-2.00892 -2.49605,0 -5.96096,-1.15161 -7.69956,-2.55892 l -3.1613,-2.55753 -0.39667,-49.665115 -0.39666,-49.663772 h 10.8178 c 6.16335,0 12.7173,0.794225 15.23502,1.846223 5.53328,2.311931 9.89498,7.752618 11.01952,13.746485 0.47779,2.547548 1.54195,4.384492 2.37869,4.105256 0.83216,-0.277617 1.4566,-1.207589 1.37963,-2.066747 -0.0739,-0.859234 -0.22329,-6.683696 -0.33482,-12.943723 l -0.20064,-11.382568 h -47.53649 z m 183.44962,0 c -16.61446,0 -26.78029,0.498886 -26.78029,1.313734 0,0.722395 1.6565,1.674194 3.68168,2.1165 7.42952,1.621924 10.75807,3.549374 16.75047,9.700396 6.07693,6.237942 31.79051,42.53384 31.79051,44.874083 0,1.990459 -28.85007,37.503598 -35.28799,43.437988 -3.26166,3.00644 -9.00899,6.55939 -12.7716,7.89585 -3.76252,1.33626 -6.84164,2.8906 -6.84164,3.45445 0,0.56397 2.97821,1.02596 6.61708,1.02596 3.63897,0 6.91828,0.48683 7.28672,1.08381 1.02699,1.66175 -8.71067,13.86734 -13.79892,17.29638 -4.17632,2.81433 -5.96643,3.04433 -23.68892,3.04433 -17.58314,0 -19.28588,-0.21567 -20.5572,-2.59117 -0.7916,-1.47862 -1.38635,-11.86617 -1.38635,-24.20797 v -21.61947 l 17.2722,0.44104 c 19.6939,0.50308 22.31723,1.68605 23.76017,10.71024 0.48873,3.0566 1.56383,5.12989 2.65842,5.12989 1.46898,0 1.8368,-3.73876 1.8368,-18.6666 0,-11.0879 -0.54773,-19.007032 -1.34869,-19.501647 -1.39422,-0.861624 -1.87262,0.07948 -3.25947,6.400597 -0.44853,2.044 -2.0057,4.90601 -3.45983,6.36024 -2.36148,2.36162 -4.50432,2.64362 -20.05159,2.64362 H 323.11821 V 91.144093 69.719583 h 20.65267 c 20.23189,0 20.73602,0.06987 24.74719,3.445025 2.32134,1.953318 4.70161,5.698209 5.49563,8.647525 2.63048,9.768578 4.12814,7.506593 3.72202,-5.620689 L 377.34981,63.694148 H 334.8356 c -27.43164,0 -42.52729,0.47528 -42.54244,1.339283 -0.0155,0.736544 2.24391,1.533803 5.02098,1.772268 10.09298,0.866848 9.73671,-1.039166 9.73671,51.920121 v 47.25279 l -3.0134,2.11784 c -1.65707,1.16454 -5.26181,2.47828 -8.01016,2.92061 -2.7466,0.44186 -4.66736,1.33081 -4.27198,1.97532 0.39827,0.64418 19.82016,1.17135 43.15963,1.16447 l 42.43487,-0.007 4.787,-13.71825 4.78565,-13.71691 11.61787,-0.38727 c 12.41387,-0.41349 14.72588,-1.72027 6.59559,-3.72874 -4.27263,-1.0555 -5.07654,-1.83927 -5.39345,-5.25763 -0.30829,-3.32837 2.0803,-7.17606 13.93609,-22.44108 7.86986,-10.13288 14.44303,-18.267075 14.60303,-18.076301 4.3944,5.182241 24.72431,37.851801 24.72431,39.730751 0,2.9653 -4.70483,6.81207 -8.33153,6.81207 -1.30932,0 -2.3814,0.60318 -2.3814,1.33928 0,0.84288 8.92731,1.33927 24.10308,1.33927 13.25649,0 24.10308,-0.50821 24.10308,-1.12817 0,-0.61988 -2.36952,-1.83644 -5.26569,-2.70411 -3.37809,-1.01218 -7.18671,-3.75955 -10.62284,-7.66323 -6.09452,-6.92373 -34.99484,-49.215596 -34.99484,-51.210138 0,-2.567236 29.91721,-39.378092 34.9908,-43.05341 2.84156,-2.058397 7.27915,-4.13833 9.86041,-4.622948 2.58114,-0.484303 4.69288,-1.455102 4.69288,-2.158185 0,-0.756852 -8.46754,-1.278773 -20.75487,-1.278773 -19.52235,0 -26.11521,1.271497 -16.53128,3.188194 11.10715,2.221544 10.39408,6.362355 -4.30159,24.97173 -6.67087,8.447499 -12.54613,15.498007 -13.05532,15.66801 -1.02692,0.34254 -17.90152,-24.998979 -20.4335,-30.686548 -2.24783,-5.049399 -0.89286,-7.383872 5.37596,-9.262035 2.98473,-0.894381 5.42707,-2.132519 5.42707,-2.752524 0,-0.620157 -12.0522,-1.126827 -26.78166,-1.126827 z m -211.03404,0.400708 c -0.72537,-0.241768 -9.35846,18.270058 -19.1843,41.135922 -17.50582,40.737771 -20.94317,46.839971 -26.38767,46.839971 -1.00538,0 -1.82873,0.60315 -1.82873,1.33929 0,0.80738 5.57914,1.33928 14.05979,1.33928 8.48057,0 14.06114,-0.53174 14.06114,-1.33928 1e-5,-0.73684 -1.46413,-1.33929 -3.25274,-1.33929 -3.02054,0 -7.44788,-3.03057 -7.47094,-5.11644 -0.005,-0.4997 1.9116,-5.57946 4.26123,-11.2871 l 4.27199,-10.376755 h 17.23723 17.23723 l 3.34821,7.571785 c 5.80131,13.1179 5.51589,19.20851 -0.90225,19.20851 -1.33935,0 -2.80809,0.60315 -3.26353,1.33929 -0.53618,0.86739 5.56549,1.33928 17.32869,1.33928 11.21138,0 18.15564,-0.5125 18.15564,-1.33928 0,-0.73684 -1.17154,-1.33929 -2.60327,-1.33929 -6.15888,0 -9.37346,-5.64674 -26.64046,-46.780808 -9.40927,-22.41532 -17.7019,-40.952776 -18.42726,-41.19509 z m -3.76372,21.365345 c 0.18368,0.183697 3.64665,8.01555 7.69552,17.403969 l 7.36203,17.070493 H 183.20202 168.0396 l 7.46693,-17.405313 c 4.10683,-9.572193 7.61731,-17.252996 7.80037,-17.069149 z"
     id="path2"
     style="fill:#f6c056;fill-opacity:1;stroke-width:0.688468"
     transform="matrix(1.1875035,0,0,1.1875035,-94.96916,127.51505)" />
</svg>
