<?xml version="1.0" encoding="UTF-8" standalone="no"?>
<!-- Generator: Adobe Illustrator 16.0.0, SVG Export Plug-In . SVG Version: 6.00 Build 0)  -->

<svg
   version="1.1"
   id="Capa_1"
   x="0px"
   y="0px"
   width="500"
   height="500"
   viewBox="0 0 500 500"
   xml:space="preserve"
   sodipodi:docname="libreoffice.svg"
   inkscape:version="1.2.2 (732a01da63, 2022-12-09)"
   xmlns:inkscape="http://www.inkscape.org/namespaces/inkscape"
   xmlns:sodipodi="http://sodipodi.sourceforge.net/DTD/sodipodi-0.dtd"
   xmlns="http://www.w3.org/2000/svg"
   xmlns:svg="http://www.w3.org/2000/svg"><sodipodi:namedview
   id="namedview205"
   pagecolor="#ffffff"
   bordercolor="#666666"
   borderopacity="1.0"
   inkscape:showpageshadow="2"
   inkscape:pageopacity="0.0"
   inkscape:pagecheckerboard="0"
   inkscape:deskcolor="#d1d1d1"
   showgrid="false"
   inkscape:zoom="0.4609375"
   inkscape:cx="-11.932203"
   inkscape:cy="257.08475"
   inkscape:window-width="2560"
   inkscape:window-height="1373"
   inkscape:window-x="-9"
   inkscape:window-y="-9"
   inkscape:window-maximized="1"
   inkscape:current-layer="Capa_1" /><defs
   id="defs39" />
<path
   id="path2"
   d="M 64.75,1 C 55.984384,1 48.8125,8.1718838 48.8125,16.9375 v 478.125 C 48.8125,503.82812 55.984384,511 64.75,511 h 382.5 c 8.76661,0 15.9375,-7.17188 15.9375,-15.9375 v -286.875 c 0,-8.76562 -5.07262,-21.00813 -11.26831,-27.20581 L 283.20581,12.270256 C 277.00912,6.0725669 264.76562,1 256,1 Z m 286.875,0 c -8.76661,0 -10.86488,5.0706214 -4.66919,11.268311 L 451.91725,117.22975 c 6.19868,6.19868 11.27025,4.09837 11.27025,-4.66725 V 16.9375 C 463.1875,8.1718838 456.01661,1 447.25,1 Z M 80.6875,32.875 h 174.89227 c 1.4523,0.239063 4.18883,1.370906 5.38514,2.229538 L 429.08296,203.22259 c 0.85764,1.19631 1.98854,3.93284 2.2276,5.38514 V 479.125 H 80.6875 Z"
   style="fill:#f6c256;fill-opacity:1;stroke-width:0.999998"
   transform="matrix(0.93137255,0,0,0.93137255,11.568627,11.568627)" />















</svg>
