<?xml version="1.0" encoding="UTF-8" standalone="no"?>
<svg
   width="500pt"
   height="500pt"
   version="1.1"
   viewBox="0 0 500 500"
   id="svg187"
   sodipodi:docname="line_chart.svg"
   inkscape:version="1.2.2 (732a01da63, 2022-12-09)"
   xmlns:inkscape="http://www.inkscape.org/namespaces/inkscape"
   xmlns:sodipodi="http://sodipodi.sourceforge.net/DTD/sodipodi-0.dtd"
   xmlns="http://www.w3.org/2000/svg"
   xmlns:svg="http://www.w3.org/2000/svg">
  <sodipodi:namedview
     id="namedview5"
     pagecolor="#ffffff"
     bordercolor="#666666"
     borderopacity="1.0"
     inkscape:showpageshadow="2"
     inkscape:pageopacity="0.0"
     inkscape:pagecheckerboard="0"
     inkscape:deskcolor="#d1d1d1"
     inkscape:document-units="pt"
     showgrid="false"
     inkscape:zoom="0.75858042"
     inkscape:cx="-210.26116"
     inkscape:cy="393.49816"
     inkscape:window-width="2560"
     inkscape:window-height="1373"
     inkscape:window-x="-9"
     inkscape:window-y="-9"
     inkscape:window-maximized="1"
     inkscape:current-layer="svg187" />
  <defs
     id="defs71" />
  <path
     id="path73-3"
     d="m 23.3291,0 v 424.66992 h 9.33252 V 381.2959 l 78.44824,-161.96485 c -2.96879,-1.0781 -5.73047,-2.65519 -8.16797,-4.66699 L 32.66162,360.04834 V 0 Z M 0,64.72119 v 9.332519 H 13.99951 V 64.72119 Z m 346.82373,78.54931 c -0.72316,0.008 -1.45068,0.0586 -2.17676,0.15235 -5.81249,0.75 -10.93265,4.17973 -13.83105,9.26953 -0.61719,1.0781 -1.12207,2.22363 -1.49707,3.40723 -1.6953,5.15599 -1.06155,10.79594 1.73144,15.44824 2.797,4.65229 7.47995,7.85986 12.82764,8.78174 5.35119,0.9218 10.83644,-0.52786 15.02783,-3.97705 0.7226,-0.5625 1.39356,-1.18799 2.00684,-1.86768 1.4883,-1.5898 2.67676,-3.44144 3.50097,-5.46094 0.3711,-0.9063 0.66749,-1.84326 0.88623,-2.79638 0.0274,-0.50001 0.0274,-0.99561 0,-1.49561 h 0.1875 c 0.8789,-5.78899 -1.01557,-11.66065 -5.10937,-15.84814 -3.58487,-3.66406 -8.49206,-5.67118 -13.5542,-5.61329 z m -226.77832,30.76905 c -2.4221,-0.0541 -4.86916,0.36181 -7.19971,1.27002 -6.21499,2.42599 -10.66407,7.9814 -11.67187,14.57519 -0.0117,0.18359 -0.0117,0.37061 0,0.55811 -0.7656,6.27299 1.69234,12.50732 6.53613,16.56592 2.5156,2.13669 5.56153,3.55907 8.81543,4.10595 h 0.5625 c 4.2149,0.6446 8.52734,-0.17631 12.21094,-2.3247 3.68359,-2.1485 6.52396,-5.49608 8.04346,-9.48047 0.4726,-1.2383 0.81591,-2.51904 1.02685,-3.82764 l -0.28125,0.0469 c 1.0078,-6.594 -1.57816,-13.22313 -6.78516,-17.39502 -3.25187,-2.60744 -7.22048,-4.00415 -11.25732,-4.09424 z m 249.32373,3.2915 -0.28125,0.65332 c -1.6992,2.2148 -3.73004,4.14839 -6.01904,5.74219 l 42,42.46436 c 1.6602,-2.4883 3.70652,-4.69195 6.06592,-6.53174 z M 324.13916,178.31103 244.47949,252 l 5.64844,7.28027 80.45361,-74.66748 c -2.47269,-1.7383 -4.64938,-3.8667 -6.44238,-6.30029 z m -179.47998,27.62989 c -1.543,2.61329 -3.49557,4.96141 -5.78467,6.95361 l 62.53125,48.11279 c 1.4062,-2.6055 3.21879,-4.96782 5.36719,-6.99902 z M 0,207.66211 v 9.33105 h 13.99951 v -9.33105 z m 428.77588,15.35302 c -7.2746,-0.0976 -14.24563,4.08839 -17.354,11.16651 -4.1402,9.44199 0.15137,20.45316 9.58886,24.59765 9.44199,4.1402 20.45463,-0.15284 24.59912,-9.59033 4.1442,-9.44199 -0.15284,-20.45316 -9.59033,-24.59765 -2.3605,-1.03605 -4.81879,-1.54366 -7.24365,-1.57618 z m -203.06983,33.27979 c -1.20371,-0.005 -2.41699,0.10547 -3.62402,0.33838 -6.43749,1.242 -11.75488,5.77096 -14.00098,11.93115 v 0.51123 c -2.49999,6.19599 -1.50733,13.25003 2.60596,18.51563 4.113,5.26169 10.72313,7.93017 17.33643,7.00048 6.61669,-0.934 12.229,-5.3213 14.729,-11.5166 0.36719,-0.8906 0.66504,-1.81249 0.8877,-2.7539 l -0.1875,0.14062 c 1.93359,-6.26599 0.437,-13.08595 -3.9419,-17.96484 -3.55468,-3.9673 -8.58858,-6.17872 -13.80469,-6.20215 z M 0,350.60156 v 9.33252 h 13.99951 v -9.33252 z m 0,83.39941 v 9.33252 h 466.65967 v -9.33252 H 42 Z m 23.3291,18.66065 v 13.99951 h 9.33252 v -13.99951 z m 83.39063,0 v 13.99951 h 9.33252 v -13.99951 z m 142.93945,0 v 13.99951 h 9.33252 v -13.99951 z m 142.94092,0 v 13.99951 h 9.33105 v -13.99951 z"
     style="fill:#f6c156;fill-opacity:1;stroke:#f6c155;stroke-width:5;stroke-dasharray:none;stroke-opacity:1"
     transform="matrix(1.007079,0,0,1.007079,15.018423,15.017688)" />
</svg>
