<?xml version="1.0" encoding="UTF-8" standalone="no"?>
<svg
   fill="none"
   height="100"
   viewBox="0 0 100 99.999999"
   width="100"
   version="1.1"
   id="svg4"
   sodipodi:docname="notion.svg"
   inkscape:version="1.2.2 (732a01da63, 2022-12-09)"
   xmlns:inkscape="http://www.inkscape.org/namespaces/inkscape"
   xmlns:sodipodi="http://sodipodi.sourceforge.net/DTD/sodipodi-0.dtd"
   xmlns="http://www.w3.org/2000/svg"
   xmlns:svg="http://www.w3.org/2000/svg">
  <sodipodi:namedview
     id="namedview184"
     pagecolor="#ffffff"
     bordercolor="#666666"
     borderopacity="1.0"
     inkscape:showpageshadow="2"
     inkscape:pageopacity="0.0"
     inkscape:pagecheckerboard="0"
     inkscape:deskcolor="#d1d1d1"
     showgrid="false"
     inkscape:zoom="6.1802987"
     inkscape:cx="-27.749468"
     inkscape:cy="12.378043"
     inkscape:window-width="2560"
     inkscape:window-height="1373"
     inkscape:window-x="-9"
     inkscape:window-y="-9"
     inkscape:window-maximized="1"
     inkscape:current-layer="svg4" />
  <defs
     id="defs8" />
  <path
     id="path2"
     style="fill:#f6c156;fill-opacity:1"
     d="M 8.8769532,1.0803454e-5 C 8.7164569,-4.1103655e-4 8.5306385,0.01154707 8.3007813,0.0312608 L 0.8125,0.582042 C 0.2088006,0.634332 0,1.0278513 0,1.5000108 v 8.189453 c 0,0.3679002 0.1299528,0.6812632 0.4453125,1.1015632 l 1.7597657,2.285156 c 0.2890797,0.3677 0.5515061,0.446222 1.1035156,0.419922 l 8.6953122,-0.525391 c 0.735399,-0.0522 0.945312,-0.393404 0.945312,-0.970703 V 2.7871202 c 0,-0.3148797 -0.130991,-0.3947441 -0.52539,-0.6835938 L 10.033203,0.4238389 C 9.5997784,0.10901399 9.3584414,0.00127633 8.8769532,1.0803454e-5 Z M 8.8281252,0.7578233 c 0.4681772,0.00752 0.7364222,0.1889245 0.9433592,0.3496094 l 1.2343746,0.8925781 c 0.0525,0.02614 0.18299,0.1835938 0.02539,0.1835938 L 3.5976563,2.628917 C 2.8091971,2.681517 2.6523215,2.708318 2.2324219,2.3671983 L 1.2070313,1.5527452 C 1.1024814,1.4475353 1.155479,1.3170564 1.4179688,1.2910264 L 8.6152344,0.7656358 c 0.075496,-0.00658 0.1460082,-0.00889 0.2128906,-0.00781 z m 2.8085928,2.3183594 c 0.2896,-0.02624 0.419922,0.1571372 0.419922,0.4980469 v 7.7675784 c 0,0.3414 -0.05239,0.632203 -0.52539,0.658203 l -8.1699218,0.472656 c -0.4727796,0.026 -0.6835938,-0.132435 -0.6835938,-0.552734 V 4.0996202 c 0,-0.3411397 0.1068353,-0.4989207 0.421875,-0.5253906 z M 10.74414,4.519542 8.9296875,4.6250108 C 8.6669778,4.6510408 8.4573257,4.8593886 8.5097656,5.1484483 l 0.6835938,0.080078 V 8.8496202 L 6.5136719,4.7558702 4.5703125,4.8867296 C 4.2023029,4.9131995 4.070397,5.2537854 4.1230469,5.4902452 l 0.65625,0.052734 v 5.1699228 l -0.4726563,0.130859 c -0.1837998,0.0526 -0.2362336,0.314822 -0.1835937,0.419922 l 1.8125,-0.103516 c 0.6572993,0 0.65625,-0.472656 0.65625,-0.472656 L 5.7773438,10.503917 V 6.5918077 l 2.5761718,4.0429693 c 0.3149297,0.393499 0.4193942,0.52539 0.8398438,0.52539 0.2626,0 0.578122,-0.105362 0.9199216,-0.289062 V 5.0957139 l 0.392578,-0.078125 c 0.2369,-0.02657 0.290681,-0.2615871 0.238281,-0.4980469 z"
     transform="matrix(7.0366515,0,0,7.0366515,4.4404329,2.5)" />
</svg>
