<?xml version="1.0" encoding="UTF-8" standalone="no"?>
<!-- Created with Inkscape (http://www.inkscape.org/) -->

<svg
   width="100"
   height="100"
   viewBox="0 0 26.458332 26.458334"
   version="1.1"
   id="svg5"
   sodipodi:docname="permutation.svg"
   inkscape:version="1.2.2 (732a01da63, 2022-12-09)"
   xmlns:inkscape="http://www.inkscape.org/namespaces/inkscape"
   xmlns:sodipodi="http://sodipodi.sourceforge.net/DTD/sodipodi-0.dtd"
   xmlns="http://www.w3.org/2000/svg"
   xmlns:svg="http://www.w3.org/2000/svg">
  <sodipodi:namedview
     id="namedview307"
     pagecolor="#ffffff"
     bordercolor="#666666"
     borderopacity="1.0"
     inkscape:showpageshadow="2"
     inkscape:pageopacity="0.0"
     inkscape:pagecheckerboard="0"
     inkscape:deskcolor="#d1d1d1"
     showgrid="false"
     inkscape:zoom="4.72"
     inkscape:cx="40.148305"
     inkscape:cy="40.36017"
     inkscape:window-width="2560"
     inkscape:window-height="1373"
     inkscape:window-x="-9"
     inkscape:window-y="-9"
     inkscape:window-maximized="1"
     inkscape:current-layer="svg5" />
  <defs
     id="defs2" />
  <g
     id="layer1"
     style="display:inline;fill:#f6c156;fill-opacity:1">
    <path
       id="path3587"
       style="color:#000000;fill:#f6c156;fill-rule:evenodd;-inkscape-stroke:none;fill-opacity:1"
       d="m 44.318225,1.984375 c -5.727049,0 -10.384379,4.6578482 -10.384379,10.384896 0,5.727045 4.65733,10.382828 10.384379,10.382828 5.727045,0 10.382828,-4.655783 10.382828,-10.382828 0,-5.7270478 -4.655783,-10.384896 -10.382828,-10.384896 z m 21.828124,0 c -5.727045,0 -10.384379,4.6578482 -10.384379,10.384896 0,5.727045 4.657334,10.382828 10.384379,10.382828 5.727049,0 10.382829,-4.655783 10.382829,-10.382828 0,-5.7270478 -4.65578,-10.384896 -10.382829,-10.384896 z m 21.828125,0 c -5.727051,0 -10.384379,4.6578428 -10.384379,10.384896 0,5.727051 4.657328,10.382828 10.384379,10.382828 5.727051,0 10.382829,-4.655777 10.382829,-10.382828 0,-5.7270532 -4.655778,-10.384896 -10.382829,-10.384896 z m 0,1.3223999 c 5.012096,0 9.060429,4.0503991 9.060429,9.0624961 0,5.012095 -4.048333,9.060428 -9.060429,9.060428 -5.012095,0 -9.062496,-4.048333 -9.062496,-9.060428 0,-5.012097 4.050401,-9.0624961 9.062496,-9.0624961 z M 65.538118,3.3274459 57.104524,11.76259 c 0.298048,-4.5270539 3.906774,-8.1362469 8.433594,-8.4351441 z m 1.478462,0.020671 c 0.835844,0.079306 1.638065,0.2716217 2.391586,0.5617228 L 57.687434,15.63057 C 57.39723,14.87675 57.204946,14.074154 57.125711,13.237951 Z m 3.415813,1.0319783 c 0.627959,0.3371075 1.211022,0.7460014 1.738911,1.2159465 L 59.373636,18.394226 C 58.903886,17.86661 58.494738,17.283949 58.15769,16.656347 Z m 2.487186,1.9642212 c 0.469357,0.527693 0.877657,1.1108137 1.214396,1.7383952 L 61.859789,20.356897 c -0.627653,-0.336789 -1.210654,-0.745482 -1.738395,-1.214913 z m 1.684652,2.7641723 c 0.290078,0.7542063 0.482159,1.5571203 0.561206,2.3936523 l -9.887769,9.886218 c -0.835729,-0.07915 -1.638044,-0.271415 -2.391585,-0.561206 z m 0.581876,3.8674643 c -0.297998,4.526706 -3.904552,8.134178 -8.431009,8.433077 z m -9.496577,11.04997 c -7.908983,7.537505 -21.121712,7.476259 -32.567004,9.692432 -5.722649,1.108088 -11.020723,2.808648 -14.915886,6.481775 -3.609272,3.403532 -5.9306,8.482383 -6.267317,16.093074 l -2.1590415,-0.0047 A 1.1446504,1.1446504 0 0 0 8.752954,57.942716 l 2.96106,5.953641 a 0.92604165,0.92604165 0 0 0 1.656229,0.0036 l 2.986381,-5.940723 a 1.1446504,1.1446504 0 0 0 -1.020093,-1.658813 l -2.074292,-0.0047 c 0.327985,-7.328411 2.519135,-11.990198 5.85184,-15.132926 3.606149,-3.400591 8.636734,-5.056596 14.259594,-6.145362 10.077257,-1.951278 21.99952,-2.011574 30.438969,-7.787121 -3.319671,4.793656 -8.750264,8.717277 -13.749549,12.842627 -5.513494,4.549668 -10.533413,9.44383 -11.22257,16.23105 l -2.227771,0.03462 a 1.1446504,1.1446504 0 0 0 -0.997355,1.67225 l 3.065962,5.900415 a 0.92604165,0.92604165 0 0 0 1.65623,-0.02584 l 2.880444,-5.993432 a 1.1446504,1.1446504 0 0 0 -1.049548,-1.64021 l -1.997811,0.03101 c 0.694742,-6.176744 5.318542,-10.720294 10.734229,-15.189254 5.227333,-4.313532 11.148846,-8.473962 14.579471,-13.973824 v 29.174447 h -2.116666 a 1.1446533,1.1446533 0 0 0 -1.023711,1.656746 l 2.973462,5.94744 a 0.92604398,0.92604398 0 0 0 1.656747,0 l 2.973462,-5.94744 A 1.1446533,1.1446533 0 0 0 68.923957,56.294238 H 66.806774 V 27.119275 c 3.43057,5.500158 9.352464,9.66065 14.579988,13.97434 5.415687,4.46896 10.039487,9.01251 10.734229,15.189254 l -1.997811,-0.03101 a 1.1446504,1.1446504 0 0 0 -1.049548,1.64021 l 2.880444,5.993432 a 0.92604165,0.92604165 0 0 0 1.65623,0.02584 l 3.065962,-5.900415 a 1.1446504,1.1446504 0 0 0 -0.997355,-1.67225 l -2.227771,-0.03462 c -0.689157,-6.78722 -5.709076,-11.681382 -11.22257,-16.23105 -4.999285,-4.12535 -10.429878,-8.048971 -13.749549,-12.842627 8.439449,5.775547 20.361712,5.835843 30.438969,7.787121 5.622858,1.088766 10.653438,2.744771 14.259598,6.145362 3.33269,3.142728 5.52385,7.804515 5.85184,15.132926 l -2.0743,0.0047 a 1.1446504,1.1446504 0 0 0 -1.02009,1.658813 l 2.98638,5.940723 a 0.92604165,0.92604165 0 0 0 1.65623,-0.0036 l 2.96106,-5.953641 a 1.1446504,1.1446504 0 0 0 -1.02733,-1.654163 l -2.15904,0.0047 C 120.01562,48.682513 117.6943,43.603662 114.08502,40.20013 110.18988,36.527003 104.89178,34.826443 99.169139,33.718355 87.723847,31.502182 74.511118,31.563428 66.602135,24.025923 l -0.456303,0.479041 z M 12.568225,65.683845 c -5.7270515,0 -10.384379,4.657328 -10.384379,10.384379 0,5.727051 4.6573275,10.382829 10.384379,10.382829 5.727051,0 10.382829,-4.655778 10.382829,-10.382829 0,-5.727051 -4.655778,-10.384379 -10.382829,-10.384379 z m 26.789062,0 c -5.727051,0 -10.384379,4.657328 -10.384379,10.384379 0,5.727051 4.657328,10.382829 10.384379,10.382829 5.727051,0 10.382829,-4.655778 10.382829,-10.382829 0,-5.727051 -4.655778,-10.384379 -10.382829,-10.384379 z m 26.789062,0 c -5.727051,0 -10.384379,4.657328 -10.384379,10.384379 0,5.727051 4.657328,10.382829 10.384379,10.382829 5.727054,0 10.382829,-4.655778 10.382829,-10.382829 0,-5.727051 -4.655775,-10.384379 -10.382829,-10.384379 z m 26.789062,0 c -5.727057,0 -10.384379,4.657322 -10.384379,10.384379 0,5.727057 4.657322,10.382829 10.384379,10.382829 5.727059,0 10.382829,-4.655772 10.382829,-10.382829 0,-5.727057 -4.65577,-10.384379 -10.382829,-10.384379 z m 26.789059,0 c -5.72705,0 -10.38438,4.657322 -10.38438,10.384379 0,5.727057 4.65733,10.382829 10.38438,10.382829 5.72707,0 10.38283,-4.655772 10.38283,-10.382829 0,-5.727057 -4.65576,-10.384379 -10.38283,-10.384379 z m -26.789059,1.321883 c 5.012101,0 9.060429,4.050396 9.060429,9.062496 0,5.012101 -4.048328,9.060429 -9.060429,9.060429 -5.012101,0 -9.062495,-4.048328 -9.062495,-9.060429 0,-5.0121 4.050394,-9.062496 9.062495,-9.062496 z m 26.789059,0 c 5.01211,0 9.06043,4.050396 9.06043,9.062496 0,5.012101 -4.04832,9.060429 -9.06043,9.060429 -5.01209,0 -9.06249,-4.048328 -9.06249,-9.060429 0,-5.0121 4.0504,-9.062496 9.06249,-9.062496 z m -80.973347,0.02067 -8.435661,8.435661 c 0.297948,-4.52789 3.90777,-8.137713 8.435661,-8.435661 z m 26.789062,0 -8.435661,8.435661 c 0.297948,-4.52789 3.907771,-8.137713 8.435661,-8.435661 z m -25.31215,0.02119 c 0.835654,0.07934 1.637707,0.271681 2.391068,0.561723 l -11.720731,11.72073 c -0.290219,-0.753825 -0.482476,-1.556414 -0.561723,-2.392619 z m 26.789062,0 c 0.835654,0.07934 1.637705,0.271681 2.391069,0.561723 l -11.720732,11.72073 c -0.290219,-0.753825 -0.482476,-1.556414 -0.561723,-2.392619 z m -23.37325,1.031462 c 0.62791,0.33712 1.21055,0.746521 1.738395,1.216463 L 32.584574,82.093179 c -0.469689,-0.52756 -0.878931,-1.109838 -1.215946,-1.737361 z m 26.789062,0 c 0.627912,0.33712 1.21055,0.746521 1.738395,1.216463 L 59.373636,82.093179 c -0.469687,-0.52756 -0.878931,-1.109838 -1.215946,-1.737361 z m -24.302392,1.964221 c 0.469338,0.527671 0.877661,1.110842 1.214396,1.738395 L 35.070727,84.05585 c -0.627553,-0.336732 -1.210724,-0.745058 -1.738395,-1.214396 z m 26.789062,0 c 0.469338,0.527671 0.877664,1.110842 1.214396,1.738395 L 61.859789,84.05585 C 61.232237,83.719118 60.649068,83.310792 60.121394,82.841454 Z M 47.815685,72.80951 c 0.289701,0.753718 0.481715,1.556197 0.56069,2.392102 l -9.887252,9.885702 c -0.835915,-0.07912 -1.638406,-0.271359 -2.392102,-0.561206 z m 26.789063,0 c 0.289698,0.753718 0.481714,1.556197 0.560689,2.392102 l -9.887252,9.885702 c -0.835915,-0.07912 -1.638406,-0.271359 -2.392102,-0.561206 z m -26.207703,3.865914 c -0.298144,4.526564 -3.904655,8.133664 -8.43101,8.43256 z m 26.789062,0 c -0.298144,4.526564 -3.904657,8.133664 -8.431009,8.43256 z M 12.568225,87.51197 c -5.7270572,0 -10.384379,4.657322 -10.384379,10.384379 0,5.727051 4.6573218,10.382831 10.384379,10.382831 5.727057,0 10.382829,-4.65578 10.382829,-10.382831 0,-5.727057 -4.655772,-10.384379 -10.382829,-10.384379 z m 26.789062,0 c -5.727051,0 -10.384379,4.657328 -10.384379,10.384379 0,5.727041 4.657328,10.382831 10.384379,10.382831 5.727051,0 10.382829,-4.65579 10.382829,-10.382831 0,-5.727051 -4.655778,-10.384379 -10.382829,-10.384379 z m 26.789062,0 c -5.727057,0 -10.384379,4.657322 -10.384379,10.384379 0,5.727051 4.657322,10.382831 10.384379,10.382831 5.727059,0 10.382829,-4.65578 10.382829,-10.382831 0,-5.727057 -4.65577,-10.384379 -10.382829,-10.384379 z m 26.789062,0 c -5.727051,0 -10.384379,4.657328 -10.384379,10.384379 0,5.727041 4.657328,10.382831 10.384379,10.382831 5.727054,0 10.382829,-4.65579 10.382829,-10.382831 0,-5.727051 -4.655775,-10.384379 -10.382829,-10.384379 z m 26.789059,0 c -5.72704,0 -10.38438,4.657328 -10.38438,10.384379 0,5.727041 4.65734,10.382831 10.38438,10.382831 5.72707,0 10.38283,-4.65579 10.38283,-10.382831 0,-5.727051 -4.65576,-10.384379 -10.38283,-10.384379 z M 12.568225,88.833853 c 5.012101,0 9.060429,4.050396 9.060429,9.062496 0,5.012101 -4.048328,9.060431 -9.060429,9.060431 -5.0121003,0 -9.0624959,-4.04833 -9.0624959,-9.060431 0,-5.0121 4.0503956,-9.062496 9.0624959,-9.062496 z m 53.578124,0 c 5.012101,0 9.060429,4.050396 9.060429,9.062496 0,5.012101 -4.048328,9.060431 -9.060429,9.060431 -5.0121,0 -9.062496,-4.04833 -9.062496,-9.060431 0,-5.0121 4.050396,-9.062496 9.062496,-9.062496 z m 52.971961,0.02067 -8.43566,8.43566 c 0.29795,-4.527888 3.90776,-8.137714 8.43566,-8.43566 z m 1.47691,0.02119 c 0.83566,0.07934 1.63771,0.271681 2.39107,0.561723 l -11.72073,11.720734 c -0.29022,-0.75383 -0.48248,-1.556413 -0.56172,-2.392622 z m 3.41581,1.031462 c 0.62792,0.337119 1.21055,0.746521 1.7384,1.216463 L 112.95176,103.9213 c -0.46969,-0.52756 -0.87893,-1.10983 -1.21595,-1.73736 z m 2.48667,1.964737 c 0.46923,0.527598 0.87773,1.110439 1.2144,1.737879 l -12.27419,12.274179 c -0.62744,-0.33665 -1.2103,-0.74516 -1.73787,-1.21439 z m 1.68517,2.765723 c 0.2897,0.753716 0.48172,1.556197 0.56069,2.392102 l -9.88725,9.885703 c -0.83592,-0.0791 -1.6384,-0.27136 -2.3921,-0.56121 z m 0.58136,3.865914 c -0.29814,4.526571 -3.90465,8.133661 -8.43101,8.432561 z M 12.568225,109.34009 c -5.7270515,0 -10.384379,4.65734 -10.384379,10.38438 0,5.72707 4.6573275,10.38283 10.384379,10.38283 5.727051,0 10.382829,-4.65576 10.382829,-10.38283 0,-5.72704 -4.655778,-10.38438 -10.382829,-10.38438 z m 26.789062,0 c -5.727057,0 -10.384379,4.65733 -10.384379,10.38438 0,5.72707 4.657322,10.38283 10.384379,10.38283 5.727057,0 10.382829,-4.65576 10.382829,-10.38283 0,-5.72705 -4.655772,-10.38438 -10.382829,-10.38438 z m 26.789062,0 c -5.727051,0 -10.384379,4.65734 -10.384379,10.38438 0,5.72707 4.657328,10.38283 10.384379,10.38283 5.727054,0 10.382829,-4.65576 10.382829,-10.38283 0,-5.72704 -4.655775,-10.38438 -10.382829,-10.38438 z m 26.789062,0 c -5.727051,0 -10.384379,4.65734 -10.384379,10.38438 0,5.72707 4.657328,10.38283 10.384379,10.38283 5.727054,0 10.382829,-4.65576 10.382829,-10.38283 0,-5.72704 -4.655775,-10.38438 -10.382829,-10.38438 z m 26.789059,0 c -5.72704,0 -10.38438,4.65734 -10.38438,10.38438 0,5.72707 4.65734,10.38283 10.38438,10.38283 5.72707,0 10.38283,-4.65576 10.38283,-10.38283 0,-5.72704 -4.65576,-10.38438 -10.38283,-10.38438 z m -80.367183,1.32189 c 5.012101,0 9.060429,4.0504 9.060429,9.06249 0,5.01211 -4.048328,9.06043 -9.060429,9.06043 -5.012101,0 -9.062496,-4.04832 -9.062496,-9.06043 0,-5.01209 4.050395,-9.06249 9.062496,-9.06249 z m -27.397294,0.0207 -8.4335933,8.43566 c 0.2979024,-4.52721 3.9066679,-8.13676 8.4335933,-8.43566 z m 80.367187,0 -8.433594,8.43566 c 0.297903,-4.52721 3.906666,-8.13676 8.433594,-8.43566 z m -78.888207,0.0212 c 0.835654,0.0793 1.637706,0.27168 2.391068,0.56172 L 4.1093098,122.98629 C 3.8190916,122.23247 3.6268339,121.42988 3.547587,120.59367 Z m 80.367186,0 c 0.835654,0.0793 1.637707,0.27168 2.391069,0.56172 l -11.720732,11.72073 c -0.290217,-0.75382 -0.482478,-1.55641 -0.561722,-2.39262 z m -76.951374,1.03146 c 0.627909,0.33712 1.21055,0.74652 1.738395,1.21646 L 5.7955118,125.74943 c -0.4696877,-0.52756 -0.8789299,-1.10984 -1.2159464,-1.73736 z m 80.367186,0 c 0.627912,0.33712 1.210549,0.74652 1.738396,1.21646 l -12.797669,12.79767 c -0.469686,-0.52756 -0.878929,-1.10984 -1.215946,-1.73736 z m -77.880516,1.96474 c 0.469228,0.52757 0.877723,1.11043 1.214396,1.73787 L 8.2816649,127.7121 C 7.6541117,127.37536 7.070942,126.96704 6.5432698,126.4977 Z m 80.367186,0 c 0.469229,0.52757 0.877719,1.11043 1.214399,1.73787 L 88.648851,127.7121 c -0.627552,-0.33674 -1.210721,-0.74506 -1.738395,-1.2144 z m -78.682018,2.76572 c 0.289701,0.75372 0.481715,1.55619 0.56069,2.3921 l -9.887252,9.8857 c -0.835915,-0.0791 -1.638406,-0.27137 -2.3921021,-0.5612 z m 80.367187,0 c 0.2897,0.75372 0.48171,1.55619 0.56069,2.3921 l -9.887253,9.8857 c -0.835915,-0.0791 -1.638404,-0.27137 -2.392102,-0.5612 z m -79.785827,3.86591 c -0.298146,4.52657 -3.904655,8.13366 -8.43101,8.43256 z m 80.367187,0 c -0.29815,4.52657 -3.904658,8.13366 -8.43101,8.43256 z"
       transform="matrix(0.19618204,0,0,0.19618204,0.25259305,0.27215937)" />
  </g>
</svg>
