<?xml version="1.0" encoding="UTF-8" standalone="no"?>
<svg
   enable-background="new 0 0 24 24"
   id="Layer_1"
   version="1.1"
   viewBox="0 0 100 100"
   xml:space="preserve"
   sodipodi:docname="powerpoint.svg"
   width="100"
   height="100"
   inkscape:version="1.2.2 (732a01da63, 2022-12-09)"
   xmlns:inkscape="http://www.inkscape.org/namespaces/inkscape"
   xmlns:sodipodi="http://sodipodi.sourceforge.net/DTD/sodipodi-0.dtd"
   xmlns="http://www.w3.org/2000/svg"
   xmlns:svg="http://www.w3.org/2000/svg"><sodipodi:namedview
     id="namedview566"
     pagecolor="#ffffff"
     bordercolor="#666666"
     borderopacity="1.0"
     inkscape:showpageshadow="2"
     inkscape:pageopacity="0.0"
     inkscape:pagecheckerboard="0"
     inkscape:deskcolor="#d1d1d1"
     showgrid="false"
     inkscape:zoom="4.9166667"
     inkscape:cx="-72.915254"
     inkscape:cy="11.288136"
     inkscape:window-width="2560"
     inkscape:window-height="1373"
     inkscape:window-x="-9"
     inkscape:window-y="-9"
     inkscape:window-maximized="1"
     inkscape:current-layer="Layer_1" /><defs
     id="defs661" /><path
     id="polygon593"
     style="opacity:1;fill:#f6c156;fill-opacity:1"
     d="M 14,23.75 0,21.141296 v 0.25 L 14,24 Z M 14,0.25 V 0 L 0,2.6087036 v 0.25 z M 14,0 0,2.609375 v 18.78125 L 14,24 v -3 h 9.5 C 23.776367,21 24,20.776367 24,20.5 V 3.5 C 24,3.223634 23.776367,3 23.5,3 H 14 Z m 0,4 h 9 v 16 h -9 v -1.5 h 7.5 v -1 H 14 v -2 h 7.5 v -1 H 14 V 11.947266 C 14.635345,12.596282 15.520028,13 16.5,13 18.432977,13 20,11.432977 20,9.5 H 16.5 V 6 C 15.520028,6 14.635345,6.4037173 14,7.0527344 Z m 3.5,1 V 8.5 H 21 C 21,6.5670223 19.432977,5 17.5,5 Z M 4.75,7.75 H 6.5 c 1.5166001,0 2.75,1.2333999 2.75,2.75 0,1.5166 -1.2333999,2.75 -2.75,2.75 H 6.25 v 3.160156 l -1.5,-0.107422 z m 1.5,1.5 v 2.5 H 6.5 c 0.6894524,0 1.25,-0.560548 1.25,-1.25 C 7.75,9.8105476 7.1894524,9.25 6.5,9.25 Z"
     transform="matrix(3.9583333,0,0,3.9583333,2.5000004,2.5000004)" /><g
     id="g628" /><g
     id="g630" /><g
     id="g632" /><g
     id="g634" /><g
     id="g636" /><g
     id="g638" /><g
     id="g640" /><g
     id="g642" /><g
     id="g644" /><g
     id="g646" /><g
     id="g648" /><g
     id="g650" /><g
     id="g652" /><g
     id="g654" /><g
     id="g656" /></svg>
