<?xml version="1.0" encoding="UTF-8" standalone="no"?>
<svg
   role="img"
   viewBox="0 0 100 100"
   version="1.1"
   id="svg6"
   sodipodi:docname="python.svg"
   width="100"
   height="100"
   inkscape:version="1.2.2 (732a01da63, 2022-12-09)"
   xmlns:inkscape="http://www.inkscape.org/namespaces/inkscape"
   xmlns:sodipodi="http://sodipodi.sourceforge.net/DTD/sodipodi-0.dtd"
   xmlns="http://www.w3.org/2000/svg"
   xmlns:svg="http://www.w3.org/2000/svg">
  <sodipodi:namedview
     id="namedview6"
     pagecolor="#ffffff"
     bordercolor="#666666"
     borderopacity="1.0"
     inkscape:showpageshadow="2"
     inkscape:pageopacity="0.0"
     inkscape:pagecheckerboard="0"
     inkscape:deskcolor="#d1d1d1"
     showgrid="false"
     inkscape:zoom="9.8333333"
     inkscape:cx="-0.55932203"
     inkscape:cy="12.050847"
     inkscape:window-width="2560"
     inkscape:window-height="1373"
     inkscape:window-x="-9"
     inkscape:window-y="-9"
     inkscape:window-maximized="1"
     inkscape:current-layer="svg6" />
  <defs
     id="defs10" />
  <title
     id="title2" />
  <path
     id="path4"
     d="M 11.970703,0 11.130859,0.01953125 10.359375,0.06054687 9.6503906,0.11914062 9.0097656,0.22070312 8.4296875,0.33984375 7.9199219,0.49023438 7.4804688,0.66992188 7.0996094,0.86914062 6.7890625,1.0996094 l -0.25,0.2597656 -0.1699219,0.28125 -0.109375,0.3085938 -0.048828,0.3398437 0.019531,0.3710937 0.00977,2.75 H 12.080078 V 6.2402344 H 3.9199219 L 3.859375,6.2304688 H 3.6992188 L 3.4609375,6.2402344 3.140625,6.2890625 2.7792969,6.390625 2.3808594,6.5507812 1.9609375,6.7890625 1.5390625,7.1191406 1.140625,7.5605469 0.77929688,8.1308594 0.4609375,8.8398438 0.22070312,9.7109375 0.06054687,10.75 0,11.970703 0.05078125,13.199219 0.18945312,14.25 0.40039062,15.130859 0.6796875,15.859375 1,16.449219 l 0.3496094,0.460937 0.3613281,0.359375 0.359375,0.259766 0.3496094,0.181641 0.3203125,0.11914 0.2792968,0.07031 0.2109376,0.0293 h 2.2304687 v -3.060547 l 0.019531,-0.208985 0.039062,-0.269531 0.070313,-0.320313 0.099609,-0.349609 0.1503907,-0.371094 0.1992187,-0.359375 0.2714844,-0.349609 0.3300781,-0.320313 0.4101562,-0.269531 0.5,-0.220703 0.5898438,-0.140625 0.6894531,-0.04883 H 14.80078 l 0.208985,-0.02148 0.259765,-0.03906 0.300781,-0.07031 0.330079,-0.09961 0.349609,-0.140625 0.349609,-0.189453 0.330079,-0.25 0.300781,-0.310547 0.259765,-0.378906 L 17.699219,9.6796875 17.830078,9.1308594 17.880859,8.5 V 3.1601562 l 0.0098,-0.1308593 -0.02148,-0.1992188 -0.03906,-0.2597656 -0.09961,-0.3007813 -0.160157,-0.3300781 -0.25,-0.3398437 L 16.980469,1.2597656 16.529297,0.93945312 15.939453,0.640625 15.210938,0.38085938 14.310547,0.1796875 13.240234,0.05078125 Z M 8.75,1.8496094 9.1601562,1.9394531 9.4902344,2.1601562 9.7207031,2.4902344 9.8007812,2.9003906 9.7207031,3.3105469 9.4902344,3.6503906 9.1601562,3.8691406 8.75,3.9609375 8.3398438,3.8691406 8.0097656,3.6503906 7.7792969,3.3105469 7.6992188,2.9003906 7.7792969,2.4902344 8.0097656,2.1601562 8.3398438,1.9394531 Z m 9.910156,4.2207031 v 3.0605469 l -0.01953,0.2089844 -0.04102,0.2792968 -0.07031,0.3203125 -0.09961,0.3496089 -0.150391,0.361329 -0.199219,0.359375 -0.269531,0.349609 -0.330078,0.320313 -0.410157,0.28125 -0.5,0.208984 -0.589843,0.140625 -0.691407,0.04883 H 9.4492188 l -0.1289063,0.0098 -0.2109375,0.02148 -0.2597656,0.03906 -0.2988282,0.06055 -0.3300781,0.09961 -0.3515625,0.140625 -0.3496094,0.199219 -0.3300781,0.240234 -0.2988281,0.320312 -0.2597656,0.378907 -0.2109375,0.460937 -0.1308594,0.539063 -0.048828,0.640625 v 5.339843 l -0.00977,0.13086 0.019531,0.199219 0.039063,0.25 0.1015625,0.300781 0.1601562,0.330078 0.25,0.339844 0.3398438,0.339843 0.4492188,0.330078 0.5898437,0.298829 0.7304687,0.25 0.9003907,0.201171 1.0703121,0.140626 1.269532,0.03906 0.839843,-0.0098 0.769532,-0.04102 0.710937,-0.06836 0.638672,-0.0918 0.580078,-0.128906 0.509766,-0.15039 0.441406,-0.169922 0.378906,-0.199219 0.310547,-0.240234 0.25,-0.25 0.169922,-0.291016 0.109375,-0.308594 0.05078,-0.339843 -0.01953,-0.361329 -0.0098,-2.759765 H 12.039024 V 17.76952 h 8.220704 l 0.160156,0.0098 0.240234,-0.01953 0.320313,-0.04883 0.359375,-0.0918 0.40039,-0.158203 0.419922,-0.240235 0.419922,-0.330078 0.400391,-0.451172 0.359375,-0.570312 0.320312,-0.708985 0.240235,-0.859375 0.160156,-1.041015 0.05859,-1.230469 L 24.070269,10.8008 23.929688,9.7597656 23.720703,8.8808594 23.439453,8.1503906 23.119141,7.5605469 22.769531,7.0898438 22.410156,6.7402344 22.050781,6.4707031 21.699219,6.2890625 21.380859,6.1699219 21.099609,6.109375 20.890625,6.0800781 20.75,6.0703125 Z m -3.291015,13.9804685 0.410156,0.08008 0.330078,0.228516 0.230469,0.330078 0.08008,0.410156 -0.08008,0.410157 -0.230469,0.330078 -0.330078,0.230468 -0.410156,0.08008 -0.408203,-0.08008 -0.330079,-0.230468 -0.230468,-0.330078 -0.08008,-0.410157 0.08008,-0.410156 0.230468,-0.330078 0.330079,-0.228516 z"
     style="fill:#f6c156;fill-opacity:1"
     transform="matrix(3.9387873,0,0,3.9387873,2.4999996,2.7344913)" />
</svg>
