<?xml version="1.0" encoding="UTF-8" standalone="no"?>
<svg
   viewBox="0 0 500 500"
   version="1.1"
   id="svg15965"
   xml:space="preserve"
   width="500"
   height="500"
   sodipodi:docname="rmarkdown.svg"
   inkscape:version="1.2.2 (732a01da63, 2022-12-09)"
   xmlns:inkscape="http://www.inkscape.org/namespaces/inkscape"
   xmlns:sodipodi="http://sodipodi.sourceforge.net/DTD/sodipodi-0.dtd"
   xmlns="http://www.w3.org/2000/svg"
   xmlns:svg="http://www.w3.org/2000/svg"><sodipodi:namedview
     id="namedview183"
     pagecolor="#ffffff"
     bordercolor="#666666"
     borderopacity="1.0"
     inkscape:showpageshadow="2"
     inkscape:pageopacity="0.0"
     inkscape:pagecheckerboard="0"
     inkscape:deskcolor="#d1d1d1"
     showgrid="false"
     inkscape:zoom="0.472"
     inkscape:cx="-11.652542"
     inkscape:cy="251.05932"
     inkscape:window-width="2560"
     inkscape:window-height="1373"
     inkscape:window-x="-9"
     inkscape:window-y="-9"
     inkscape:window-maximized="1"
     inkscape:current-layer="svg15965" /><defs
     id="defs15969" /><!--! Font Awesome Pro 6.3.0 by @fontawesome - https://fontawesome.com License - https://fontawesome.com/license (Commercial License) Copyright 2023 Fonticons, Inc. --><path
     id="path23714"
     style="fill:#f6c156;fill-opacity:1;stroke-width:0.53443"
     d="m 243.85405,496.75702 c -0.58787,-0.15943 -1.35601,-0.52278 -1.70699,-0.80743 -0.73469,-0.59585 -5.49052,-3.18434 -8.04635,-4.37945 -0.95529,-0.44669 -1.73689,-1.06494 -1.73689,-1.37387 0,-0.30894 -0.58929,-0.5617 -1.30952,-0.5617 -0.72024,0 -1.50184,-0.31876 -1.7369,-0.70834 -0.23505,-0.38959 -0.78811,-0.87322 -1.22902,-1.07474 -0.4409,-0.20153 -1.52312,-0.84525 -2.40493,-1.4305 -0.88181,-0.58525 -2.32477,-1.43199 -3.20658,-1.88165 -0.88181,-0.44965 -2.32477,-1.29138 -3.20658,-1.8705 -0.88181,-0.57912 -2.32477,-1.42085 -3.20658,-1.8705 -0.8818,-0.44966 -2.32476,-1.28322 -3.20657,-1.85236 -0.8818,-0.56915 -2.32477,-1.40271 -3.20657,-1.85236 -0.88181,-0.44966 -2.32477,-1.28511 -3.20658,-1.85656 -1.4371,-0.9313 -3.08231,-1.82685 -9.14834,-4.97977 -0.99411,-0.5167 -1.80748,-1.17806 -1.80748,-1.46968 0,-0.29163 -0.60876,-0.53023 -1.35284,-0.53023 -0.74407,0 -1.49128,-0.36074 -1.66046,-0.80164 -0.1692,-0.44091 -0.75092,-0.80165 -1.29276,-0.80165 -0.54181,0 -1.17743,-0.30061 -1.4125,-0.66803 -0.23506,-0.36742 -1.2691,-1.12007 -2.29788,-1.67255 -4.86038,-2.61015 -6.31739,-3.44408 -8.55087,-4.89422 -3.16041,-2.05195 -4.21956,-2.68749 -6.14594,-3.68784 -0.8818,-0.45792 -2.32477,-1.31142 -3.20657,-1.89666 -0.88181,-0.58525 -1.96403,-1.20434 -2.40493,-1.37575 -0.44091,-0.17142 -1.16239,-0.52379 -1.60329,-0.78306 -0.44091,-0.25927 -2.30473,-1.22393 -4.14184,-2.14367 -1.8371,-0.91976 -3.34019,-1.86469 -3.34019,-2.09986 0,-0.23517 -0.42086,-0.5689 -0.93525,-0.74162 -0.51439,-0.17272 -1.29599,-0.54415 -1.7369,-0.82542 -0.4409,-0.28126 -1.16237,-0.65163 -1.60329,-0.82304 -0.4409,-0.17141 -1.52312,-0.78233 -2.40493,-1.35761 -0.8818,-0.57527 -2.32477,-1.42078 -3.20657,-1.87891 -1.7706,-0.9199 -2.60371,-1.42449 -6.14594,-3.72244 -2.61675,-1.69757 -6.8148,-4.11931 -9.35251,-5.3952 -0.88181,-0.44335 -2.32477,-1.27677 -3.20658,-1.85204 -0.88181,-0.57527 -1.90391,-1.16884 -2.27133,-1.31905 -1.56813,-0.64107 -2.11431,-0.92543 -4.14183,-2.15641 -1.17574,-0.71383 -2.67883,-1.53814 -3.34018,-1.83177 -0.66136,-0.29365 -1.20247,-0.78035 -1.20247,-1.08156 0,-0.30121 -0.45154,-0.54765 -1.00342,-0.54765 -0.55188,0 -1.30281,-0.36074 -1.66873,-0.80165 -0.36592,-0.4409 -0.99906,-0.80164 -1.40699,-0.80164 -0.40793,0 -1.89349,-0.78161 -3.30125,-1.7369 -3.88286,-2.63487 -4.51161,-3.02761 -6.24756,-3.90238 -0.88181,-0.44436 -2.32477,-1.27768 -3.20658,-1.85183 -0.88181,-0.57414 -2.084285,-1.30033 -2.672155,-1.61376 -0.58787,-0.31342 -2.03083,-1.15391 -3.20658,-1.86776 -1.17574,-0.71385 -2.49846,-1.44602 -2.93936,-1.62706 -0.44091,-0.18104 -1.04214,-0.42898 -1.33607,-0.55099 -0.29394,-0.12201 -1.25591,-0.69752 -2.13772,-1.27892 -0.88181,-0.5814 -1.96403,-1.22092 -2.40494,-1.42116 -0.4409,-0.20024 -1.37519,-0.80412 -2.07618,-1.34196 -0.701,-0.53784 -1.73064,-0.97789 -2.2881,-0.97789 -0.55746,0 -1.15199,-0.36074 -1.32118,-0.80164 -0.16919,-0.44091 -0.77042,-0.80165 -1.33607,-0.80165 -0.56565,0 -1.16688,-0.36074 -1.33607,-0.80164 -0.1692,-0.44091 -0.58799,-0.80165 -0.93067,-0.80165 -0.34268,0 -1.90115,-0.84172 -3.46326,-1.8705 -1.56212,-1.02878 -3.1427,-1.8705 -3.51239,-1.8705 -0.36969,0 -1.10745,-0.48099 -1.63947,-1.06886 -0.53202,-0.58787 -1.1753,-1.06886 -1.42952,-1.06886 -0.25422,0 -1.47954,-0.65854 -2.72293,-1.46342 -1.24339,-0.80488 -2.92206,-1.75525 -3.73039,-2.11192 -0.80832,-0.35667 -1.46968,-0.90061 -1.46968,-1.20873 0,-0.30813 -0.55313,-0.56023 -1.22918,-0.56023 -0.67606,0 -1.49754,-0.26835 -1.82552,-0.59632 -0.68988,-0.68989 -2.5157,-1.77334 -4.41643,-2.62074 -0.72886,-0.32495 -1.45034,-0.76103 -1.60329,-0.96908 -0.15295,-0.20804 -0.87933,-0.67654 -1.61417,-1.0411 -0.73484,-0.36456 -2.05755,-1.13862 -2.93936,-1.72013 -0.88181,-0.58152 -1.84378,-1.15712 -2.13772,-1.27913 -0.29394,-0.12201 -0.89517,-0.3678 -1.33607,-0.5462 -0.44091,-0.17841 -1.52313,-0.80006 -2.40494,-1.38146 -1.68463,-1.11072 -2.08821,-1.31237 -3.6074,-1.80246 -0.88726,-0.28623 -0.93525,-6.84413 -0.93525,-127.79672 0,-112.8613 0.092,-127.52375 0.80165,-127.74544 1.45131,-0.45341 2.11871,-0.78412 3.741,-1.85374 0.88181,-0.5814 1.90391,-1.17998 2.27133,-1.33019 2.07034,-0.84637 2.28832,-0.96984 6.43914,-3.64731 1.26351,-0.81502 2.82672,-1.72229 3.47379,-2.01613 1.79931,-0.81712 3.6064,-1.90288 4.26772,-2.5642 0.32798,-0.32798 1.14946,-0.59633 1.82552,-0.59633 0.67605,0 1.22918,-0.2521 1.22918,-0.56022 0,-0.30813 0.66136,-0.85206 1.46968,-1.20873 0.80833,-0.35668 2.487,-1.30704 3.73039,-2.11193 1.24339,-0.80487 2.46871,-1.46341 2.72293,-1.46341 0.25422,0 0.8975,-0.48099 1.42952,-1.06886 0.53202,-0.58788 1.19919,-1.06886 1.4826,-1.06886 0.79547,0 7.01412,-3.851451 7.49565,-4.642351 0.23506,-0.38607 0.99093,-0.70195 1.67972,-0.70195 0.68879,0 1.39077,-0.36074 1.55996,-0.80164 0.16919,-0.44091 0.74943,-0.80165 1.28943,-0.80165 0.53998,0 1.81013,-0.62162 2.82252,-1.38138 1.0124,-0.75977 3.28369,-2.09244 5.04731,-2.96149 1.76361,-0.86906 3.68756,-1.86792 4.27543,-2.21969 3.06119,-1.83173 6.544375,-3.93406 7.486995,-4.51888 0.58513,-0.36304 1.78537,-1.01956 2.66718,-1.45894 1.73124,-0.862631 2.34535,-1.24532 6.24756,-3.893327 1.40776,-0.955293 2.89332,-1.736897 3.30125,-1.736897 0.40793,0 1.04107,-0.36074 1.40699,-0.801644 0.36592,-0.440904 1.11685,-0.801644 1.66873,-0.801644 0.55188,0 1.00342,-0.246447 1.00342,-0.547657 0,-0.30121 0.54111,-0.794569 1.20247,-1.096356 0.66135,-0.301781 2.16444,-1.13275 3.34018,-1.846598 1.17575,-0.713849 2.43834,-1.422956 2.80576,-1.575798 0.36742,-0.152836 0.96865,-0.400785 1.33607,-0.550986 0.36742,-0.150207 1.38952,-0.743777 2.27133,-1.319047 0.88181,-0.575276 2.32477,-1.408693 3.20658,-1.852039 2.53771,-1.275898 6.73576,-3.697633 9.35251,-5.395201 3.54223,-2.297951 4.37534,-2.802543 6.14594,-3.722441 0.8818,-0.458129 2.32477,-1.303639 3.20657,-1.878915 0.88181,-0.575271 1.96403,-1.186194 2.40493,-1.357607 0.44091,-0.171412 1.16239,-0.541783 1.60329,-0.823042 0.44091,-0.281265 1.22251,-0.652699 1.7369,-0.825416 0.51439,-0.172717 0.93525,-0.506447 0.93525,-0.741618 0,-0.23517 1.50309,-1.186332 3.34019,-2.113685 1.83711,-0.927358 4.78314,-2.504032 6.54676,-3.50372 1.76362,-0.999693 3.92807,-2.199344 4.80987,-2.665895 1.96411,-1.03918 3.05187,-1.694667 6.14594,-3.703546 2.23348,-1.450134 3.69049,-2.284072 8.55087,-4.89422 1.02878,-0.552479 2.06282,-1.305124 2.29788,-1.672544 0.23506,-0.367421 0.87068,-0.668037 1.4125,-0.668037 0.54184,0 1.12356,-0.36074 1.29276,-0.801645 0.16919,-0.440904 0.9164,-0.801644 1.66046,-0.801644 0.74408,0 1.35284,-0.238601 1.35284,-0.530224 0,-0.291623 0.81336,-0.95298 1.80748,-1.469681 6.06603,-3.152921 7.71123,-4.048471 9.14834,-4.979771 0.88181,-0.571449 2.32477,-1.406898 3.20658,-1.856554 0.8818,-0.449655 2.32477,-1.287309 3.20657,-1.861453 0.88181,-0.574144 2.08427,-1.283804 2.67215,-1.577021 0.58787,-0.293217 2.03083,-1.140051 3.20657,-1.881852 1.17575,-0.741802 2.8592,-1.715595 3.74101,-2.163987 0.88181,-0.448391 2.32477,-1.285933 3.20658,-1.861204 0.88181,-0.575271 1.96403,-1.21083 2.40493,-1.412353 0.44091,-0.201524 0.99397,-0.685159 1.22902,-1.074745 0.23506,-0.389587 1.01666,-0.708339 1.7369,-0.708339 0.72023,0 1.30952,-0.2527654 1.30952,-0.5617004 0,-0.308934 0.7816,-0.924588 1.73689,-1.368118 2.43291,-1.12957 4.13032,-2.120336 4.82814,-2.818153 0.32799,-0.327979 0.95015,-0.596325 1.38261,-0.596325 0.43246,0 1.25133,-0.420863 1.81973,-0.935252 0.8704,-0.787707 2.10767,-0.935252 7.84277,-0.935252 4.87006,0 7.05252,0.201825 7.66322,0.708658 0.90241,0.748929 5.34466,3.206373 8.2621,4.570568 0.95529,0.446696 1.73689,1.06494 1.73689,1.373874 0,0.308935 0.58929,0.5617004 1.30952,0.5617004 0.72024,0 1.50185,0.318752 1.7369,0.708339 0.23505,0.389586 0.78811,0.873221 1.22902,1.074745 0.4409,0.201523 1.52312,0.837082 2.40493,1.412353 0.88181,0.575271 2.32477,1.413847 3.20658,1.863503 0.88181,0.449655 2.32477,1.299546 3.20658,1.888645 0.88181,0.589099 2.32477,1.438989 3.20658,1.888645 0.8818,0.449655 2.32476,1.283218 3.20657,1.852362 0.88181,0.569144 2.32477,1.402707 3.20658,1.852362 0.88181,0.449656 2.32477,1.285105 3.20658,1.856554 1.4371,0.9313 3.08231,1.82685 9.14834,4.979771 0.99411,0.516701 1.80747,1.178058 1.80747,1.469681 0,0.291623 0.60877,0.530224 1.35284,0.530224 0.74407,0 1.49128,0.36074 1.66047,0.801644 0.16919,0.440905 0.75092,0.801645 1.29275,0.801645 0.54182,0 1.17744,0.300616 1.4125,0.668037 0.23506,0.36742 1.2691,1.120065 2.29788,1.672544 4.86038,2.610148 6.31739,3.444086 8.55087,4.89422 3.09407,2.008879 4.18183,2.664366 6.14594,3.703546 0.88181,0.466551 3.04625,1.666202 4.80987,2.665895 1.76362,0.999688 4.70966,2.576362 6.54676,3.50372 1.8371,0.927353 3.34019,1.878515 3.34019,2.113685 0,0.235171 0.42086,0.568901 0.93525,0.741618 0.51439,0.172717 1.29599,0.544151 1.7369,0.825416 0.4409,0.281259 1.16238,0.65163 1.60329,0.823042 0.4409,0.171413 1.52312,0.782336 2.40493,1.357607 0.88181,0.575276 2.32477,1.420786 3.20658,1.878915 1.7706,0.919898 2.60371,1.42449 6.14594,3.722441 2.61675,1.697568 6.8148,4.119303 9.35251,5.395201 0.88181,0.443346 2.32477,1.276763 3.20658,1.852039 0.88181,0.57527 1.90391,1.16884 2.27133,1.319047 0.36742,0.150201 0.96865,0.39815 1.33607,0.550986 0.36742,0.152842 1.63001,0.861949 2.80576,1.575798 1.17574,0.713848 2.67883,1.544817 3.34018,1.846598 0.66136,0.301787 1.20247,0.795146 1.20247,1.096356 0,0.30121 0.45154,0.547657 1.00342,0.547657 0.55188,0 1.30281,0.36074 1.66873,0.801644 0.36592,0.440904 0.99906,0.801644 1.40699,0.801644 0.40793,0 1.89349,0.781604 3.30125,1.736897 3.88286,2.634871 4.51161,3.027607 6.24756,3.902387 0.88181,0.44436 2.32477,1.27768 3.20658,1.85182 0.88181,0.57414 2.08428,1.30034 2.67215,1.61376 0.58787,0.31342 2.03083,1.14271 3.20658,1.84287 1.17574,0.70015 3.34018,1.89467 4.80986,2.65448 3.02003,1.56131 4.23877,2.28979 6.07828,3.63314 0.70436,0.51439 1.73677,0.93525 2.29423,0.93525 0.55746,0 1.15199,0.36074 1.32118,0.80165 0.16919,0.4409 0.77042,0.80164 1.33607,0.80164 0.56565,0 1.16688,0.36074 1.33607,0.80165 0.1692,0.4409 0.58799,0.80164 0.93067,0.80164 0.34268,0 1.90114,0.84173 3.46327,1.870501 1.56211,1.02878 3.14269,1.87051 3.51238,1.87051 0.36969,0 1.10745,0.48098 1.63947,1.06886 0.53202,0.58787 1.1753,1.06886 1.42952,1.06886 0.25423,0 1.47954,0.65854 2.72293,1.46341 1.24339,0.80489 2.92206,1.75525 3.73039,2.11193 0.80832,0.35667 1.46968,0.9006 1.46968,1.20873 0,0.30812 0.55313,0.56022 1.22918,0.56022 0.67606,0 1.49754,0.26835 1.82552,0.59633 0.66132,0.66132 2.46841,1.74708 4.26772,2.5642 0.64707,0.29384 2.21027,1.20111 3.47379,2.01613 4.15082,2.67747 4.3688,2.80094 6.43914,3.64731 0.36742,0.15021 1.38952,0.74879 2.27133,1.33019 1.62229,1.06962 2.28969,1.40033 3.741,1.85374 0.70964,0.22169 0.80165,14.88414 0.80165,127.74544 0,112.8613 -0.092,127.52375 -0.80165,127.74545 -1.45131,0.4534 -2.11871,0.78412 -3.741,1.85373 -0.88181,0.5814 -1.96403,1.20305 -2.40494,1.38146 -0.4409,0.1784 -1.04213,0.42419 -1.33607,0.5462 -0.29394,0.12201 -1.25591,0.69761 -2.13772,1.27913 -0.88181,0.58151 -2.20452,1.35557 -2.93936,1.72013 -0.73484,0.36456 -1.46122,0.83306 -1.61417,1.0411 -0.15295,0.20805 -0.87443,0.64413 -1.60328,0.96908 -1.90075,0.8474 -3.72656,1.93085 -4.41644,2.62074 -0.32798,0.32797 -1.14946,0.59632 -1.82552,0.59632 -0.67605,0 -1.22918,0.2521 -1.22918,0.56023 0,0.30812 -0.66136,0.85206 -1.46968,1.20873 -0.80833,0.35667 -2.487,1.30704 -3.73039,2.11192 -1.24339,0.80488 -2.4687,1.46342 -2.72293,1.46342 -0.25422,0 -0.8975,0.48099 -1.42952,1.06886 -0.53202,0.58787 -1.26978,1.06886 -1.63947,1.06886 -0.36969,0 -1.95027,0.84172 -3.51238,1.8705 -1.56213,1.02878 -3.12059,1.8705 -3.46327,1.8705 -0.34268,0 -0.76147,0.36074 -0.93067,0.80165 -0.16919,0.4409 -0.77042,0.80164 -1.33607,0.80164 -0.56565,0 -1.16688,0.36074 -1.33607,0.80165 -0.16919,0.4409 -0.76372,0.80164 -1.32118,0.80164 -0.55746,0 -1.58987,0.42086 -2.29423,0.93525 -1.8666,1.36314 -3.25382,2.20767 -4.55668,2.77407 -0.6328,0.27511 -1.30835,0.75551 -1.50122,1.06758 -0.19287,0.31207 -0.78802,0.5674 -1.32255,0.5674 -0.53454,0 -1.27127,0.36074 -1.63719,0.80164 -0.36592,0.44091 -1.07957,0.80165 -1.5859,0.80165 -0.50632,0 -1.35587,0.48098 -1.88789,1.06886 -0.53202,0.58787 -1.1753,1.06885 -1.42953,1.06885 -0.25422,0 -1.47953,0.65854 -2.72292,1.46342 -1.24339,0.80489 -2.86194,1.76233 -3.59678,2.12766 -1.46311,0.72739 -2.16709,1.16969 -5.98035,3.75733 -1.40776,0.95529 -2.89332,1.7369 -3.30125,1.7369 -0.40793,0 -1.04107,0.36074 -1.40699,0.80164 -0.36592,0.44091 -1.11685,0.80165 -1.66873,0.80165 -0.55188,0 -1.00342,0.24644 -1.00342,0.54765 0,0.30121 -0.54111,0.78791 -1.20247,1.08156 -0.66135,0.29363 -2.16444,1.11794 -3.34018,1.83177 -2.02752,1.23098 -2.5737,1.51534 -4.14183,2.15641 -0.36742,0.15021 -1.38952,0.74378 -2.27133,1.31905 -0.88181,0.57527 -2.32477,1.40869 -3.20658,1.85204 -2.53771,1.27589 -6.73576,3.69763 -9.35251,5.3952 -3.16725,2.05469 -4.22322,2.68809 -6.14594,3.68655 -0.88181,0.45791 -2.32477,1.31141 -3.20658,1.89666 -0.88181,0.58525 -1.96403,1.20434 -2.40493,1.37575 -0.44091,0.17141 -1.16239,0.54178 -1.60329,0.82304 -0.44091,0.28127 -1.22251,0.6527 -1.7369,0.82542 -0.51439,0.17272 -0.93525,0.50645 -0.93525,0.74162 0,0.23517 -1.50309,1.1801 -3.34019,2.09986 -1.8371,0.91974 -3.70092,1.8844 -4.14183,2.14367 -0.4409,0.25927 -1.16238,0.61164 -1.60329,0.78306 -0.4409,0.17141 -1.52312,0.7905 -2.40493,1.37575 -0.88181,0.58524 -2.32477,1.43874 -3.20658,1.89666 -1.92638,1.00035 -2.98553,1.63589 -6.14594,3.68784 -2.23348,1.45014 -3.69049,2.28407 -8.55087,4.89422 -1.02878,0.55248 -2.06282,1.30513 -2.29788,1.67255 -0.23506,0.36742 -0.87068,0.66803 -1.4125,0.66803 -0.54183,0 -1.12356,0.36074 -1.29275,0.80165 -0.16919,0.4409 -0.9164,0.80164 -1.66047,0.80164 -0.74407,0 -1.35284,0.25277 -1.35284,0.56171 0,0.30893 -0.78161,0.92476 -1.7369,1.36851 -0.95529,0.44376 -3.17986,1.62803 -4.94347,2.63172 -1.76362,1.00368 -3.68757,2.07702 -4.27544,2.38517 -0.58787,0.30816 -2.03083,1.14344 -3.20658,1.85618 -1.17574,0.71273 -2.66713,1.53835 -3.3142,1.83471 -0.64707,0.29635 -2.21027,1.20565 -3.47379,2.02068 -3.10518,2.00298 -4.15453,2.63003 -6.03832,3.60826 -0.88181,0.45792 -2.32477,1.31142 -3.20658,1.89667 -0.88181,0.58525 -1.96403,1.22897 -2.40493,1.4305 -0.44091,0.20152 -0.99397,0.68515 -1.22902,1.07474 -0.23506,0.38958 -1.01666,0.70834 -1.7369,0.70834 -0.72023,0 -1.30952,0.25276 -1.30952,0.5617 0,0.30893 -0.7816,0.91375 -1.73689,1.34404 -0.9553,0.43029 -2.09764,1.0019 -2.53854,1.27025 -0.44091,0.26834 -1.16239,0.63493 -1.60329,0.81463 -1.19792,0.48825 -2.97329,1.56361 -4.03186,2.44215 -0.67979,0.56418 -2.57792,0.80716 -6.87097,0.87955 -3.26244,0.055 -6.41269,-0.0304 -7.00057,-0.18987 z m 13.69496,-1.91686 c 0.28629,-0.51159 0.96384,-0.93016 1.50567,-0.93016 0.54182,0 1.12355,-0.36074 1.29274,-0.80164 0.16919,-0.4409 0.89067,-0.80164 1.60329,-0.80164 0.71262,0 1.4341,-0.36074 1.60329,-0.80165 0.16919,-0.4409 0.75888,-0.80164 1.31042,-0.80164 0.55154,0 1.43809,-0.48099 1.97011,-1.06886 0.53202,-0.58788 1.38529,-1.06886 1.89615,-1.06886 0.51087,0 1.06728,-0.36074 1.23648,-0.80165 0.16919,-0.4409 0.77042,-0.80164 1.33607,-0.80164 0.56565,0 1.16688,-0.36074 1.33607,-0.80164 0.16919,-0.44091 0.78197,-0.80165 1.36172,-0.80165 0.57974,0 1.21789,-0.26503 1.41808,-0.58896 0.2002,-0.32393 1.11624,-0.93282 2.03566,-1.3531 0.9194,-0.42028 2.31176,-1.17734 3.0941,-1.68237 0.78235,-0.50502 2.58605,-1.59244 4.00822,-2.41648 1.42218,-0.82405 2.94651,-1.72764 3.38742,-2.00799 0.4409,-0.28035 1.40288,-0.80354 2.13772,-1.16263 0.73484,-0.3591 1.52839,-0.95859 1.76345,-1.3322 0.23506,-0.37361 0.86697,-0.67929 1.40424,-0.67929 0.53728,0 1.27625,-0.36074 1.64217,-0.80165 0.36592,-0.4409 0.96715,-0.80164 1.33608,-0.80164 0.36892,0 0.97015,-0.36074 1.33607,-0.80164 0.36592,-0.44091 1.09111,-0.80165 1.61155,-0.80165 0.52043,0 1.08467,-0.36074 1.25386,-0.80164 0.16919,-0.44091 0.75888,-0.80165 1.31043,-0.80165 0.55154,0 1.43808,-0.48098 1.9701,-1.06886 0.53202,-0.58787 1.38529,-1.06886 1.89616,-1.06886 0.51086,0 1.06727,-0.36074 1.23647,-0.80164 0.16919,-0.4409 0.74805,-0.80164 1.28637,-0.80164 0.53831,0 1.24709,-0.26835 1.57507,-0.59633 0.66644,-0.66644 1.42179,-1.10423 5.87748,-3.40649 1.70087,-0.87884 3.24036,-1.80243 3.42111,-2.05244 0.34195,-0.47299 1.74839,-1.34244 4.48124,-2.77026 0.88181,-0.46071 2.56526,-1.41674 3.741,-2.12451 1.17575,-0.70778 2.65547,-1.5249 3.28827,-1.81582 0.63281,-0.29093 1.30836,-0.78429 1.50123,-1.09636 0.19286,-0.31206 0.79173,-0.56739 1.33081,-0.56739 0.53908,0 1.11856,-0.36074 1.28776,-0.80165 0.16919,-0.4409 0.78196,-0.80164 1.36171,-0.80164 0.57975,0 1.20498,-0.24414 1.38939,-0.54253 0.18441,-0.29839 1.10046,-0.90605 2.03565,-1.35037 2.35689,-1.11977 4.08744,-2.15092 4.79159,-2.85507 0.32798,-0.32798 1.00349,-0.59633 1.50112,-0.59633 0.49764,0 1.04323,-0.36074 1.21242,-0.80164 0.16919,-0.44091 0.65492,-0.80165 1.07939,-0.80165 0.42447,0 2.04987,-0.84172 3.61198,-1.8705 1.56213,-1.02878 3.14632,-1.8705 3.52045,-1.8705 0.37412,0 0.68022,-0.23727 0.68022,-0.52726 0,-0.28999 0.7816,-0.88869 1.73689,-1.33044 0.9553,-0.44175 3.17986,-1.65168 4.94348,-2.68873 1.76362,-1.03706 3.80781,-2.17688 4.54265,-2.53293 0.73484,-0.35605 1.52839,-0.95305 1.76345,-1.32666 0.23506,-0.3736 0.87068,-0.67929 1.4125,-0.67929 0.54183,0 1.12356,-0.36074 1.29275,-0.80164 0.16919,-0.44091 0.9164,-0.80165 1.66047,-0.80165 0.74407,0 1.35284,-0.24644 1.35284,-0.54765 0,-0.30121 0.63886,-0.79055 1.41967,-1.08742 0.78082,-0.29686 2.47633,-1.25289 3.7678,-2.12449 1.29147,-0.8716 2.66737,-1.58473 3.05755,-1.58473 0.39018,0 1.0088,-0.36074 1.37472,-0.80165 0.36592,-0.4409 1.11684,-0.80164 1.66872,-0.80164 0.55189,0 1.00343,-0.23727 1.00343,-0.52726 0,-0.28999 0.7816,-0.89072 1.73689,-1.33496 0.95529,-0.44424 2.37516,-1.22907 3.15526,-1.74406 2.7563,-1.81965 9.10229,-5.47902 9.50156,-5.47902 0.22256,0 0.83994,-0.48099 1.37196,-1.06886 0.53202,-0.58788 1.38529,-1.06886 1.89616,-1.06886 0.51086,0 1.06727,-0.36074 1.23647,-0.80165 0.16919,-0.4409 0.89067,-0.80164 1.60329,-0.80164 0.71261,0 1.43409,-0.36074 1.60329,-0.80165 0.16919,-0.4409 0.77042,-0.80164 1.33607,-0.80164 0.56565,0 1.16688,-0.36074 1.33607,-0.80164 0.16919,-0.44091 0.78196,-0.80165 1.36171,-0.80165 0.57975,0 1.21789,-0.26503 1.41809,-0.58896 0.2002,-0.32393 1.11624,-0.94175 2.03565,-1.37294 1.78166,-0.83558 3.36341,-1.7375 5.94709,-3.39109 0.88181,-0.56436 2.35554,-1.36997 3.27495,-1.79025 0.91941,-0.42028 1.83545,-1.02918 2.03565,-1.3531 0.2002,-0.32393 0.83079,-0.58896 1.40132,-0.58896 0.57052,0 1.03731,-0.22784 1.03731,-0.50631 0,-0.27846 1.26259,-1.13919 2.80576,-1.91271 1.54317,-0.77353 3.18543,-1.74815 3.64948,-2.16584 0.46405,-0.41769 1.08813,-0.75944 1.38685,-0.75944 0.29872,0 0.97841,-0.48099 1.51043,-1.06886 0.53202,-0.58787 1.50554,-1.06886 2.16337,-1.06886 0.65784,0 1.3345,-0.36074 1.50369,-0.80164 0.16919,-0.44091 0.77042,-0.80165 1.33607,-0.80165 0.56565,0 1.16688,-0.36074 1.33608,-0.80164 0.16919,-0.4409 0.8037,-0.80164 1.41002,-0.80164 0.60632,0 1.24084,-0.36074 1.41002,-0.80165 0.1692,-0.4409 0.66482,-0.80164 1.10141,-0.80164 0.43657,0 1.40525,-0.48099 2.15261,-1.06886 0.74736,-0.58787 1.65769,-1.06886 2.02296,-1.06886 0.36528,0 0.96353,-0.36074 1.32945,-0.80165 0.36591,-0.4409 1.09111,-0.80164 1.61155,-0.80164 0.52043,0 1.08466,-0.36074 1.25386,-0.80164 0.16919,-0.44091 0.7667,-0.80165 1.32781,-0.80165 0.56111,0 1.31958,-0.36074 1.6855,-0.80164 0.36592,-0.44091 0.9966,-0.80165 1.40151,-0.80165 0.62326,0 0.73621,-19.4735 0.73621,-126.92703 0,-107.45352 -0.11295,-126.92703 -0.73621,-126.92703 -0.40491,0 -1.03559,-0.36074 -1.40151,-0.80164 -0.36592,-0.44091 -1.12439,-0.80165 -1.6855,-0.80165 -0.56111,0 -1.15862,-0.36074 -1.32781,-0.80164 -0.1692,-0.44091 -0.74868,-0.80165 -1.28776,-0.80165 -0.53908,0 -1.13103,-0.24413 -1.31544,-0.54252 -0.18442,-0.29839 -1.10046,-0.90606 -2.03565,-1.35037 -2.35689,-1.11977 -4.08744,-2.15092 -4.79159,-2.85507 -0.32798,-0.32798 -1.03677,-0.59633 -1.57507,-0.59633 -0.53832,0 -1.11718,-0.36074 -1.28637,-0.80165 -0.1692,-0.4409 -0.77043,-0.80164 -1.33608,-0.80164 -0.56565,0 -1.16688,-0.36074 -1.33607,-0.80164 -0.16919,-0.44091 -0.84585,-0.80165 -1.50369,-0.80165 -0.65783,0 -1.63135,-0.48099 -2.16337,-1.06886 -0.53202,-0.58787 -1.21171,-1.06886 -1.51043,-1.06886 -0.29872,0 -0.9228,-0.34174 -1.38685,-0.75943 -0.46405,-0.41769 -2.10631,-1.39232 -3.64948,-2.16584 -1.54317,-0.77353 -2.80576,-1.63425 -2.80576,-1.91272 0,-0.27847 -0.46679,-0.5063 -1.03731,-0.5063 -0.57053,0 -1.20112,-0.26504 -1.40132,-0.58896 -0.2002,-0.32393 -1.11624,-0.94176 -2.03565,-1.37294 -1.78166,-0.83558 -3.36341,-1.73751 -5.94709,-3.391091 -0.88181,-0.56436 -2.35554,-1.36998 -3.27495,-1.79026 -0.91941,-0.42027 -1.83545,-1.02917 -2.03565,-1.3531 -0.2002,-0.32392 -0.83834,-0.58896 -1.41809,-0.58896 -0.57975,0 -1.19252,-0.36074 -1.36171,-0.80164 -0.16919,-0.44091 -0.73343,-0.80165 -1.25386,-0.80165 -0.52044,0 -1.24563,-0.36074 -1.61155,-0.80164 -0.36592,-0.4409 -1.1049,-0.80164 -1.64217,-0.80164 -0.53728,0 -1.16919,-0.30569 -1.40424,-0.6793 -0.23506,-0.37361 -1.02862,-0.97739 -1.76346,-1.34175 -0.73484,-0.36435 -2.05755,-1.13732 -2.93936,-1.7177 -0.88181,-0.58039 -2.13271,-1.28892 -2.77977,-1.57451 -0.64707,-0.28559 -2.21027,-1.1861 -3.47379,-2.00112 -3.73,-2.406022 -4.34818,-2.770027 -6.17193,-3.634307 -0.95529,-0.45271 -1.73689,-1.060378 -1.73689,-1.35037 0,-0.289992 -0.45154,-0.527257 -1.00343,-0.527257 -0.55188,0 -1.3028,-0.36074 -1.66872,-0.801645 -0.36592,-0.440904 -0.99907,-0.801644 -1.407,-0.801644 -0.40793,0 -1.93922,-0.841727 -3.40287,-1.870504 -1.46365,-1.028777 -3.03194,-1.870503 -3.48508,-1.870503 -0.45315,0 -0.96233,-0.36074 -1.13152,-0.801645 -0.16919,-0.440904 -0.89067,-0.801644 -1.60329,-0.801644 -0.71262,0 -1.4341,-0.36074 -1.60329,-0.801645 -0.16919,-0.440904 -0.75092,-0.801644 -1.29275,-0.801644 -0.54182,0 -1.17744,-0.305683 -1.4125,-0.679292 -0.23506,-0.373609 -1.02861,-0.970604 -1.76345,-1.326657 -0.73484,-0.356048 -2.77903,-1.495869 -4.54265,-2.532924 -1.76362,-1.037055 -3.98818,-2.246988 -4.94348,-2.688737 -0.95529,-0.441749 -1.73689,-0.983414 -1.73689,-1.203706 0,-0.397541 -0.8366,-0.904303 -4.10529,-2.48676 -0.93519,-0.452747 -1.85123,-1.06732 -2.03565,-1.365708 -0.18441,-0.298388 -0.80964,-0.542526 -1.38939,-0.542526 -0.57975,0 -1.19252,-0.36074 -1.36171,-0.801645 -0.16919,-0.440904 -0.71478,-0.801644 -1.21242,-0.801644 -0.49763,0 -1.17314,-0.268348 -1.50112,-0.596327 -0.70415,-0.704154 -2.4347,-1.735304 -4.79159,-2.855073 -0.93519,-0.444314 -1.85124,-1.051982 -2.03565,-1.35037 -0.18441,-0.298388 -0.79014,-0.542526 -1.34606,-0.542526 -0.55592,0 -1.20308,-0.300841 -1.43814,-0.668539 -0.23506,-0.367693 -1.5096,-1.231583 -2.83231,-1.919757 -1.32272,-0.688169 -3.36691,-1.824575 -4.54266,-2.525346 -1.17574,-0.700776 -2.71344,-1.527544 -3.41711,-1.837273 -0.70366,-0.309728 -2.14662,-1.226108 -3.20657,-2.036401 -1.05995,-0.810294 -3.2499,-2.144779 -4.86655,-2.965523 -1.61665,-0.820745 -3.66085,-1.950697 -4.54265,-2.511006 -0.88181,-0.560309 -2.12104,-1.247973 -2.75385,-1.528143 -0.6328,-0.28017 -1.30835,-0.764727 -1.50122,-1.076794 -0.19286,-0.312067 -0.78019,-0.567395 -1.30516,-0.567395 -0.52497,0 -1.38977,-0.480987 -1.92179,-1.068859 -0.53202,-0.587873 -1.41856,-1.068859 -1.9701,-1.068859 -0.55155,0 -1.14124,-0.36074 -1.31043,-0.801645 -0.16919,-0.440904 -0.73343,-0.801644 -1.25386,-0.801644 -0.52044,0 -1.24563,-0.36074 -1.61155,-0.801644 -0.36592,-0.440905 -0.96715,-0.801645 -1.33607,-0.801645 -0.36893,0 -0.97016,-0.36074 -1.33608,-0.801644 -0.36592,-0.440905 -1.12439,-0.801645 -1.6855,-0.801645 -0.56111,0 -1.15217,-0.343935 -1.31348,-0.7643 -0.16131,-0.420365 -0.93537,-1.020493 -1.72012,-1.333616 -1.78024,-0.710327 -7.03266,-3.661355 -8.10721,-4.554971 -0.4409,-0.366663 -1.16238,-0.834936 -1.60329,-1.040606 -0.4409,-0.20567 -1.76361,-0.957994 -2.93936,-1.671832 -1.17575,-0.713837 -2.65547,-1.529256 -3.28827,-1.812041 -0.6328,-0.282785 -1.30835,-0.769482 -1.50122,-1.081549 -0.19287,-0.312068 -0.82501,-0.567395 -1.40476,-0.567395 -0.57975,0 -1.19252,-0.36074 -1.36171,-0.801644 -0.1692,-0.440905 -0.72561,-0.801645 -1.23648,-0.801645 -0.51086,0 -1.36413,-0.480986 -1.89615,-1.068859 -0.53202,-0.5878734 -1.41857,-1.0688594 -1.97011,-1.0688594 -0.55154,0 -1.14123,-0.36074 -1.31042,-0.801645 -0.16919,-0.440904 -0.73343,-0.801644 -1.25386,-0.801644 -0.52044,0 -1.24563,-0.36074 -1.61155,-0.801644 -0.36592,-0.440905 -1.1049,-0.801645 -1.64217,-0.801645 -0.53728,0 -1.2124,-0.420863 -1.50026,-0.935252 -0.45706,-0.816714 -1.41349,-0.935251 -7.54616,-0.935251 -6.13268,0 -7.08911,0.118537 -7.54617,0.935251 -0.28786,0.514389 -1.08694,0.935252 -1.77573,0.935252 -0.68879,0 -1.39077,0.36074 -1.55996,0.801645 -0.16919,0.440904 -0.77043,0.801644 -1.33608,0.801644 -0.56564,0 -1.16688,0.36074 -1.33607,0.801644 -0.16919,0.440905 -0.75888,0.801645 -1.31042,0.801645 -0.55154,0 -1.43809,0.480986 -1.97011,1.0688594 -0.53202,0.587873 -1.38529,1.068859 -1.89615,1.068859 -0.51087,0 -1.06728,0.36074 -1.23648,0.801645 -0.16919,0.440904 -0.78196,0.801644 -1.36171,0.801644 -0.57975,0 -1.21189,0.255327 -1.40476,0.567395 -0.19287,0.312067 -0.86842,0.798764 -1.50122,1.081549 -0.6328,0.282785 -2.11252,1.098204 -3.28827,1.812041 -1.17575,0.713838 -2.49846,1.473383 -2.93936,1.687878 -0.44091,0.214494 -2.00411,1.135909 -3.4738,2.047587 -1.46968,0.911679 -3.15313,1.953598 -3.741,2.315375 -0.58788,0.361778 -1.71094,0.911602 -2.4957,1.221831 -0.78475,0.310229 -1.55881,0.907989 -1.72012,1.328354 -0.16131,0.420365 -0.75237,0.7643 -1.31348,0.7643 -0.56111,0 -1.31958,0.36074 -1.6855,0.801645 -0.36592,0.440904 -0.96715,0.801644 -1.33608,0.801644 -0.36892,0 -0.97015,0.36074 -1.33607,0.801645 -0.36592,0.440904 -1.09111,0.801644 -1.61155,0.801644 -0.52043,0 -1.08467,0.36074 -1.25386,0.801644 -0.16919,0.440905 -0.75888,0.801645 -1.31043,0.801645 -0.55154,0 -1.43808,0.480986 -1.9701,1.068859 -0.53202,0.587872 -1.39682,1.068859 -1.92179,1.068859 -0.52497,0 -1.1123,0.255328 -1.30516,0.567395 -0.19287,0.312067 -0.86842,0.796624 -1.50122,1.076794 -0.63281,0.28017 -1.87204,0.967834 -2.75385,1.528143 -0.8818,0.560309 -2.926,1.695358 -4.54265,2.522332 -1.61665,0.826974 -4.02158,2.243708 -5.34429,3.148298 -1.32272,0.90459 -2.76568,1.814967 -3.20658,2.023061 -0.44091,0.208091 -1.76362,0.952615 -2.93936,1.654498 -1.17575,0.701877 -3.21994,1.839191 -4.54266,2.52736 -1.32271,0.688174 -2.59725,1.552064 -2.83231,1.919757 -0.23506,0.367698 -0.88222,0.668539 -1.43814,0.668539 -0.55592,0 -1.16165,0.244138 -1.34606,0.542526 -0.18441,0.298388 -1.10046,0.906056 -2.03565,1.35037 -2.35689,1.119769 -4.08744,2.150919 -4.79159,2.855073 -0.32798,0.327979 -1.00349,0.596327 -1.50112,0.596327 -0.49764,0 -1.04323,0.36074 -1.21242,0.801644 -0.16919,0.440905 -0.78196,0.801645 -1.36171,0.801645 -0.57975,0 -1.20498,0.244138 -1.38939,0.542526 -0.18442,0.298388 -1.10046,0.912961 -2.03565,1.365708 -3.26869,1.582457 -4.10529,2.089219 -4.10529,2.48676 0,0.220292 -0.7816,0.761957 -1.73689,1.203706 -0.9553,0.441749 -3.17986,1.651682 -4.94348,2.688737 -1.76362,1.037055 -3.80781,2.176876 -4.54265,2.532924 -0.73484,0.356053 -1.52839,0.953048 -1.76345,1.326657 -0.23506,0.373609 -0.87068,0.679292 -1.4125,0.679292 -0.54183,0 -1.12356,0.36074 -1.29275,0.801644 -0.16919,0.440905 -0.89067,0.801645 -1.60329,0.801645 -0.71262,0 -1.4341,0.36074 -1.60329,0.801644 -0.16919,0.440905 -0.67837,0.801645 -1.13152,0.801645 -0.45314,0 -2.02143,0.841726 -3.48508,1.870503 -1.46365,1.028777 -2.99494,1.870504 -3.40287,1.870504 -0.40793,0 -1.04108,0.36074 -1.407,0.801644 -0.36592,0.440905 -1.11684,0.801645 -1.66872,0.801645 -0.55189,0 -1.00343,0.237265 -1.00343,0.527257 0,0.289992 -0.7816,0.89766 -1.73689,1.35037 -2.10813,0.999042 -3.78238,1.97235 -4.75287,2.763027 -0.39877,0.32489 -2.40849,1.49223 -4.46604,2.5941 -2.05756,1.10187 -4.314545,2.44999 -5.015545,2.99583 -0.701,0.54584 -1.57712,0.99244 -1.94693,0.99244 -0.36982,0 -0.81082,0.36074 -0.98002,0.80164 -0.16919,0.44091 -0.7667,0.80165 -1.32781,0.80165 -0.56111,0 -1.31958,0.36074 -1.6855,0.80164 -0.36592,0.4409 -1.06875,0.80164 -1.56184,0.80164 -0.49309,0 -1.16488,0.26835 -1.49286,0.59633 -0.70416,0.70416 -2.4347,1.73531 -4.79159,2.85507 -0.9352,0.44432 -1.85124,1.05199 -2.03566,1.35037 -0.18441,0.29839 -0.80209,0.54253 -1.37261,0.54253 -0.57053,0 -1.03732,0.22737 -1.03732,0.50527 0,0.27789 -0.59432,0.819 -1.32071,1.202461 -0.72639,0.38347 -2.70495,1.41868 -4.39681,2.30049 -1.69185,0.88181 -3.50246,2.02415 -4.02358,2.53854 -0.52112,0.51439 -1.21323,0.93526 -1.53802,0.93526 -0.3248,0 -1.65957,0.72148 -2.96616,1.60328 -1.30659,0.88181 -2.56679,1.60329 -2.80043,1.60329 -0.23364,0 -0.8601,0.48099 -1.39211,1.06886 -0.53202,0.58787 -1.50554,1.06886 -2.16337,1.06886 -0.65784,0 -1.3345,0.36074 -1.50369,0.80165 -0.16919,0.4409 -0.77042,0.80164 -1.33607,0.80164 -0.56565,0 -1.16689,0.36074 -1.33608,0.80164 -0.16919,0.44091 -0.74805,0.80165 -1.28636,0.80165 -0.53831,0 -1.2471,0.26835 -1.57507,0.59633 -0.70416,0.70415 -2.43471,1.7353 -4.79159,2.85507 -0.9352,0.44431 -1.85124,1.05198 -2.03566,1.35037 -0.18441,0.29839 -0.77636,0.54252 -1.31544,0.54252 -0.53907,0 -1.11857,0.36074 -1.28776,0.80165 -0.16919,0.4409 -0.7667,0.80164 -1.32781,0.80164 -0.56111,0 -1.31958,0.36074 -1.6855,0.80165 -0.36592,0.4409 -0.9966,0.80164 -1.40151,0.80164 -0.62326,0 -0.73621,19.47351 -0.73621,126.92703 0,107.45353 0.11295,126.92703 0.73621,126.92703 0.40491,0 1.03559,0.36074 1.40151,0.80165 0.36592,0.4409 1.12439,0.80164 1.6855,0.80164 0.56111,0 1.15862,0.36074 1.32781,0.80165 0.16919,0.4409 0.73343,0.80164 1.25387,0.80164 0.52043,0 1.24563,0.36074 1.61154,0.80164 0.36592,0.44091 0.96417,0.80165 1.32944,0.80165 0.36528,0 1.27561,0.48099 2.02297,1.06886 0.74736,0.58787 1.71604,1.06886 2.15261,1.06886 0.43658,0 0.93221,0.36074 1.1014,0.80164 0.16919,0.44091 0.80371,0.80165 1.41003,0.80165 0.60632,0 1.24083,0.36074 1.41002,0.80164 0.16919,0.4409 0.77043,0.80164 1.33608,0.80164 0.56565,0 1.16688,0.36074 1.33607,0.80165 0.16919,0.4409 0.84585,0.80164 1.50369,0.80164 0.65783,0 1.63135,0.48099 2.16337,1.06886 0.53201,0.58787 1.21171,1.06886 1.51043,1.06886 0.29872,0 0.9228,0.34175 1.38685,0.75944 0.46405,0.41769 2.10631,1.39231 3.64948,2.16584 1.54317,0.77352 2.80576,1.63425 2.80576,1.91271 0,0.27847 0.46679,0.50631 1.03731,0.50631 0.57053,0 1.20112,0.26503 1.40132,0.58896 0.2002,0.32392 1.11624,0.94175 2.03565,1.37294 1.78166,0.83557 3.36341,1.7375 5.94709,3.39108 0.88181,0.56437 2.35554,1.36998 3.27495,1.79026 0.91941,0.42028 1.83545,1.02917 2.03565,1.3531 0.2002,0.32393 0.83834,0.58896 1.41809,0.58896 0.57975,0 1.19252,0.36074 1.36171,0.80165 0.16919,0.4409 0.77042,0.80164 1.33607,0.80164 0.56565,0 1.16688,0.36074 1.33607,0.80164 0.1692,0.44091 0.87118,0.80165 1.55997,0.80165 0.68879,0 1.44466,0.30568 1.67971,0.67929 0.23506,0.37361 1.02862,0.9774 1.76346,1.34175 0.73484,0.36435 2.05755,1.13732 2.93936,1.7177 0.88181,0.5804 2.132705,1.28892 2.779765,1.57451 0.64707,0.28559 2.21027,1.1861 3.47379,2.00113 3.73,2.40602 4.34818,2.77002 6.17193,3.6343 0.95529,0.45271 1.73689,1.06038 1.73689,1.35037 0,0.28999 0.45154,0.52726 1.00343,0.52726 0.55188,0 1.3028,0.36074 1.66872,0.80164 0.36592,0.44091 0.98454,0.80165 1.37472,0.80165 0.39018,0 1.76608,0.71313 3.05755,1.58473 1.29147,0.8716 2.98698,1.82763 3.7678,2.12449 0.78081,0.29687 1.41967,0.78621 1.41967,1.08742 0,0.30121 0.60877,0.54765 1.35284,0.54765 0.74407,0 1.49128,0.36074 1.66047,0.80165 0.16919,0.4409 0.75092,0.80164 1.29275,0.80164 0.54182,0 1.17744,0.30569 1.4125,0.67929 0.23506,0.37361 1.02861,0.97061 1.76345,1.32666 0.73484,0.35605 2.77903,1.49587 4.54265,2.53293 1.76362,1.03705 3.98818,2.24698 4.94348,2.68873 0.95529,0.44175 1.73689,0.98772 1.73689,1.21327 0,0.22555 0.66136,0.70588 1.46968,1.06741 1.96616,0.87937 3.83206,1.99283 4.56092,2.7217 0.32798,0.32797 1.03676,0.59632 1.57507,0.59632 0.53832,0 1.11718,0.36074 1.28637,0.80165 0.16919,0.4409 0.71478,0.80164 1.21242,0.80164 0.49763,0 1.17314,0.26835 1.50112,0.59633 0.70415,0.70415 2.4347,1.7353 4.79159,2.85507 0.93519,0.44432 1.85124,1.05198 2.03565,1.35037 0.18441,0.29839 0.80964,0.54253 1.38939,0.54253 0.57975,0 1.19252,0.36074 1.36171,0.80164 0.1692,0.44091 0.74868,0.80165 1.28776,0.80165 0.53908,0 1.13795,0.25533 1.33081,0.56739 0.19287,0.31207 0.86842,0.80543 1.50123,1.09636 0.6328,0.29092 2.11252,1.10804 3.28827,1.81582 1.17574,0.70777 2.85919,1.6638 3.741,2.12451 2.73285,1.42782 4.13929,2.29727 4.48124,2.77026 0.18075,0.25001 1.65134,1.13246 3.26799,1.96101 1.61665,0.82855 3.66085,1.96489 4.54265,2.5252 0.88181,0.56031 2.12104,1.24798 2.75385,1.52815 0.6328,0.28016 1.30835,0.76472 1.50122,1.07679 0.19286,0.31207 0.78019,0.56739 1.30516,0.56739 0.52497,0 1.38977,0.48099 1.92179,1.06886 0.53202,0.58788 1.41856,1.06886 1.9701,1.06886 0.55155,0 1.14124,0.36074 1.31043,0.80165 0.16919,0.4409 0.73343,0.80164 1.25386,0.80164 0.52044,0 1.24563,0.36074 1.61155,0.80165 0.36592,0.4409 0.96715,0.80164 1.33607,0.80164 0.36893,0 0.97016,0.36074 1.33608,0.80164 0.36592,0.44091 1.12439,0.80165 1.6855,0.80165 0.56111,0 1.15217,0.34394 1.31348,0.7643 0.16131,0.42036 0.93537,1.02049 1.72012,1.33361 1.78024,0.71033 7.03266,3.66136 8.10721,4.55498 0.4409,0.36666 1.16238,0.82826 1.60329,1.02578 0.4409,0.19752 1.76361,0.94318 2.93936,1.65703 1.17575,0.71385 2.65547,1.53593 3.28827,1.82686 0.6328,0.29093 1.30835,0.78429 1.50122,1.09636 0.19287,0.31206 0.82501,0.56739 1.40476,0.56739 0.57975,0 1.19252,0.36074 1.36171,0.80164 0.1692,0.44091 0.72561,0.80165 1.23648,0.80165 0.51086,0 1.36413,0.48098 1.89615,1.06886 0.53202,0.58787 1.41857,1.06886 1.97011,1.06886 0.55154,0 1.14123,0.36074 1.31042,0.80164 0.16919,0.44091 0.73343,0.80165 1.25386,0.80165 0.52044,0 1.24563,0.36074 1.61155,0.80164 0.36592,0.4409 1.1049,0.80164 1.64217,0.80164 0.53728,0 1.16919,0.33394 1.40425,0.74208 0.65449,1.13641 2.05317,1.33476 8.61787,1.2221 5.1282,-0.088 6.13229,-0.24595 6.57332,-1.03402 z m -19.67728,-22.76541 c -5.93571,-3.49247 -11.94804,-6.99162 -13.36074,-7.77588 -2.50508,-1.3907 -18.3872,-10.55794 -42.11633,-24.30977 -6.4666,-3.74761 -12.95992,-7.4782 -14.4296,-8.29021 -1.46968,-0.812 -7.72251,-4.41958 -13.89517,-8.01685 -6.17266,-3.59726 -12.185,-7.07413 -13.36074,-7.72636 -1.17575,-0.65223 -7.42857,-4.25776 -13.89517,-8.01227 -6.4666,-3.75451 -12.95992,-7.49463 -14.4296,-8.31136 -1.46968,-0.81674 -8.17124,-4.693 -14.892354,-8.6139 -6.72111,-3.92092 -12.29706,-7.12893 -12.39099,-7.12893 -0.0939,0 -5.777792,-3.27412 -12.630782,-7.27582 -6.85299,-4.00169 -14.02319,-8.11638 -15.93377,-9.14374 -1.91059,-1.02737 -3.89466,-2.34927 -4.40905,-2.93756 -0.88441,-1.01147 -0.93525,-7.22742 -0.93525,-114.34462 0,-73.30391 0.18565,-113.62191 0.52613,-114.25809 0.28938,-0.54071 2.1532,-1.88285 4.14183,-2.98256 1.98864,-1.09971 9.50778,-5.40865 16.70922,-9.57542 7.20144,-4.16677 19.707102,-11.38824 27.790346,-16.04771 8.08325,-4.65946 19.74718,-11.399528 25.91984,-14.977938 6.17266,-3.5784 12.42549,-7.17075 13.89517,-7.983 1.46968,-0.81225 8.56423,-4.89361 15.76567,-9.0697 23.11318,-13.40325 38.1478,-22.08148 40.63366,-23.45442 3.16066,-1.74564 27.26652,-15.71779 28.30776,-16.40764 0.44091,-0.29211 1.16239,-0.6958 1.60329,-0.89707 0.44091,-0.20128 5.6647,-3.20592 11.60844,-6.67697 5.94374,-3.47106 11.30247,-6.31101 11.90829,-6.31101 0.60582,0 6.65256,3.24666 13.43719,7.2148 6.78464,3.96814 12.4142,7.2148 12.51013,7.2148 0.0959,0 6.35148,3.6074 13.90121,8.01644 7.54974,4.40905 13.80256,8.01645 13.89517,8.01645 0.0926,0 6.34544,3.60739 13.89517,8.01644 7.54974,4.40904 13.80256,8.01644 13.89517,8.01644 0.0926,0 6.34544,3.6074 13.89517,8.01645 7.54974,4.40904 13.80256,8.01644 13.89517,8.01644 0.0926,0 6.34544,3.6074 13.89517,8.01644 7.54974,4.40905 13.80256,8.016448 13.89517,8.016448 0.0926,0 6.34544,3.6074 13.89517,8.01644 7.54973,4.40905 13.80132,8.01645 13.89242,8.01645 0.0911,0 5.65237,3.19953 12.3584,7.11005 6.70602,3.91054 14.05737,8.13645 16.33634,9.39092 2.27897,1.25447 4.38328,2.72876 4.67626,3.27619 0.34915,0.6524 0.53268,40.05181 0.53268,114.35506 v 113.35972 l -1.28665,1.17695 c -0.70765,0.64732 -2.45123,1.79478 -3.87461,2.5499 -2.45549,1.30268 -9.27723,5.23063 -40.79969,23.49241 -7.49537,4.34227 -14.58992,8.42889 -15.76567,9.08139 -1.17574,0.6525 -7.54882,4.31606 -14.16238,8.14125 -6.61357,3.82518 -18.2775,10.56131 -25.91984,14.96918 -7.64234,4.40787 -20.02775,11.55718 -27.52313,15.88736 -7.49537,4.33018 -20.00102,11.54468 -27.79034,16.03221 -7.78931,4.48754 -20.11768,11.6155 -27.39639,15.83992 -7.2787,4.22442 -13.77202,7.66758 -14.4296,7.65149 -0.65757,-0.0161 -6.05208,-2.88676 -11.98779,-6.37924 z M 82.189104,336.70362 c 1.32895,-0.67088 1.3375,-0.72282 1.60329,-9.74546 0.19291,-6.54874 0.49012,-9.5168 1.06885,-10.67428 0.946422,-1.89284 4.797892,-4.00823 7.297742,-4.00823 1.17875,0 1.99105,-0.37704 2.55891,-1.18777 0.99965,-1.4272 1.13349,-6.57923 0.18613,-7.16473 -1.48049,-0.91499 -5.78409,-0.32932 -7.90793,1.07616 -2.536702,1.67872 -2.994132,1.71894 -3.738132,0.32876 -0.47295,-0.8837 -1.119,-1.06886 -3.72951,-1.06886 -4.91371,0 -4.82137,-0.31762 -4.82137,16.58409 0,10.55257 0.17189,14.42949 0.66804,15.06724 1.14551,1.47245 4.65829,1.8813 6.81398,0.79308 z m 247.033256,-0.71139 c 7.00183,-3.62073 10.47187,-10.85566 9.01052,-18.7867 -1.58445,-8.59911 -8.69406,-14.003 -17.58038,-13.36255 -8.84551,0.63752 -15.30435,7.69226 -15.30435,16.71633 0,7.72144 5.03471,14.44467 12.2572,16.36797 2.48338,0.6613 9.64462,0.0849 11.61701,-0.93505 z m -11.18408,-6.65599 c -3.81083,-2.44104 -5.20836,-9.22442 -2.88797,-14.01773 2.05213,-4.23913 6.05682,-5.69316 10.05806,-3.65188 3.36554,1.71697 4.67442,4.29554 4.67462,9.20932 1.5e-4,3.42597 -0.20291,4.35403 -1.30444,5.9616 -0.71753,1.04717 -1.95394,2.28752 -2.74757,2.75633 -2.02048,1.19353 -5.71805,1.07129 -7.7927,-0.25764 z m -204.85226,6.45432 c 0.96854,-0.96854 1.06914,-1.7837 1.07185,-8.68449 0.003,-8.43884 0.44855,-10.80818 2.48615,-13.22973 2.88866,-3.43298 7.65921,-4.32723 10.09425,-1.89219 1.30061,1.3006 1.31178,1.3982 1.31178,11.45544 0,5.57902 0.22963,10.74762 0.51028,11.48578 0.64782,1.7039 3.52493,2.36299 5.72381,1.31122 l 1.51514,-0.72473 0.26722,-9.61399 c 0.24141,-8.68576 0.37975,-9.79459 1.43277,-11.4845 0.64105,-1.02878 1.88062,-2.29137 2.7546,-2.80575 1.76467,-1.03861 4.95451,-1.2286 6.5241,-0.38858 2.08394,1.11529 2.37367,2.59453 2.64927,13.52626 0.24723,9.80627 0.34717,10.65884 1.33607,11.39733 1.20667,0.90111 4.62682,0.68692 5.89969,-0.36947 1.16052,-0.96315 1.11254,-19.11165 -0.0626,-23.68758 -1.41748,-5.51949 -4.52163,-7.9118 -10.31699,-7.95112 -3.73509,-0.0253 -6.90527,1.0805 -9.81351,3.42323 l -1.46713,1.18183 -1.47223,-1.3775 c -2.50218,-2.34116 -4.81295,-3.20411 -8.64404,-3.22809 -3.61316,-0.0226 -5.56692,0.64407 -8.72091,2.97587 -0.80471,0.59494 -1.53885,0.97854 -1.63143,0.85246 -0.0926,-0.1261 -0.58207,-0.89061 -1.08776,-1.69894 -0.77929,-1.24568 -1.28221,-1.46968 -3.29972,-1.46968 -4.02985,0 -4.08591,0.23795 -3.90023,16.55638 0.14945,13.13503 0.22288,14.04016 1.19662,14.75153 1.51374,1.10585 4.38433,0.94765 5.64297,-0.31099 z m 74.44612,-0.93526 c 1.41093,-0.95529 2.68603,-1.73689 2.83356,-1.73689 0.14752,0 0.51139,0.69756 0.8086,1.55014 0.4058,1.16408 0.98141,1.63288 2.31119,1.88235 2.09877,0.39373 4.29402,-0.32653 4.76917,-1.56476 0.18706,-0.48746 0.3401,-7.04039 0.3401,-14.56207 0,-15.47254 -0.0386,-15.63043 -3.82384,-15.63043 -1.98251,0 -3.75867,1.10312 -4.27625,2.65586 -0.1463,0.4389 -1.08437,0.11376 -2.87255,-0.99566 -6.35638,-3.94359 -14.15802,-2.90495 -19.05005,2.53617 -2.58857,2.87911 -4.1808,7.24519 -4.1808,11.46423 0,5.16967 3.02575,11.47435 6.55299,13.65431 4.31405,2.66622 4.80415,2.80275 9.4799,2.6409 4.11078,-0.1423 4.78653,-0.32238 7.10798,-1.89415 z m -10.90357,-5.61856 c -5.64158,-3.75763 -5.13607,-14.84879 0.79963,-17.54439 2.90648,-1.31993 4.94139,-1.27247 7.82399,0.18248 6.0144,3.03568 6.92882,11.35937 1.7907,16.3001 -2.22833,2.14274 -2.53861,2.27133 -5.48023,2.27133 -2.34783,0 -3.56678,-0.29881 -4.93409,-1.20952 z m 37.69369,6.78286 c 0.68771,-0.68771 0.83982,-2.27044 0.83982,-8.73834 0,-4.34419 0.2633,-8.71601 0.58512,-9.71517 0.94596,-2.93701 3.82707,-5.16384 7.23136,-5.58918 3.36551,-0.42049 3.94097,-1.11477 3.94097,-4.75466 0,-2.04917 -0.20452,-2.54472 -1.24615,-3.01931 -1.72599,-0.78641 -5.02855,0.17276 -7.58217,2.20212 -2.16558,1.72099 -2.23741,1.71797 -3.15484,-0.13227 -0.45613,-0.91989 -1.14033,-1.2513 -2.83934,-1.37527 -1.23113,-0.0898 -2.72858,0.099 -3.32768,0.41962 -1.0554,0.56483 -1.08928,1.03845 -1.08928,15.2228 0,16.42107 -0.0233,16.31947 3.741,16.31947 1.1614,0 2.42803,-0.36665 2.90119,-0.83981 z m 25.01335,-0.4117 c 0.21662,-0.34044 0.39755,-2.34411 0.40205,-4.4526 0.007,-3.33797 0.18706,-4.0462 1.39176,-5.4779 0.76098,-0.90436 1.7119,-1.6443 2.11317,-1.6443 0.40127,0 2.06948,2.22457 3.70712,4.94348 1.63766,2.71891 3.44899,5.50701 4.02519,6.19577 1.1341,1.35565 4.30949,2.06114 6.64205,1.47571 2.0399,-0.51198 1.74119,-2.14396 -1.23293,-6.73623 -6.17544,-9.53534 -7.01807,-10.94506 -7.01144,-11.73011 0.004,-0.45594 2.05949,-3.09394 4.56807,-5.86221 5.5031,-6.07281 5.71919,-7.17343 1.4567,-7.41952 -1.57951,-0.0912 -3.34718,0.14028 -4.08126,0.53443 -0.71223,0.38241 -3.38305,3.16035 -5.93518,6.1732 -2.55212,3.01284 -4.86407,5.4779 -5.13765,5.4779 -0.29501,0 -0.49742,-6.04564 -0.49742,-14.85714 0,-10.84299 -0.17327,-15.03042 -0.64131,-15.49846 -0.787,-0.787 -4.39867,-0.84179 -5.80698,-0.0881 -0.99811,0.53418 -1.03372,1.36827 -1.03372,24.21441 0,24.43132 0.0352,24.85319 2.13772,25.64933 1.15117,0.4359 4.46967,-0.16785 4.93406,-0.89767 z m 47.44004,-0.61899 c 1.52876,-1.02878 2.88159,-1.8705 3.00629,-1.8705 0.12471,0 0.45697,0.60554 0.73836,1.34565 0.28139,0.74012 1.15894,1.59178 1.95012,1.89258 1.59193,0.60525 4.50813,0.16842 5.11925,-0.76683 0.21595,-0.33049 0.39632,-11.31488 0.40082,-24.40974 0.006,-17.81474 -0.15328,-23.97029 -0.63314,-24.45015 -0.83147,-0.83147 -5.36791,-0.83147 -6.19938,0 -0.45449,0.45449 -0.64131,3.64599 -0.64131,10.95581 0,8.6244 -0.12619,10.31449 -0.77011,10.31449 -0.42355,0 -0.92156,-0.24507 -1.10668,-0.5446 -0.18511,-0.29952 -1.57946,-1.17441 -3.09855,-1.94418 -3.62996,-1.83945 -8.54709,-1.9021 -12.59556,-0.1605 -9.87379,4.24759 -12.13484,19.66379 -4.00527,27.30862 3.4619,3.25549 5.75227,4.1494 10.70026,4.17623 4.10998,0.0223 4.51193,-0.0817 7.1349,-1.84688 z m -10.76264,-5.85103 c -3.22495,-2.19141 -4.7338,-7.27527 -3.45985,-11.65749 1.62963,-5.60573 6.55781,-8.17319 11.61868,-6.05305 2.40877,1.00911 3.99868,2.79536 4.99068,5.60698 1.32922,3.76742 0.8384,7.23055 -1.44638,10.20536 -2.56778,3.34327 -8.22595,4.261 -11.70313,1.8982 z m 123.56242,7.1683 c 0.94382,-0.50512 1.03486,-1.19068 1.04679,-7.88283 0.0192,-10.77327 1.15155,-14.2688 5.39482,-16.65365 3.95453,-2.22257 7.34963,-0.85132 8.42035,3.40089 0.33075,1.31354 0.60137,6.35296 0.60137,11.19871 0,10.10696 0.1464,10.49011 4.00822,10.49011 3.90435,0 4.00822,-0.29328 4.00822,-11.31765 0,-14.32115 -1.23778,-18.05795 -6.8295,-20.61792 -3.97424,-1.81947 -8.07633,-1.501 -11.63932,0.90364 -3.17781,2.14467 -3.31341,2.16339 -4.12449,0.56945 -0.5599,-1.10032 -1.13288,-1.36512 -3.24719,-1.50066 -1.43413,-0.0919 -2.90282,0.11386 -3.32743,0.46626 -0.62389,0.51778 -0.76013,3.29633 -0.76013,15.50288 0,13.60004 0.08,14.91863 0.93525,15.41677 1.22172,0.71159 4.20401,0.72457 5.51304,0.024 z m -39.62292,-7.60841 c 1.97473,-3.75406 3.87379,-7.10894 4.22014,-7.45529 0.92902,-0.92903 1.42217,-0.25808 5.47958,7.45529 4.69086,8.91759 5.43199,9.12552 8.13696,2.28292 1.46819,-3.71399 4.39238,-10.798 5.18424,-12.5591 5.48062,-12.189 5.60223,-13.62795 1.15175,-13.62795 -1.40316,0 -2.95068,0.30062 -3.43894,0.66804 -0.48825,0.36742 -1.50746,2.35149 -2.26491,4.40904 -3.44795,9.36608 -4.132,10.95574 -4.71398,10.95483 -0.34173,-5.4e-4 -2.30477,-3.30732 -4.36233,-7.34841 -2.29737,-4.51209 -4.05035,-7.34743 -4.54265,-7.34743 -0.4916,0 -2.24849,2.8328 -4.54265,7.32452 -2.05755,4.02848 -3.90189,7.47611 -4.09853,7.66139 -0.51226,0.48268 -1.10701,-0.79819 -3.92991,-8.46348 -1.53309,-4.16296 -2.88908,-7.01756 -3.48496,-7.33647 -0.53649,-0.28712 -2.04401,-0.52203 -3.35005,-0.52203 -2.97559,0 -4.04043,1.03745 -3.19807,3.11581 0.31807,0.78477 1.94747,4.6735 3.62091,8.64164 1.67344,3.96814 4.00715,9.61973 5.18604,12.5591 1.17888,2.93936 2.39967,5.65652 2.71287,6.03812 1.38283,1.68487 2.63844,0.38575 6.23449,-6.45054 z M 84.562654,283.12046 c 6.840792,-3.69874 11.630162,-5.03248 19.805286,-5.51532 6.34781,-0.37492 7.23804,-0.55875 10.31223,-2.12942 1.85056,-0.9455 3.51385,-2.10789 3.6962,-2.5831 0.18236,-0.4752 0.047,-1.92779 -0.30071,-3.22798 -1.6859,-6.30339 4.44962,-12.67071 14.7918,-15.35064 8.03571,-2.08226 24.08494,-0.33324 39.10582,4.26169 8.43118,2.57912 10.60095,2.99997 15.76568,3.05793 16.09088,0.18056 33.54926,-8.36346 63.86433,-31.2548 3.95307,-2.98501 4.43573,-3.62364 3.87482,-5.12686 -0.79095,-2.11969 -6.60884,-8.06382 -10.28374,-10.5069 -5.46356,-3.63217 -4.98671,-3.9831 2.84272,-2.09205 3.96902,0.95863 9.4925,3.16599 12.79535,5.11342 4.02513,2.3733 4.70386,2.17311 12.51812,-3.69222 3.81815,-2.86587 7.70179,-5.75899 8.63031,-6.42915 0.92851,-0.67015 1.6882,-1.66468 1.6882,-2.21005 0,-1.51733 -6.19332,-6.94627 -11.33066,-9.93222 -2.5286,-1.46969 -4.48633,-2.85292 -4.35053,-3.07387 0.73576,-1.19703 12.01164,1.35368 20.45465,4.62704 l 5.04066,1.95427 2.44135,-1.50937 c 3.54387,-2.191 3.37293,-3.53158 -0.7625,-5.97996 -2.63605,-1.56068 -2.99009,-1.92725 -1.99775,-2.06845 0.66335,-0.0944 3.11619,0.44672 5.45075,1.20247 2.33456,0.75574 4.52471,1.37407 4.867,1.37407 0.34229,0 4.50179,-2.49323 9.24333,-5.54051 13.25882,-8.52114 26.96632,-16.36365 39.88512,-22.81958 6.6024,-3.29942 21.21698,-10.11884 21.68553,-10.11884 0.1566,0 1.29363,-0.43844 2.52673,-0.97432 6.63258,-2.88234 20.8043,-8.21148 26.69216,-10.03733 1.51114,-0.46861 2.53854,-1.10328 2.53854,-1.56815 0,-1.49961 -10.09433,-0.7665 -23.24769,1.6884 -2.35149,0.43887 -6.30781,1.04217 -8.79183,1.34067 -2.48402,0.2985 -4.93326,0.76582 -5.44277,1.03851 -0.5095,0.27267 -2.44527,0.49863 -4.30169,0.50212 -1.85643,0.004 -4.69803,0.36137 -6.31468,0.7953 -1.61665,0.43392 -3.78109,0.78873 -4.80987,0.78845 -1.02878,-2.8e-4 -3.55396,0.34929 -5.61151,0.77682 -2.05755,0.42754 -6.74717,1.29457 -10.42138,1.92675 -3.6742,0.63218 -8.36382,1.47124 -10.42138,1.86458 -2.05755,0.39334 -6.50668,1.22895 -9.88694,1.85691 -5.78192,1.07411 -8.21359,1.57248 -17.36897,3.55973 -16.59417,3.60191 -36.26719,8.44982 -49.70195,12.24776 -14.43968,4.08204 -34.77867,10.51986 -40.88387,12.94082 -1.39758,0.5542 -3.28893,1.28576 -9.10117,3.52024 -23.07719,8.87188 -43.21203,20.70401 -50.96497,29.9493 -3.03006,3.6133 -4.07491,5.42411 -7.17102,12.42802 -3.7957,8.58646 -7.83794,14.46966 -14.46182,21.04816 -7.1796,7.13041 -14.45245,12.06518 -25.81638,17.5169 -9.433384,4.52556 -14.552294,8.12013 -19.552006,13.72968 -2.5903,2.90625 -3.55328,5.06479 -2.25952,5.06479 0.29673,0 2.56501,-1.09517 5.04062,-2.43371 z m 75.922106,-54.5282 c 10.28558,-7.37848 46.62975,-27.2241 66.00034,-36.03929 3.38027,-1.53829 8.13464,-3.72845 10.56526,-4.86701 2.43062,-1.13857 4.55872,-2.07012 4.7291,-2.07012 0.17038,0 1.06761,-0.3443 1.99384,-0.76512 2.48142,-1.12738 9.4184,-4.04214 11.571,-4.86186 1.02878,-0.39176 3.07297,-1.17891 4.54265,-1.74922 14.0311,-5.44476 31.53205,-11.59907 41.95273,-14.75293 1.61665,-0.48928 4.50257,-1.36759 6.41315,-1.95179 7.40719,-2.2649 17.29224,-4.90626 28.05756,-7.4972 6.17266,-1.48561 12.54573,-3.0239 14.16238,-3.41845 5.6679,-1.38324 8.84356,-1.97386 11.75745,-2.18669 l 2.93937,-0.21469 -2.40494,0.82933 c -3.4449,1.18797 -6.2773,2.05305 -18.97225,5.79461 -19.30414,5.68946 -50.95691,16.41947 -67.87922,23.01046 -1.90692,0.74271 -4.97021,1.92644 -6.80732,2.6305 -11.11173,4.25852 -27.36376,10.85264 -34.3371,13.93198 -0.88181,0.38939 -2.80575,1.22749 -4.27544,1.86244 -3.4318,1.48264 -3.98399,1.72946 -8.96341,4.00653 -2.28446,1.04468 -4.25407,1.89942 -4.37692,1.89942 -0.21431,0 -3.81695,1.65927 -16.58772,7.63986 -3.2333,1.51417 -13.96294,6.7877 -23.84364,11.71897 -9.8807,4.93126 -18.17695,8.96593 -18.43611,8.96593 -0.25916,0 0.73049,-0.86205 2.19924,-1.91566 z"
     transform="matrix(0.96168024,0,0,0.96168024,9.5799424,9.5799393)" /></svg>
