<?xml version="1.0" encoding="UTF-8" standalone="no"?>
<svg
   viewBox="0 0 500 500"
   version="1.1"
   id="svg15965"
   xml:space="preserve"
   width="500"
   height="500"
   sodipodi:docname="sas.svg"
   inkscape:version="1.2.2 (732a01da63, 2022-12-09)"
   xmlns:inkscape="http://www.inkscape.org/namespaces/inkscape"
   xmlns:sodipodi="http://sodipodi.sourceforge.net/DTD/sodipodi-0.dtd"
   xmlns="http://www.w3.org/2000/svg"
   xmlns:svg="http://www.w3.org/2000/svg"><sodipodi:namedview
     id="namedview426"
     pagecolor="#ffffff"
     bordercolor="#666666"
     borderopacity="1.0"
     inkscape:showpageshadow="2"
     inkscape:pageopacity="0.0"
     inkscape:pagecheckerboard="0"
     inkscape:deskcolor="#d1d1d1"
     showgrid="false"
     inkscape:zoom="0.472"
     inkscape:cx="-11.652542"
     inkscape:cy="251.05932"
     inkscape:window-width="2560"
     inkscape:window-height="1373"
     inkscape:window-x="-9"
     inkscape:window-y="-9"
     inkscape:window-maximized="1"
     inkscape:current-layer="svg15965" /><defs
     id="defs15969" /><!--! Font Awesome Pro 6.3.0 by @fontawesome - https://fontawesome.com License - https://fontawesome.com/license (Commercial License) Copyright 2023 Fonticons, Inc. --><path
     style="fill:#f6c155;fill-opacity:1;stroke-width:0.195625"
     d="m 61.131361,352.45486 c -0.37658,-0.0436 -1.565,-0.17162 -2.64095,-0.28455 -3.0583,-0.32105 -6.37473,-0.91432 -9.783471,-1.75016 -21.588597,-5.29364 -39.0947283,-19.92074 -47.0317973,-39.29703 -0.545674,-1.33211 -0.992128,-2.45829 -0.992128,-2.50261 0,-0.0444 0.650641,0.78151 1.445875,1.83515 1.530731,2.02817 5.103031,5.63332 7.06384,7.12883 7.5356163,5.74739 17.1657063,9.48049 28.4635463,11.03386 3.114577,0.42824 11.568453,0.59485 14.890995,0.29347 9.96497,-0.90389 18.3908,-3.69006 25.43352,-8.41011 13.27218,-8.89504 21.42618,-20.93949 23.048639,-34.0456 0.44439,-3.58981 0.15923,-9.02302 -0.66251,-12.62299 -1.010449,-4.42665 -3.380499,-9.80028 -6.125949,-13.88943 -1.62598,-2.42174 -2.592,-3.61284 -19.11865,-23.5729 -12.53849,-15.14334 -11.75268,-14.15437 -12.51265,-15.74787 -0.844,-1.76974 -1.14497,-3.11707 -1.13593,-5.08508 0.0242,-5.27637 3.56681,-10.36151 8.95329,-12.85199 1.65362,-0.76456 3.98574,-1.33206 5.47407,-1.33206 1.17024,0 3.59136,0.50505 4.70071,0.98056 1.18856,0.50949 2.97225,1.75296 3.82759,2.66836 0.38679,0.41396 1.4417,1.67699 2.34423,2.80673 0.90254,1.12973 8.41835,10.241 16.701799,20.24726 8.28346,10.00626 15.74828,19.07351 16.5885,20.14945 11.31306,14.48705 17.03508,29.87907 16.50842,44.40704 -0.32438,8.94774 -2.59874,16.97365 -7.10982,25.0896 -8.633,15.53174 -25.0619,28.06366 -42.508569,32.42542 -6.99342,1.74841 -11.16756,2.26383 -18.97569,2.34322 -3.38922,0.0344 -6.47033,0.027 -6.84691,-0.0166 z m 84.565369,-36.83872 c -2.11658,-0.53994 -4.2933,-2.26975 -5.20633,-4.13743 -2.00572,-4.10286 -0.3904,-8.77111 3.7317,-10.78458 1.25125,-0.61118 1.43657,-0.64562 3.47365,-0.64562 2.02543,0 2.22745,0.037 3.43785,0.62854 1.5717,0.76819 3.12407,2.34519 3.8564,3.9176 0.46773,1.00428 0.52452,1.35761 0.52747,3.28146 0.003,2.04273 -0.0302,2.22421 -0.63593,3.45449 -0.82118,1.66803 -2.52084,3.28117 -4.09793,3.88928 -1.22748,0.47332 -3.95261,0.6856 -5.08688,0.39626 z m 4.68838,-1.72929 c 1.2985,-0.56879 2.52303,-1.79174 3.14794,-3.14392 0.34406,-0.74445 0.42272,-1.27874 0.42272,-2.87093 0,-1.7432 -0.0592,-2.07687 -0.5438,-3.06361 -1.41122,-2.87371 -4.8061,-4.24594 -7.93406,-3.207 -1.35589,0.45036 -2.98267,1.95008 -3.68461,3.39683 -0.46477,0.95795 -0.54099,1.35862 -0.54664,2.87378 -0.006,1.53169 0.0633,1.9028 0.53039,2.854 1.63338,3.32591 5.2225,4.64383 8.60806,3.16085 z m -5.72156,-6.01485 v -4.59721 l 2.20079,0.0149 c 2.56603,0.0173 3.40193,0.25805 4.01033,1.15483 0.9122,1.34455 0.47586,2.96777 -0.96922,3.60552 l -0.92688,0.40906 1.12857,1.76052 c 0.62071,0.96829 1.19558,1.87057 1.27749,2.00505 0.10931,0.17952 -0.0569,0.24455 -0.62503,0.24455 -0.77335,0 -0.77483,-0.002 -1.9189,-1.95276 l -1.14495,-1.95275 -0.83141,-0.004 -0.83141,-0.003 v 1.95626 1.95626 h -0.68469 -0.68469 z m 4.7528,-0.92922 c 0.53569,-0.39914 0.62246,-1.35747 0.17314,-1.91234 -0.34297,-0.42355 -0.5729,-0.48783 -1.97239,-0.55138 l -1.58417,-0.0719 v 1.39009 1.39009 h 1.52761 c 0.91664,0 1.65889,-0.0978 1.85581,-0.24453 z m 340.035,8.51133 c -2.36487,-0.84466 -3.82648,-2.14664 -4.86105,-4.33016 -0.56149,-1.18504 -0.61391,-1.46363 -0.61391,-3.2621 0,-1.87656 0.0333,-2.03395 0.7306,-3.44469 1.33546,-2.70211 3.71542,-4.27298 6.71218,-4.43027 2.65764,-0.13949 4.70117,0.65959 6.43956,2.51806 2.27947,2.43694 2.78948,5.99316 1.28654,8.9705 -0.75139,1.48848 -2.57617,3.17178 -4.06035,3.74555 -1.56591,0.60536 -4.27722,0.71755 -5.63357,0.23311 z m 3.91507,-1.13163 c 1.8424,-0.29551 3.64451,-1.7918 4.5599,-3.78606 0.40876,-0.89054 0.50463,-1.39674 0.50463,-2.66442 0,-1.26768 -0.0959,-1.77388 -0.50463,-2.66443 -0.97692,-2.12831 -2.73997,-3.50996 -4.9139,-3.85087 -2.07663,-0.32564 -3.84688,0.19066 -5.32484,1.55298 -2.82922,2.60787 -2.82922,7.31677 0,9.92464 1.24522,1.1478 3.18941,1.86949 4.50509,1.67232 0.21519,-0.0322 0.74338,-0.11512 1.17375,-0.18416 z m -4.40157,-6.45048 v -4.59721 l 2.10296,10e-4 c 2.53381,0.001 3.38474,0.21112 4.04666,0.99776 0.40005,0.47542 0.50165,0.80569 0.50165,1.63071 0,1.26491 -0.47181,1.95666 -1.55614,2.28153 l -0.75266,0.2255 1.25222,1.93586 c 0.6887,1.06471 1.2522,1.97773 1.2522,2.0289 0,0.0512 -0.33012,0.0902 -0.73359,0.0868 -0.71852,-0.006 -0.7577,-0.0464 -1.9056,-1.95626 l -1.17199,-1.95 h -0.83317 -0.83317 v 1.95626 1.95626 h -0.68469 -0.68468 v -4.5972 z m 4.89064,-1.07595 c 0.51136,-0.51136 0.50187,-1.40425 -0.0199,-1.87648 -0.31274,-0.28301 -0.78121,-0.38892 -1.95627,-0.44229 l -1.54507,-0.0702 v 1.39009 1.3901 h 1.56501 c 1.30417,0 1.63021,-0.0652 1.95626,-0.39125 z m -288.93921,6.72417 c -19.36178,-1.37796 -33.26883,-8.48814 -40.89278,-20.90703 -3.67279,-5.98272 -6.08404,-14.17908 -6.6039,-22.44805 l -0.14451,-2.2986 h 10.30573 10.30572 l 0.13092,1.5161 c 1.21398,14.05865 10.38809,22.28543 26.99544,24.20787 2.95946,0.34258 10.21075,0.39343 13.2341,0.0928 6.37512,-0.63392 11.62466,-2.13814 15.5219,-4.44773 2.03619,-1.20668 5.03738,-4.15239 6.12569,-6.01243 2.94483,-5.03314 3.15934,-12.63897 0.49374,-17.50851 -2.4499,-4.47551 -6.90614,-7.74548 -14.34447,-10.52589 -4.24998,-1.58862 -8.65149,-2.78436 -19.94601,-5.41864 -13.57813,-3.16689 -19.38286,-4.97436 -25.78123,-8.02776 -13.76344,-6.5681 -20.39426,-16.74213 -20.39426,-31.29198 0,-14.3662 7.19256,-25.88014 20.33637,-32.55469 10.68384,-5.42535 23.81116,-7.23923 38.93823,-5.38035 20.68628,2.54203 33.17049,12.38989 37.64995,29.69921 0.848,3.27686 1.66554,8.67588 1.66921,11.02351 l 0.002,1.02703 h -10.26149 -10.26149 l -0.0986,-0.63579 c -0.42072,-2.71195 -0.57379,-3.46942 -1.00712,-4.98312 -0.27034,-0.94439 -0.96622,-2.6854 -1.54641,-3.86894 -3.29836,-6.72834 -9.6748,-10.96889 -19.02695,-12.65354 -2.20834,-0.39781 -3.12301,-0.45025 -7.87812,-0.45167 -5.93875,-0.002 -8.01125,0.21686 -12.09952,1.27648 -9.47059,2.45451 -14.50593,7.90996 -14.50593,15.71579 0,4.0143 1.2741,7.23064 3.98139,10.05063 4.41438,4.59812 10.92329,7.32732 26.24278,11.0037 17.35954,4.16594 22.81748,5.7084 28.59055,8.07996 9.94287,4.0845 16.75194,9.87089 20.32427,17.27168 2.27688,4.71702 3.25229,9.53198 3.24612,16.0241 -0.004,3.96498 -0.21161,6.15484 -0.91458,9.63573 -3.69631,18.3027 -19.24122,29.84369 -43.81257,32.52769 -1.96538,0.21468 -12.56356,0.40553 -14.57412,0.26244 z m 99.08443,-0.10293 c -3.99785,-0.35124 -8.64712,-1.30611 -12.32442,-2.53117 -2.92633,-0.97488 -7.75715,-3.4825 -10.07472,-5.22966 -8.94186,-6.74101 -13.31422,-16.52921 -13.34152,-29.86709 -0.009,-4.54038 0.20724,-6.99869 0.93916,-10.6616 2.35012,-11.76153 9.30771,-20.03657 21.18188,-25.19274 7.62817,-3.31242 17.31224,-5.66901 33.94194,-8.25971 12.90542,-2.01049 17.47169,-3.11821 21.39972,-5.19128 6.06577,-3.2013 8.25488,-8.09369 7.26183,-16.22928 -1.29057,-10.57296 -7.3944,-16.29217 -19.46252,-18.23608 -2.71202,-0.43685 -13.42462,-0.49828 -16.2188,-0.0931 -4.73911,0.68737 -8.20838,1.7121 -11.4441,3.38031 -7.21068,3.71752 -11.25878,10.52829 -12.05352,20.27958 l -0.13154,1.61391 h -10.34004 c -8.88755,0 -10.34002,-0.0398 -10.34002,-0.28278 0,-1.21104 0.50462,-5.78704 0.88568,-8.03131 2.07373,-12.21349 7.86958,-21.66967 17.06616,-27.84422 7.24674,-4.86542 15.66289,-7.62664 27.04207,-8.87211 2.99209,-0.3275 14.74909,-0.32686 18.09538,9.8e-4 12.226,1.19776 20.83504,4.2709 27.12555,9.68293 5.84411,5.02799 9.46647,12.8299 10.32565,22.2396 0.13516,1.4801 0.20623,15.56696 0.20775,41.17922 0.002,24.48125 0.0754,39.75464 0.19913,41.15272 0.5206,5.88156 1.91496,7.47373 6.52465,7.45013 1.82754,-0.009 3.39035,-0.29929 5.74842,-1.06645 l 0.44221,-0.14387 -0.051,8.66927 -0.051,8.66927 -1.56436,0.83323 c -1.91252,1.01866 -4.47289,1.88341 -6.94536,2.34573 -2.60806,0.48767 -9.1045,0.49477 -11.02418,0.012 -3.87446,-0.97428 -6.87273,-2.90186 -9.03868,-5.81091 -2.05437,-2.7592 -3.37285,-7.20114 -3.75948,-12.66576 l -0.14181,-2.00416 -0.97813,1.22166 c -0.53798,0.6719 -2.12254,2.37149 -3.52126,3.77684 -9.30271,9.34678 -20.7026,14.58441 -34.23451,15.72887 -2.75658,0.23313 -8.56453,0.22133 -11.34629,-0.023 z m 18.48663,-20.01149 c 4.86136,-0.76592 8.49931,-1.89992 12.61786,-3.93312 9.15843,-4.52122 15.20481,-12.01589 17.43098,-21.60614 0.30091,-1.29629 0.34939,-2.97802 0.41611,-14.43673 l 0.0755,-12.96952 -1.13629,0.76976 c -2.36812,1.60422 -5.36131,2.84156 -9.53275,3.94071 -3.32683,0.8766 -6.60118,1.4573 -15.42022,2.73476 -9.62915,1.3948 -12.56911,1.91821 -16.48223,2.93436 -13.08578,3.39809 -19.27131,9.70592 -20.28112,20.68211 -0.37622,4.08919 0.29746,8.36879 1.81933,11.55761 2.46189,5.15843 7.98212,8.86599 15.20167,10.20996 3.01807,0.56183 2.99941,0.56072 8.34638,0.4976 3.32948,-0.0393 5.54635,-0.16104 6.94472,-0.38136 z m 110.62636,20.10433 c -6.73026,-0.42865 -13.24512,-1.67475 -18.8066,-3.59713 -2.86044,-0.98874 -7.98445,-3.47754 -10.34164,-5.02308 -7.73048,-5.06865 -13.13932,-12.22071 -16.13875,-21.34019 -1.41054,-4.28861 -2.20288,-8.61363 -2.61337,-14.26491 l -0.10299,-1.41828 h 10.42572 10.42571 l 0.13001,1.80954 c 0.71744,9.98464 6.30579,17.53095 15.75652,21.27704 2.45011,0.97118 6.33796,1.98348 9.40694,2.44936 3.32338,0.50448 11.70816,0.61585 15.55224,0.20658 8.5592,-0.91131 14.64643,-3.282 18.59461,-7.24172 3.32612,-3.33585 4.80986,-7.18544 4.83105,-12.53422 0.0237,-5.98655 -2.17706,-10.29864 -7.15161,-14.01263 -2.87906,-2.14952 -6.44649,-3.83341 -11.88205,-5.60854 -3.72882,-1.21775 -7.67549,-2.24393 -17.47738,-4.54429 -12.01365,-2.81945 -17.74831,-4.53557 -23.51398,-7.0367 -15.15665,-6.57488 -22.3818,-16.96319 -22.3818,-32.18058 0,-16.05384 8.74722,-28.23028 24.84448,-34.58443 6.34382,-2.50413 13.04133,-3.78697 20.83413,-3.99056 6.57026,-0.17165 13.05874,0.34592 18.87789,1.50585 20.58824,4.10385 31.76185,16.35611 33.93447,37.2103 0.16501,1.58396 0.30004,3.05848 0.30004,3.27673 0,0.39368 -0.082,0.39681 -10.36444,0.39681 h -10.36444 l -0.0882,-0.44015 c -0.0486,-0.24209 -0.19188,-1.14441 -0.3185,-2.00516 -1.36631,-9.28696 -7.48894,-15.93108 -17.30484,-18.77878 -3.87783,-1.125 -5.97857,-1.36806 -11.83536,-1.36937 -4.23482,-9.9e-4 -5.85848,0.0741 -7.62941,0.35259 -11.76236,1.84983 -17.85893,6.75099 -18.79057,15.1062 -0.53661,4.81218 1.15259,9.26798 4.74627,12.51988 4.39062,3.97306 11.10329,6.64507 25.29278,10.06795 18.54428,4.47336 23.35819,5.85383 29.37168,8.42284 13.58505,5.80366 20.79319,14.49403 22.4693,27.08982 0.33591,2.52436 0.38219,8.48358 0.087,11.20197 -1.50208,13.83192 -8.83474,24.25831 -21.48867,30.55494 -7.16769,3.56667 -15.61751,5.71484 -25.36411,6.44823 -2.48828,0.18723 -9.46494,0.23059 -11.92209,0.0741 z M 56.337071,297.54225 c -2.93531,-0.97508 -4.09512,-1.96498 -8.27921,-7.06642 C 46.374626,288.42355 38.70805,279.12968 31.021012,269.82279 23.333973,260.5159 16.255649,251.84478 15.291395,250.55366 8.0942817,240.91673 3.4618437,231.3965 1.2720077,221.74211 0.1712947,216.88938 0.0018537,215.22885 1.0702404e-5,209.27663 c -0.001,-4.38789 0.0692099976,-5.90559 0.354797997596,-7.6294 1.714285,-10.34796 5.469798,-18.82207 12.1808643,-27.48542 2.264266,-2.92296 7.921374,-8.59636 11.075153,-11.10706 2.570256,-2.04616 6.915273,-4.99277 9.643872,-6.54008 8.362861,-4.74231 17.456723,-7.51649 28.463543,-8.6831 3.63974,-0.38577 11.14278,-0.43784 14.67193,-0.10181 22.11441,2.1056 41.261339,13.1976 52.734889,30.54982 1.845,2.79032 4.29548,7.38387 5.52749,10.36155 1.17618,2.84274 1.16027,2.96111 -0.1593,1.18565 -9.17171,-12.34032 -27.92934,-19.68269 -47.956529,-18.77181 -10.83986,0.49302 -20.37522,3.37607 -27.94849,8.4503 -4.64882,3.11479 -9.711769,7.60242 -12.952148,11.48035 -4.0224,4.81383 -7.158552,10.59635 -8.935467,16.47547 -1.031862,3.41405 -1.701745,8.98559 -1.488393,12.37933 0.561028,8.92426 3.784539,16.80033 10.039104,24.52877 1.561921,1.92998 17.994404,21.79374 21.879244,26.44785 5.58273,6.68824 6.25569,7.68771 6.91689,10.27301 1.6558,6.47408 -2.62183,13.55497 -9.80325,16.22764 -1.24834,0.46458 -1.80376,0.5494 -3.99317,0.60978 -2.25397,0.0622 -2.699,0.0183 -3.91397,-0.38522 z"
     id="path21438"
     transform="matrix(0.95,0,0,0.95,12.5,12.500004)" /></svg>
