<?xml version="1.0" encoding="UTF-8" standalone="no"?>
<!-- Generator: Adobe Illustrator 24.0.1, SVG Export Plug-In . SVG Version: 6.00 Build 0)  -->

<svg
   version="1.1"
   id="Layer_1"
   x="0px"
   y="0px"
   viewBox="0 0 500 500"
   xml:space="preserve"
   width="500"
   height="500"
   sodipodi:docname="science_technology.svg"
   inkscape:version="1.2.2 (732a01da63, 2022-12-09)"
   xmlns:inkscape="http://www.inkscape.org/namespaces/inkscape"
   xmlns:sodipodi="http://sodipodi.sourceforge.net/DTD/sodipodi-0.dtd"
   xmlns="http://www.w3.org/2000/svg"
   xmlns:svg="http://www.w3.org/2000/svg"><sodipodi:namedview
   id="namedview549"
   pagecolor="#ffffff"
   bordercolor="#666666"
   borderopacity="1.0"
   inkscape:showpageshadow="2"
   inkscape:pageopacity="0.0"
   inkscape:pagecheckerboard="0"
   inkscape:deskcolor="#d1d1d1"
   showgrid="false"
   inkscape:zoom="0.472"
   inkscape:cx="-11.652542"
   inkscape:cy="251.05932"
   inkscape:window-width="2560"
   inkscape:window-height="1373"
   inkscape:window-x="-9"
   inkscape:window-y="-9"
   inkscape:window-maximized="1"
   inkscape:current-layer="Layer_1" /><defs
   id="defs4196">
	
	
	
	
	
	
	
	

		
		
	</defs>
<style
   type="text/css"
   id="style4169">
	.st0{fill:#F3A461;stroke:#000000;stroke-width:10;stroke-linecap:round;stroke-linejoin:round;stroke-miterlimit:10;}
	.st1{fill:none;stroke:#000000;stroke-width:10;stroke-linecap:round;stroke-linejoin:round;stroke-miterlimit:10;}
	.st2{fill:#88D1FE;stroke:#000000;stroke-width:10;stroke-linecap:round;stroke-linejoin:round;stroke-miterlimit:10;}
	.st3{fill:#0DBC6F;stroke:#000000;stroke-width:10;stroke-linecap:round;stroke-linejoin:round;stroke-miterlimit:10;}
	.st4{fill:#FFFFFF;stroke:#000000;stroke-width:10;stroke-linecap:round;stroke-linejoin:round;stroke-miterlimit:10;}
</style>
<path
   id="path4171"
   style="fill:#f6c155;fill-opacity:1;stroke:none"
   class="st0"
   d="M 77.560414,1 C 64.42115,1 53.674062,11.747093 53.674062,24.886347 c 0,13.139255 10.747088,23.88635 23.886352,23.88635 13.139245,0 23.886346,-10.747095 23.886346,-23.88635 C 101.44676,11.747093 90.699659,1 77.560414,1 Z m 0,8.9242627 c 8.316235,0 14.962079,6.6458513 14.962079,14.9620843 0,8.316235 -6.645844,14.962084 -14.962079,14.962084 -8.316235,0 -14.962089,-6.645849 -14.962089,-14.962084 0,-8.316233 6.645854,-14.9620843 14.962089,-14.9620843 z M 177.11126,35.410702 c -23.73811,0 -43.077,19.338904 -43.077,43.076997 0,23.738101 19.33889,43.076991 43.077,43.076991 23.73809,0 43.077,-19.33889 43.077,-43.076991 0,-23.738093 -19.33891,-43.076997 -43.077,-43.076997 z m 0,8.924263 c 18.91508,0 34.15273,15.237652 34.15273,34.152734 0,18.915078 -15.23765,34.152731 -34.15273,34.152731 -18.91508,0 -34.15273,-15.237653 -34.15273,-34.152731 0,-18.915082 15.23765,-34.152734 34.15273,-34.152734 z m 169.64117,9.281581 V 74.97203 c -10.77157,2.347081 -20.75723,6.604249 -29.69932,12.333608 l -15.1085,-15.1085 -0.4375,0.437503 -27.44211,27.442109 15.1085,15.10849 c -5.73828,8.94209 -9.98652,18.9281 -12.3336,29.61042 h -21.35549 v 39.4184 h 21.2753 c 2.34708,10.76264 6.60424,20.74817 12.33362,29.77951 l -15.01961,15.01959 27.87089,27.87089 15.01786,-15.0196 c 8.94209,5.7383 19.00968,9.98653 29.78125,12.33362 v 21.2753 h 39.41839 v -21.2753 c 10.68233,-2.34709 20.75723,-6.60424 29.69933,-12.33362 l 15.01959,15.0196 27.87089,-27.87089 -15.0196,-15.01959 c 5.7383,-9.03134 9.98653,-19.01687 12.33362,-29.77951 v -0.0174 h 21.28401 v -39.41843 h -21.3642 c -2.34706,-10.68232 -6.60425,-20.67007 -12.33361,-29.61216 l 15.1085,-15.1085 -19.01809,-19.016345 -8.8528,-8.852797 -15.1085,15.108491 c -7.9872,-5.122509 -16.75929,-9.031211 -26.04943,-11.458611 -1.2137,-0.348046 -2.3473,-0.607474 -3.561,-0.866278 V 53.616546 Z M 86.528245,88.361905 c -14.802318,0 -26.898281,12.094205 -26.898281,26.896545 0,14.80232 12.095963,26.89828 26.898281,26.89828 14.802335,0 26.898295,-12.09596 26.898295,-26.89828 0,-14.80234 -12.09596,-26.896545 -26.898295,-26.896545 z m 0,8.924259 c 9.979307,0 17.974025,7.992976 17.974025,17.972286 0,9.9793 -7.994718,17.97402 -17.974025,17.97402 -9.979289,0 -17.974019,-7.99472 -17.974019,-17.97402 0,-9.97931 7.99473,-17.972286 17.974019,-17.972286 z M 368.91144,109.88297 a 55.687401,55.687401 0 0 1 55.68775,55.68775 55.687401,55.687401 0 0 1 -55.68775,55.68775 55.687401,55.687401 0 0 1 -55.68774,-55.68775 55.687401,55.687401 0 0 1 55.68774,-55.68775 z M 98.532431,160.08195 c -10.371582,0 -18.873423,8.50359 -18.873423,18.87517 0,10.37157 8.501841,18.87516 18.873423,18.87516 h 3.365769 v 82.15202 c -45.854148,14.14836 -79.24815,56.70874 -79.24815,107.15913 0,3.65676 0.205111,7.23307 0.53685,10.74398 a 4.4625776,4.4625776 0 0 0 0.195218,0.44098 c 6.638427,55.75823 53.964363,99.01226 111.439992,99.01226 33.35273,0 63.29338,-14.57116 83.86018,-37.68584 l 21.21429,21.21604 a 4.4625776,4.4625776 0 0 0 6.31148,0 l 11.1501,-11.1501 c 6.74407,3.90303 14.05381,6.94359 21.79298,9.00619 v 15.81093 A 4.4625776,4.4625776 0 0 0 283.61327,499 h 35.68834 a 4.4625776,4.4625776 0 0 0 4.46213,-4.46213 v -15.82139 c 7.64082,-2.06252 14.9188,-5.09782 21.6518,-8.99573 l 11.14835,11.1501 a 4.4625776,4.4625776 0 0 0 6.31148,0 l 25.22847,-25.23021 a 4.4625776,4.4625776 0 0 0 0,-6.30974 l -11.15359,-11.15184 c 3.90167,-6.75455 6.9778,-14.03835 9.02013,-21.79124 h 15.80047 a 4.4625776,4.4625776 0 0 0 4.46214,-4.46213 v -35.68833 a 4.4625776,4.4625776 0 0 0 -4.46214,-4.46213 h -15.87716 c -2.03838,-7.68888 -5.11217,-14.90727 -9.00793,-21.59602 l 11.22679,-11.28431 a 4.4625776,4.4625776 0 0 0 -0.009,-6.30276 l -17.17049,-17.1705 -8.05798,-8.05798 a 4.4625776,4.4625776 0 0 0 -6.32019,0.009 l -11.19541,11.25468 c -6.74626,-3.94989 -13.96029,-7.05597 -21.59602,-9.05847 v -15.8007 a 4.4625776,4.4625776 0 0 0 -4.46213,-4.46213 h -35.68828 a 4.4625776,4.4625776 0 0 0 -4.46213,4.46213 v 15.8702 c -7.74256,2.03575 -15.00938,5.10917 -21.71803,9.00793 l -11.21633,-11.28257 a 4.4625776,4.4625776 0 0 0 -6.32019,-0.009 l -0.42704,0.42878 -13.59033,13.59033 C 211.76292,301.95359 191.57035,287.22422 168.07021,279.9721 v -82.13982 h 3.35706 c 10.37158,0 18.87343,-8.50359 18.87343,-18.87516 0,-10.37158 -8.50185,-18.87517 -18.87343,-18.87517 z m 0,8.92427 h 72.894839 c 5.54928,0 9.94916,4.40162 9.94916,9.9509 0,5.54927 -4.39988,9.9509 -9.94916,9.9509 h -7.81919 -57.24775 -7.827899 c -5.549285,0 -9.949161,-4.40163 -9.949161,-9.9509 0,-5.54928 4.399876,-9.9509 9.949161,-9.9509 z m 12.290029,28.82606 h 48.32349 v 85.39578 a 4.4625776,4.4625776 0 0 0 3.28036,4.30352 c 41.61943,11.447 72.62886,48.18131 75.57212,92.73041 h -69.10725 c -15.60143,0 -31.06794,2.77159 -45.7229,8.05624 v -0.002 c -32.72472,11.79343 -67.215309,9.58569 -91.266277,5.35107 -0.14419,-2.17041 -0.32769,-4.33616 -0.32769,-6.52412 0,-47.63283 32.207459,-87.5682 75.967787,-99.60315 a 4.4625776,4.4625776 0 0 0 3.28036,-4.30351 z M 288.0754,298.23024 h 26.76408 v 14.83135 a 4.4625776,4.4625776 0 0 0 3.58016,4.37498 c 0.89716,0.18094 1.86741,0.43165 2.89167,0.70942 a 4.4625776,4.4625776 0 0 0 0.0435,0.0104 c 7.93344,2.06338 15.41422,5.40031 22.32111,9.82715 a 4.4625776,4.4625776 0 0 0 5.57069,-0.61006 l 10.48078,-10.53655 4.89614,4.89614 14.0226,14.0226 -10.49821,10.55224 a 4.4625776,4.4625776 0 0 0 -0.60308,5.53757 c 4.90671,7.7336 8.57727,16.21414 10.57141,25.34351 a 4.4625776,4.4625776 0 0 0 4.3593,3.51045 h 14.8331 v 26.76407 h -14.76161 a 4.4625776,4.4625776 0 0 0 -4.3593,3.51219 c -2.00542,9.20979 -5.67325,17.76556 -10.58187,25.5701 a 4.4625776,4.4625776 0 0 0 0.62226,5.53061 l 10.40932,10.40931 -18.91874,18.91874 -10.40932,-10.40931 a 4.4625776,4.4625776 0 0 0 -5.54454,-0.61355 c -7.69792,4.88406 -16.34316,8.50946 -25.45333,10.58188 a 4.4625776,4.4625776 0 0 0 -3.47209,4.35057 v 14.76164 h -26.76408 v -14.76164 a 4.4625776,4.4625776 0 0 0 -3.48604,-4.35406 c -9.25064,-2.07357 -17.88265,-5.69433 -25.58056,-10.57839 a 4.4625776,4.4625776 0 0 0 -5.54629,0.61355 l -10.40932,10.40931 -18.6782,-18.67647 c 14.12087,-18.66226 22.5542,-41.86856 22.72724,-67.04526 a 4.4625776,4.4625776 0 0 0 0.10807,-1.05801 c -0.453,-20.37758 -6.35182,-39.3909 -16.28155,-55.68077 l 12.11398,-12.11399 10.48078,10.54178 a 4.4625776,4.4625776 0 0 0 5.55501,0.62225 c 7.72362,-4.90037 16.27661,-8.57553 25.48121,-10.57141 a 4.4625776,4.4625776 0 0 0 3.51567,-4.36104 z m 15.60875,41.97018 c -30.24402,0 -54.85808,24.61404 -54.85808,54.85807 0,30.24402 24.61406,54.85806 54.85808,54.85806 30.244,0 54.85807,-24.61404 54.85807,-54.85806 0,-30.24403 -24.61407,-54.85807 -54.85807,-54.85807 z m 0,8.92426 c 25.42099,0 45.9338,20.51281 45.9338,45.93381 0,25.42099 -20.51281,45.9338 -45.9338,45.9338 -25.42101,0 -45.93381,-20.51281 -45.93381,-45.9338 0,-25.421 20.5128,-45.93381 45.93381,-45.93381 z"
   transform="matrix(0.95381526,0,0,0.95381526,11.546185,11.546185)" />
</svg>
