<?xml version="1.0" encoding="UTF-8" standalone="no"?>
<!-- Created with Inkscape (http://www.inkscape.org/) -->

<svg
   width="100"
   height="100"
   viewBox="0 0 26.458332 26.458334"
   version="1.1"
   id="svg5"
   xml:space="preserve"
   sodipodi:docname="shotcut.svg"
   inkscape:version="1.2.2 (732a01da63, 2022-12-09)"
   xmlns:inkscape="http://www.inkscape.org/namespaces/inkscape"
   xmlns:sodipodi="http://sodipodi.sourceforge.net/DTD/sodipodi-0.dtd"
   xmlns="http://www.w3.org/2000/svg"
   xmlns:svg="http://www.w3.org/2000/svg"><sodipodi:namedview
     id="namedview6"
     pagecolor="#ffffff"
     bordercolor="#666666"
     borderopacity="1.0"
     inkscape:showpageshadow="2"
     inkscape:pageopacity="0.0"
     inkscape:pagecheckerboard="0"
     inkscape:deskcolor="#d1d1d1"
     showgrid="false"
     inkscape:zoom="3.337544"
     inkscape:cx="72.95784"
     inkscape:cy="89.437023"
     inkscape:window-width="2560"
     inkscape:window-height="1373"
     inkscape:window-x="-9"
     inkscape:window-y="1125"
     inkscape:window-maximized="1"
     inkscape:current-layer="svg5" /><defs
     id="defs2" /><g
     id="layer1"
     style="fill:#f6c056;fill-opacity:1;opacity:0.7"><path
       style="fill:#f6c056;fill-opacity:1"
       d="M 0,256 V 0 h 71 71 V 256 512 H 71 0 Z m 161,0 V 0 H 336.5 512 V 256 512 H 336.5 161 Z M 231.02117,96.419642 c 5.27197,-3.078994 7.97952,-7.770061 7.97509,-13.817525 -0.006,-8.332892 -2.13018,-10.679988 -15.42863,-17.048601 -10.39457,-4.977946 -11.5819,-5.820725 -12.36956,-8.780011 -1.06556,-4.003392 0.27239,-8.419735 2.9917,-9.875065 2.53028,-1.354169 12.56037,-1.324134 16.17046,0.04842 4.27879,1.626793 5.35916,1.296854 6.50363,-1.986179 0.97907,-2.808553 0.85363,-3.119241 -1.65217,-4.091974 -4.78777,-1.858573 -13.74014,-2.698291 -18.79972,-1.763381 -8.87304,1.639563 -13.62771,6.827769 -13.56593,14.802905 0.0642,8.293677 2.59111,11.315007 14.00496,16.745443 5.30695,2.52492 10.6615,5.514207 11.899,6.642859 2.23817,2.041308 2.97656,6.646503 1.62882,10.158664 -1.68903,4.401535 -13.39848,5.959214 -22.96989,3.055626 -2.69991,-0.819046 -5.02143,-1.494046 -5.15893,-1.5 -0.1375,-0.006 -0.25,1.724079 -0.25,3.844516 0,3.457783 0.33513,3.96853 3.25,4.953015 1.7875,0.603722 7.53606,0.994488 12.77457,0.868369 7.4689,-0.179816 10.27394,-0.666959 12.9966,-2.257081 z m 95.66373,1.51674 c 7.46334,-2.819845 12.25916,-10.942315 12.29314,-20.820362 0.0293,-8.508739 -1.668,-13.70669 -5.94069,-18.193554 -8.90959,-9.356215 -26.21805,-7.033448 -32.2556,4.328649 -1.83398,3.45139 -2.26,5.859012 -2.26975,12.827305 -0.0109,7.793795 0.26346,9.028572 2.99963,13.5 3.79363,6.199524 9.65363,9.42158 17.13516,9.42158 2.87266,0 6.48981,-0.478628 8.03811,-1.063618 z m -13.68375,-6.63985 C 308.27459,88.869617 306.5616,84.954078 306.5279,76.5 306.48049,64.604979 310.02491,60 319.22783,60 327.21323,60 331,65.146745 331,76 c 0,10.193377 -3.33712,15.424061 -10.52612,16.498915 -2.80529,0.419428 -5.00278,0.06585 -7.47273,-1.202383 z m 57.41706,7.096479 C 371.35827,98.032279 372,96.607527 372,94.881194 c 0,-2.826997 -0.10676,-2.887758 -3.9843,-2.267714 -2.87047,0.459006 -4.68758,0.17631 -6.5,-1.011235 C 359.01345,89.962709 359,89.8738 359,74.976947 V 60 h 6 6 v -3 -3 h -6 -6 v -5.066422 c 0,-4.903824 -0.0858,-5.056268 -2.67288,-4.75 -2.15393,0.254987 -2.94809,1.145664 -4.09035,4.587462 -0.96257,2.900374 -2.35123,4.75391 -4.32712,5.77568 C 343.873,56.634157 343.92876,60 348,60 h 3 l 0.004,15.25 c 0.003,13.49245 0.23453,15.628543 2.00632,18.534562 1.10142,1.806509 3.01224,3.690485 4.24626,4.186614 2.60038,1.045461 10.84791,1.309793 13.16189,0.421835 z m 36.01669,-0.36826 C 408.51401,97.234273 409,96.386389 409,93.549502 409,90.205682 408.88554,90.09302 406.4349,91.024751 405.0241,91.561138 401.28329,92 398.12199,92 c -5.00981,0 -6.09734,-0.364832 -8.4701,-2.84146 -1.82518,-1.905076 -2.96473,-4.459035 -3.45797,-7.75 -1.52981,-10.207 1.11091,-18.415188 6.60838,-20.540962 2.68594,-1.038604 10.24457,-0.71848 13.30478,0.563485 1.16736,0.489023 1.95663,-0.170654 2.8846,-2.410982 1.51345,-3.653784 1.31566,-3.928329 -3.66246,-5.083667 -8.81662,-2.046194 -17.18938,-0.07179 -22.03149,5.195315 -7.17445,7.804145 -7.45142,26.405296 -0.50959,34.222903 4.25386,4.790527 16.80853,7.270008 23.64676,4.670119 z m 39.24185,-1.794578 C 449.52073,93.493017 450,93.4675 450,96 c 0,1.619048 0.66667,2 3.5,2 H 457 V 76 54 h -4 -4 v 14.032119 c 0,18.640899 -1.71671,22.919245 -9.81228,24.453954 -4.64734,0.881014 -10.10217,-1.130868 -11.24974,-4.149193 C 427.42209,86.979987 427,78.699096 427,69.9349 V 54 h -4 -4 v 17.265602 c 0,19.544111 0.87473,22.758838 7.08481,26.037452 4.85124,2.561218 15.29121,1.989512 19.59194,-1.072881 z m 44.74146,2.162838 C 491.35827,98.032279 492,96.607527 492,94.881194 c 0,-2.826997 -0.10676,-2.887758 -3.9843,-2.267714 -2.87047,0.459006 -4.68758,0.17631 -6.5,-1.011235 C 479.01345,89.962709 479,89.8738 479,74.976947 V 60 h 6 6 v -3 -3 h -6 -6 v -5.066422 c 0,-4.937048 -0.0702,-5.058343 -2.75,-4.75 -2.27309,0.261548 -2.91747,0.994668 -3.71569,4.227409 -0.69512,2.815178 -1.88592,4.453932 -4.25,5.848776 C 463.96949,56.805569 463.81127,60 468,60 h 3 l 0.004,15.25 c 0.003,13.49245 0.23453,15.628543 2.00632,18.534562 1.10142,1.806509 3.01224,3.690485 4.24626,4.186614 2.60038,1.045461 10.84791,1.309793 13.16189,0.421835 z M 257.19348,83.25 c 0.60048,-20.085017 2.41715,-23.299546 13.12162,-23.218197 8.34727,0.06344 9.6849,3.33837 9.6849,23.711595 L 280,98 h 3.5 3.5 V 80.901129 c 0,-18.804933 -0.76892,-22.152486 -5.76616,-25.103318 -6.3525,-3.751106 -14.48194,-3.475901 -20.63326,0.698497 L 257,58.939726 V 46.969863 35 H 253.5 250 V 66.5 98 h 3.37625 3.37625 z"
       id="path299"
       transform="matrix(0.04909261,0,0,0.04909261,0.66145834,0.66145834)" /></g><path
     style="fill:#f6c055;fill-opacity:1"
     d="M 0,502.5 V 493 H 61.5 123 V 256 19 H 61.5 0 V 9.5 0 h 71 71 V 256 512 H 71 0 Z M 161,256 V 0 H 336.5 512 V 9.5 19 H 346 180 v 237 237 h 166 166 v 9.5 9.5 H 336.5 161 Z"
     id="path304"
     transform="matrix(0.04909261,0,0,0.04909261,0.66145834,0.66145834)" /></svg>
