<?xml version="1.0" encoding="UTF-8" standalone="no"?>
<svg
   width="500pt"
   height="500pt"
   version="1.1"
   viewBox="0 0 500 500"
   id="svg460"
   sodipodi:docname="software-package.svg"
   inkscape:version="1.2.2 (732a01da63, 2022-12-09)"
   xmlns:inkscape="http://www.inkscape.org/namespaces/inkscape"
   xmlns:sodipodi="http://sodipodi.sourceforge.net/DTD/sodipodi-0.dtd"
   xmlns="http://www.w3.org/2000/svg"
   xmlns:svg="http://www.w3.org/2000/svg">
  <sodipodi:namedview
     id="namedview5"
     pagecolor="#ffffff"
     bordercolor="#666666"
     borderopacity="1.0"
     inkscape:showpageshadow="2"
     inkscape:pageopacity="0.0"
     inkscape:pagecheckerboard="0"
     inkscape:deskcolor="#d1d1d1"
     inkscape:document-units="pt"
     showgrid="false"
     inkscape:zoom="0.3796692"
     inkscape:cx="-317.38155"
     inkscape:cy="314.74768"
     inkscape:window-width="2560"
     inkscape:window-height="1373"
     inkscape:window-x="-9"
     inkscape:window-y="-9"
     inkscape:window-maximized="1"
     inkscape:current-layer="svg460" />
  <defs
     id="defs432" />
  <path
     id="path434-2"
     d="m 233.80471,0 c -3.5581,0 -7.11535,0.81642 -10.38135,2.44922 L 106.29299,61.01513 c -7.933591,3.9648 -12.949221,12.13301 -12.949221,21 v 80.14747 c 0,6.41799 5.25095,11.66748 11.668941,11.66748 l -0.006,0.004 c 6.41799,0 11.66894,-5.25095 11.66894,-11.66895 V 92.39902 l 105,52.61719 v 150.15088 l -6.41894,-3.2666 c -7.6992,-3.8516 -16.91749,1.74982 -16.91749,10.38281 0,4.43359 2.44869,8.5156 6.41749,10.5 l 18.08203,8.98535 c 6.64839,3.2656 14.352,3.2656 21,0 l 116.67041,-58.44873 c 7.81639,-3.9648 12.83203,-12.0171 12.83203,-20.76709 V 81.43359 c 0,-8.86719 -5.01564,-16.91782 -12.83203,-20.88281 L 244.18898,2.44922 C 240.92139,0.81642 237.3628,0 233.80471,0 Z m -0.001,23.33935 h 0.004 l 101.15039,50.51514 0.46435,0.23437 -101.50049,50.8667 h -0.11718 l -0.46436,-0.23437 h -0.11719 L 132.18264,74.08886 Z M 46.668459,68.83154 C 20.883479,68.83154 0,89.83202 0,115.5 v 244.99951 c 0,25.78497 20.883479,46.66846 46.668459,46.66846 H 373.3374 c 25.78498,0 46.66846,-20.88349 46.66846,-46.66846 V 115.5 c 0,-13.64799 -5.94965,-26.01617 -15.39844,-34.53516 v -10e-4 c -7.46479,-6.8828 -19.60107,-1.5146 -19.60107,8.63379 0,3.26559 1.39788,6.41752 3.85107,8.63232 4.7852,4.1992 7.81641,10.38312 7.81641,17.26611 v 244.99951 c 0,12.94899 -10.50005,23.33204 -23.33203,23.33204 l -326.670411,0.004 c -12.83199,0 -23.33203,-10.38304 -23.33203,-23.33203 l -0.003,-244.99951 c 0,-12.83199 10.50004,-23.33203 23.33203,-23.33203 6.41799,0 11.66748,-5.25096 11.66748,-11.66895 0,-6.41799 -5.24949,-11.66748 -11.66748,-11.66748 z M 350.0083,92.39941 v 150.14942 l -105,52.61718 V 145.0166 Z m -233.32178,93.10108 c -6.41799,0 -11.66894,5.25095 -11.66894,11.66894 v 12.83203 c -7.464791,1.5156 -14.351001,4.43314 -20.416991,8.51514 l -9.10254,-9.10108 c -2.332,-2.33199 -5.24996,-3.38378 -8.28516,-3.38378 -3.0352,0 -5.94916,1.16899 -8.28515,3.38378 -4.5508,4.5508 -4.5508,11.89774 0,16.44874 l 9.10253,9.10107 c -4.08199,6.06639 -7.001,13.06646 -8.5166,20.41846 h -12.8325 c -6.41799,0 -11.66748,5.24948 -11.66748,11.66748 0,6.41799 5.24949,11.66894 11.66748,11.66894 h 12.83203 c 1.5156,7.46479 4.43461,14.351 8.5166,20.41699 l -9.10253,9.10254 c -4.5508,4.5508 -4.5508,11.89774 0,16.44873 2.33199,2.332 5.24995,3.38233 8.28515,3.38233 3.0352,0 5.94916,-1.16753 8.28516,-3.38233 l 9.10254,-9.10254 c 6.06639,4.082 13.065,7.00101 20.416991,8.51661 v 12.83203 c 0,6.41799 5.25095,11.66748 11.66894,11.66748 6.418,0 11.66748,-5.24949 11.66748,-11.66748 v -12.83203 c 7.4648,-1.5156 14.35247,-4.43461 20.41846,-8.51661 l 9.10108,9.10254 c 2.33199,2.332 5.24996,3.38233 8.28515,3.38233 3.0352,0 5.94916,-1.16753 8.28516,-3.38233 4.55079,-4.55079 4.55079,-11.89773 0,-16.44873 l -9.10108,-9.10254 c 4.082,-6.06639 6.99954,-13.065 8.51514,-20.41699 h 12.83203 c 6.418,0 11.66748,-5.25095 11.66748,-11.66894 0,-6.418 -5.24948,-11.66748 -11.66748,-11.66748 h -12.83203 c -1.5156,-7.4648 -4.43314,-14.35247 -8.51514,-20.41846 l 9.10108,-9.10107 c 4.55079,-4.5508 4.55079,-11.89774 0,-16.44874 -2.332,-2.33199 -5.24996,-3.38378 -8.28516,-3.38378 -3.03519,0 -5.94916,1.16899 -8.28515,3.38378 l -9.10108,9.10108 c -6.06639,-4.082 -13.06646,-6.99954 -20.41846,-8.51514 v -12.83203 c 0,-6.41799 -5.24948,-11.66894 -11.66748,-11.66894 z m -0.94189,46.07812 c 19.24998,0 34.99951,15.74953 34.99951,34.99951 0,19.24998 -15.74953,35.00098 -34.99951,35.00098 -19.249981,0 -35.000981,-15.751 -35.000981,-35.00098 0,-19.24998 15.751,-34.99951 35.000981,-34.99951 z M 66.278319,441.46435 c -6.64839,0 -12.01611,5.36732 -12.01611,12.01612 0,6.64839 5.36732,12.01611 12.01611,12.01611 l 287.459471,0.69873 c 6.6484,0 12.01612,-5.36732 12.01612,-12.01611 0,-6.6488 -5.36732,-12.01465 -12.01612,-12.01465 z"
     style="fill:#f6c156;fill-opacity:1"
     transform="matrix(1.0188863,0,0,1.0188863,36.030892,12.499993)" />
</svg>
